<svg width="22" height="40" viewBox="0 0 22 40" fill="none" xmlns="http://www.w3.org/2000/svg">
<path d="M11 34C8.70667 34 6.76 33.6267 5.16 32.88C3.56 32.1067 2.33333 31.0267 1.48 29.64C0.653333 28.2267 0.24 26.5733 0.24 24.68H3.84C3.84 25.5867 4.05333 26.5067 4.48 27.44C4.93333 28.3733 5.68 29.16 6.72 29.8C7.76 30.4133 9.18667 30.72 11 30.72C13.4 30.72 15.1733 30.2133 16.32 29.2C17.4933 28.1867 18.08 27.0267 18.08 25.72C18.08 24.44 17.56 23.3733 16.52 22.52C15.48 21.6667 13.9733 21.1467 12 20.96L9.36 20.72C6.8 20.48 4.76 19.7067 3.24 18.4C1.72 17.0933 0.96 15.2267 0.96 12.8C0.96 11.12 1.36 9.69333 2.16 8.52C2.98667 7.32 4.13333 6.4 5.6 5.76C7.09333 5.12 8.84 4.8 10.84 4.8C12.84 4.8 14.56 5.16 16 5.88C17.4667 6.57333 18.6 7.6 19.4 8.96C20.2 10.2933 20.6 11.9067 20.6 13.8H17C17 12.84 16.7867 11.9333 16.36 11.08C15.9333 10.2 15.2667 9.48 14.36 8.92C13.48 8.36 12.3067 8.08 10.84 8.08C9.53333 8.08 8.41333 8.29333 7.48 8.72C6.57333 9.12 5.86667 9.68 5.36 10.4C4.88 11.12 4.64 11.92 4.64 12.8C4.64 13.9467 5.05333 14.9467 5.88 15.8C6.70667 16.6267 7.97333 17.12 9.68 17.28L12.32 17.52C15.1733 17.7867 17.4533 18.6267 19.16 20.04C20.8933 21.4267 21.76 23.32 21.76 25.72C21.76 27.3733 21.32 28.8267 20.44 30.08C19.56 31.3067 18.32 32.2667 16.72 32.96C15.12 33.6533 13.2133 34 11 34ZM9.28 39.16V33.32H12.72V39.16H9.28ZM9.12 6.76V0.919999H12.56V6.76H9.12Z" fill="white"/>
</svg>
