<svg width="52" height="52" viewBox="0 0 52 52" fill="none" xmlns="http://www.w3.org/2000/svg">
<rect width="52" height="52" rx="13" fill="url(#paint0_linear_1_345)"/>
<path opacity="0.4" d="M26.0689 13C29.1527 13 31.5592 13 33.4347 13.2269C35.3431 13.4578 36.8535 13.9381 38.0491 15.0141C39.2596 16.1036 39.8139 17.5033 40.0776 19.2686C40.3327 20.9763 40.3327 23.3257 40.3327 26.0833C40.3327 28.8411 40.3327 31.0237 40.0776 32.7313C39.8139 34.4967 39.2596 35.8964 38.0491 36.986C36.8535 38.0619 35.3431 38.5421 33.4347 38.7731C31.5592 39 29.1527 39 26.0689 39C22.9851 39 20.4395 39 18.5641 38.7731C16.6556 38.5421 15.1452 38.0619 13.9497 36.986C12.7391 35.8964 12.1848 34.4967 11.9211 32.7313C11.666 31.0237 11.666 28.8411 11.666 26.0833C11.666 23.3256 11.666 20.9763 11.9211 19.2686C12.1848 17.5033 12.7391 16.1036 13.9497 15.0141C15.1452 13.9381 16.6556 13.4578 18.5641 13.2269C20.4395 13 22.9851 13 26.0689 13Z" fill="white"/>
<path d="M21.2557 19.666C21.7102 19.666 22.1457 19.6659 22.5037 19.714C22.905 19.768 23.3551 19.8984 23.728 20.2713C24.1011 20.6443 24.2315 21.0943 24.2853 21.4957C24.3335 21.8537 24.3335 22.2892 24.3333 22.7437V23.9216C24.3335 24.3762 24.3335 24.8118 24.2853 25.1698C24.2315 25.5711 24.1011 26.0211 23.728 26.394C23.3551 26.7671 22.905 26.8975 22.5037 26.9514C22.1457 26.9995 21.7102 26.9995 21.2557 26.9994H20.0777C19.6232 26.9995 19.1877 26.9995 18.8297 26.9514C18.4283 26.8975 17.9783 26.7671 17.6053 26.394C17.2324 26.0211 17.102 25.5711 17.048 25.1698C16.9999 24.8118 16.9999 24.3762 17 23.9216V22.7437C16.9999 22.2892 16.9999 21.8537 17.048 21.4957C17.102 21.0943 17.2324 20.6443 17.6053 20.2713C17.9783 19.8984 18.4283 19.768 18.8297 19.714C19.1877 19.6659 19.6232 19.666 20.0777 19.666H21.2557Z" fill="white"/>
<path fill-rule="evenodd" clip-rule="evenodd" d="M17 31.334C17 30.7817 17.4477 30.334 18 30.334H23.3333C23.8856 30.334 24.3333 30.7817 24.3333 31.334C24.3333 31.8863 23.8856 32.334 23.3333 32.334H18C17.4477 32.334 17 31.8863 17 31.334Z" fill="white"/>
<path fill-rule="evenodd" clip-rule="evenodd" d="M27.666 20.666C27.666 20.1137 28.1137 19.666 28.666 19.666H33.9993C34.5516 19.666 34.9993 20.1137 34.9993 20.666C34.9993 21.2183 34.5516 21.666 33.9993 21.666H28.666C28.1137 21.666 27.666 21.2183 27.666 20.666Z" fill="white"/>
<path fill-rule="evenodd" clip-rule="evenodd" d="M27.666 26C27.666 25.4477 28.1137 25 28.666 25H33.9993C34.5516 25 34.9993 25.4477 34.9993 26C34.9993 26.5523 34.5516 27 33.9993 27H28.666C28.1137 27 27.666 26.5523 27.666 26Z" fill="white"/>
<path fill-rule="evenodd" clip-rule="evenodd" d="M27.666 31.334C27.666 30.7817 28.1137 30.334 28.666 30.334H33.9993C34.5516 30.334 34.9993 30.7817 34.9993 31.334C34.9993 31.8863 34.5516 32.334 33.9993 32.334H28.666C28.1137 32.334 27.666 31.8863 27.666 31.334Z" fill="white"/>
<defs>
<linearGradient id="paint0_linear_1_345" x1="-4.875" y1="-12.4583" x2="52" y2="62.8333" gradientUnits="userSpaceOnUse">
<stop offset="0.0550171" stop-color="#0A0FDB"/>
<stop offset="1" stop-color="#8D00A6"/>
</linearGradient>
</defs>
</svg>
