<svg width="52" height="52" viewBox="0 0 52 52" fill="none" xmlns="http://www.w3.org/2000/svg">
<rect width="52" height="52" rx="13" fill="url(#paint0_linear_1_375)"/>
<path opacity="0.4" d="M20.3431 13.2467C21.9326 12.4233 23.7551 11.666 25.9968 11.666C28.2386 11.666 30.0616 12.4233 31.652 13.2467C32.1324 13.4955 32.5788 13.7416 33.0055 13.9768C34.0495 14.5524 34.9749 15.0626 35.9909 15.3866C36.5872 15.5768 37.1155 15.7452 37.49 15.892C37.8427 16.0301 38.2616 16.2193 38.559 16.5497C38.8262 16.8465 38.9634 17.1797 39.0543 17.4985C39.137 17.7878 39.2075 18.1795 39.2752 18.5553C40.9263 27.7092 37.3206 36.3819 28.507 39.7565C27.6406 40.0883 27.0026 40.3327 26.0012 40.3327C24.9998 40.3327 24.3618 40.0883 23.4953 39.7565C14.6814 36.382 11.0721 27.7096 12.7227 18.5554C12.7904 18.1797 12.861 17.788 12.9435 17.4987C13.0345 17.18 13.1717 16.8468 13.4387 16.55C13.736 16.2196 14.155 16.0303 14.5076 15.8921C14.8821 15.7454 15.4104 15.5768 16.0068 15.3865C17.0222 15.0625 17.9469 14.5525 18.9901 13.977C19.4165 13.7418 19.8628 13.4956 20.3431 13.2467Z" fill="white"/>
<path fill-rule="evenodd" clip-rule="evenodd" d="M26.0007 32.6673C29.6825 32.6673 32.6673 29.6825 32.6673 26.0007C32.6673 22.3188 29.6825 19.334 26.0007 19.334C22.3188 19.334 19.334 22.3188 19.334 26.0007C19.334 29.6825 22.3188 32.6673 26.0007 32.6673ZM29.0012 24.9436C29.5217 24.7592 29.7944 24.1877 29.61 23.6671C29.4256 23.1465 28.8541 22.8739 28.3335 23.0583C27.6907 23.286 27.0939 23.7124 26.5888 24.1553C26.0735 24.6073 25.5957 25.1283 25.1936 25.6104C24.9987 25.844 24.8187 26.0719 24.6577 26.2832C24.5401 26.1732 24.4223 26.0801 24.3053 26.0023C24.2813 25.9863 24.2575 25.9696 24.2331 25.9525C24.0421 25.8196 23.8237 25.6676 23.334 25.6676C22.7817 25.6676 22.334 26.1153 22.334 26.6676C22.334 27.1672 22.7004 27.5813 23.1792 27.6557C23.1839 27.6585 23.1895 27.662 23.1959 27.6663C23.2702 27.7159 23.4989 27.9001 23.7729 28.4481C23.9341 28.7705 24.2563 28.9812 24.6161 28.9996C24.976 29.018 25.3183 28.8409 25.5116 28.5368C25.7287 28.2293 26.3687 27.3239 26.7293 26.8915C27.0919 26.4569 27.4965 26.0196 27.9076 25.6591C28.3291 25.2895 28.7028 25.0492 29.0012 24.9436Z" fill="white"/>
<defs>
<linearGradient id="paint0_linear_1_375" x1="-4.875" y1="-12.4583" x2="52" y2="62.8333" gradientUnits="userSpaceOnUse">
<stop offset="0.0550171" stop-color="#0A0FDB"/>
<stop offset="1" stop-color="#8D00A6"/>
</linearGradient>
</defs>
</svg>
