<svg width="48" height="48" viewBox="0 0 48 48" fill="none" xmlns="http://www.w3.org/2000/svg">
<path opacity="0.4" d="M15.2602 16.9529C18.0541 16.8245 20.8914 16.7576 24.0127 16.7576C27.134 16.7576 29.9713 16.8245 32.7652 16.9529C36.7906 17.138 40.0592 20.2552 40.5905 24.2004C40.8801 26.3527 41.1274 28.6142 41.1274 30.9383C41.1274 33.2624 40.8801 35.5239 40.5905 37.6762C40.0592 41.6214 36.7906 44.7386 32.7652 44.9237C29.9713 45.0522 27.134 45.1191 24.0127 45.1191C20.8914 45.1191 18.0541 45.0522 15.2602 44.9237C11.2347 44.7386 7.96614 41.6214 7.43496 37.6762C7.14517 35.5239 6.89801 33.2624 6.89801 30.9383C6.89801 28.6142 7.14517 26.3527 7.43496 24.2004C7.96614 20.2552 11.2347 17.138 15.2602 16.9529Z" fill="#236936"/>
<path fill-rule="evenodd" clip-rule="evenodd" d="M20.4024 24.5818C19.2013 24.5818 18.0439 25.3172 17.6507 26.5344L14.7937 35.3775C14.5446 36.1486 14.9677 36.9754 15.7386 37.2246C16.5096 37.4735 17.3365 37.0505 17.5855 36.2796L18.2052 34.3616H22.5997L23.2193 36.2796C23.4685 37.0505 24.2953 37.4735 25.0664 37.2246C25.8372 36.9754 26.2603 36.1486 26.0113 35.3775L23.1542 26.5344C22.7611 25.3172 21.6035 24.5818 20.4024 24.5818ZM19.1537 31.4269L20.4031 27.5597L21.6524 31.4269H19.1537Z" fill="#236936"/>
<path d="M31.3476 26.0488C31.3476 25.2386 30.6908 24.5818 29.8806 24.5818C29.0704 24.5818 28.4136 25.2386 28.4136 26.0488V35.8286C28.4136 36.6387 29.0704 37.2956 29.8806 37.2956C30.6908 37.2956 31.3476 36.6387 31.3476 35.8286V26.0488Z" fill="#236936"/>
<path d="M17.1674 13.824C17.1674 10.0431 20.2324 6.97809 24.0132 6.97809C27.7941 6.97809 30.8591 10.0431 30.8591 13.824V16.8756C31.4987 16.8983 32.1334 16.9242 32.7658 16.9533C33.4602 16.9852 34.1318 17.1044 34.771 17.2999V13.824C34.771 7.88259 29.9547 3.06616 24.0132 3.06616C18.0719 3.06616 13.2554 7.88259 13.2554 13.824V17.2999C13.8946 17.1044 14.5664 16.9852 15.2607 16.9533C15.8931 16.9242 16.5277 16.8983 17.1674 16.8756V13.824Z" fill="#236936"/>
</svg>
