<svg width="47" height="48" viewBox="0 0 47 48" fill="none" xmlns="http://www.w3.org/2000/svg">
<path opacity="0.4" d="M13.1699 9.70127C13.8396 9.83968 14.373 10.2896 14.7043 10.8841L15.7599 12.7779C16.1488 13.4755 16.476 14.0624 16.6897 14.5727C16.9164 15.114 17.051 15.6478 16.9894 16.2379C16.9279 16.8281 16.686 17.3226 16.3526 17.8055C16.0382 18.2607 15.5969 18.7676 15.0725 19.3698L13.5208 21.1523C13.2427 21.4716 13.1037 21.6313 13.091 21.8309C13.0783 22.0305 13.1922 22.201 13.4201 22.542C15.3626 25.4482 17.9804 28.067 20.889 30.0111C21.2301 30.2391 21.4005 30.353 21.6001 30.3402C21.7997 30.3276 21.9595 30.1885 22.2788 29.9104L24.0613 28.3587C24.6636 27.8343 25.1705 27.393 25.6257 27.0786C26.1085 26.7451 26.6031 26.5032 27.1932 26.4418C27.7834 26.3802 28.3172 26.5148 28.8585 26.7415C29.3686 26.9551 29.9557 27.2824 30.653 27.6711L32.547 28.7268C33.1415 29.0582 33.5915 29.5915 33.7299 30.2613C33.8697 30.938 33.6635 31.6181 33.2078 32.1772C31.5545 34.2056 28.9057 35.4972 26.127 34.9367C24.4191 34.5921 22.7338 34.018 20.6955 32.8491C16.6 30.5004 12.9281 26.8263 10.582 22.7357C9.41309 20.6974 8.83907 19.0121 8.49452 17.3041C7.93398 14.5254 9.22551 11.8766 11.2539 10.2233C11.813 9.76771 12.4932 9.5614 13.1699 9.70127Z" fill="#DC2CA1"/>
<g filter="url(#filter0_f_1_562)">
<circle cx="23.9998" cy="23.9998" r="6" fill="#E542CE"/>
</g>
<defs>
<filter id="filter0_f_1_562" x="0.399847" y="0.399847" width="47.2" height="47.2" filterUnits="userSpaceOnUse" color-interpolation-filters="sRGB">
<feFlood flood-opacity="0" result="BackgroundImageFix"/>
<feBlend mode="normal" in="SourceGraphic" in2="BackgroundImageFix" result="shape"/>
<feGaussianBlur stdDeviation="8.8" result="effect1_foregroundBlur_1_562"/>
</filter>
</defs>
</svg>
