<svg width="49" height="49" viewBox="0 0 49 49" fill="none" xmlns="http://www.w3.org/2000/svg">
<path d="M36.0002 25.0374C36.2181 25.6527 35.896 26.3281 35.2807 26.546C34.6501 26.7694 33.9215 27.2503 33.1496 27.9271C32.3901 28.5932 31.6513 29.3933 30.9968 30.1777C30.3447 30.9595 29.7907 31.7084 29.3995 32.2627C29.2043 32.5393 29.0506 32.7658 28.9466 32.9219L28.7928 33.1566C28.5643 33.516 28.1601 33.725 27.7348 33.7032C27.3095 33.6814 26.9287 33.4324 26.7382 33.0515C26.2173 32.0098 25.7502 31.5951 25.5147 31.438C25.415 31.3716 25.3478 31.345 25.3209 31.3359C24.7201 31.2801 24.2498 30.7747 24.2498 30.1593C24.2498 29.5066 24.7789 28.9775 25.4317 28.9775C25.529 28.9784 25.7708 28.9962 25.9595 29.0599C26.205 29.1301 26.5016 29.2552 26.8259 29.4714C27.1499 29.6875 27.4899 29.9862 27.8312 30.395C28.2036 29.8858 28.6628 29.2859 29.1818 28.6636C29.883 27.8231 30.7084 26.9242 31.5912 26.15C32.4618 25.3865 33.4538 24.6855 34.4916 24.3179C35.1069 24.1001 35.7823 24.4222 36.0002 25.0374Z" fill="#94E52F"/>
<path opacity="0.4" d="M21.2368 33.408C19.0634 33.408 17.3566 33.4081 16.011 33.2561C14.6375 33.1009 13.5237 32.7774 12.5979 32.0462C12.3208 31.8274 12.0638 31.5856 11.8302 31.3236C11.0429 30.4405 10.6913 29.3701 10.5238 28.057C10.3612 26.7812 10.3612 25.1669 10.3612 23.1294V23.0049C10.3612 22.3244 10.3612 21.691 10.3672 21.1019C10.3706 20.7761 10.3722 20.6132 10.4759 20.5106C10.5795 20.4081 10.7436 20.4081 11.0719 20.4081H35.0595C35.3878 20.4081 35.552 20.4081 35.6556 20.5106C35.7591 20.6132 35.7609 20.7761 35.7642 21.1019C35.766 21.2788 35.7673 21.4598 35.7682 21.6447C35.7701 22.049 35.7711 22.2512 35.67 22.3551C35.569 22.459 35.3182 22.4648 34.8168 22.4762C34.5111 22.4832 34.2014 22.5382 33.8975 22.6458C32.5546 23.1214 31.365 23.9873 30.4202 24.816C29.4449 25.6713 28.5545 26.6443 27.8184 27.5268C27.754 27.6039 27.7218 27.6425 27.6909 27.6663C27.6 27.7364 27.5034 27.7569 27.3919 27.7302C27.3539 27.721 27.3036 27.6964 27.203 27.6473C26.9521 27.5246 26.7093 27.4322 26.4792 27.3643C26.0518 27.2282 25.6225 27.2053 25.4466 27.2036L25.4293 27.2035C23.7976 27.2035 22.4748 28.5263 22.4748 30.1581C22.4748 31.4825 23.3453 32.6022 24.5462 32.978L24.5516 32.9796C24.5919 32.9923 24.6154 32.9996 24.6438 33.0331C24.7675 33.1784 24.6645 33.408 24.4736 33.408H21.2368Z" fill="#94E52F"/>
<path d="M24.8971 12.7262C27.0705 12.7262 28.7774 12.7262 30.123 12.8782C31.4965 13.0334 32.6103 13.3569 33.536 14.088C33.8132 14.3069 34.0702 14.5486 34.3038 14.8107C35.0911 15.6938 35.4426 16.7641 35.6101 18.0773C35.6293 18.2284 35.639 18.304 35.6216 18.3703C35.594 18.4764 35.5126 18.5688 35.4109 18.6097C35.3472 18.6353 35.2676 18.6353 35.1083 18.6353H11.0281C10.8688 18.6353 10.7892 18.6353 10.7255 18.6097C10.6238 18.5688 10.5424 18.4764 10.5147 18.3703C10.4974 18.304 10.5071 18.2284 10.5263 18.0773C10.6938 16.7641 11.0453 15.6938 11.8327 14.8107C12.0663 14.5486 12.3233 14.3069 12.6004 14.088C13.5262 13.3569 14.64 13.0334 16.0135 12.8782C17.3591 12.7262 19.0659 12.7262 21.2393 12.7262H24.8971Z" fill="#94E52F"/>
<g filter="url(#filter0_f_1_570)">
<circle cx="24.4998" cy="24.4998" r="6.5" fill="#95E430"/>
</g>
<defs>
<filter id="filter0_f_1_570" x="0.399847" y="0.399847" width="48.2" height="48.2" filterUnits="userSpaceOnUse" color-interpolation-filters="sRGB">
<feFlood flood-opacity="0" result="BackgroundImageFix"/>
<feBlend mode="normal" in="SourceGraphic" in2="BackgroundImageFix" result="shape"/>
<feGaussianBlur stdDeviation="8.8" result="effect1_foregroundBlur_1_570"/>
</filter>
</defs>
</svg>
