<svg width="55" height="55" viewBox="0 0 55 55" fill="none" xmlns="http://www.w3.org/2000/svg">
<path opacity="0.4" fill-rule="evenodd" clip-rule="evenodd" d="M12.3477 16.7827C12.3477 14.3242 14.3408 12.3312 16.7993 12.3312C19.2578 12.3312 21.2508 14.3242 21.2508 16.7827C21.2508 19.2412 19.2578 21.2342 16.7993 21.2342C14.3408 21.2342 12.3477 19.2412 12.3477 16.7827Z" fill="#3569CF"/>
<path opacity="0.4" d="M49.7189 28.9188C45.3851 26.1239 41.2564 24.9529 37.3048 25.1179C33.3714 25.2821 29.8347 26.7609 26.6532 28.8881C21.2703 32.4869 16.5359 38.2296 12.2968 43.3713C11.6258 44.1852 10.967 44.9843 10.3202 45.7573L8.45322 47.3885L11.1753 49.2419C13.0988 50.0387 15.3484 50.3877 17.9338 50.5575C20.5091 50.7267 23.611 50.7267 27.2998 50.7267H27.5393C32.3825 50.7267 36.2435 50.7269 39.2708 50.3198C42.3966 49.8996 44.9647 49.0091 46.9955 46.9783C48.7749 45.1988 49.6846 43.0156 50.1643 40.3845C50.6315 37.8216 50.7189 34.6608 50.7383 30.8007L50.7445 29.5803L49.7189 28.9188Z" fill="#3569CF"/>
<path fill-rule="evenodd" clip-rule="evenodd" d="M27.2047 3.98352H27.5363C32.3793 3.98348 36.2406 3.98343 39.2678 4.39043C42.3937 4.8107 44.9617 5.70125 46.9925 7.732C49.0233 9.76275 49.9138 12.3308 50.334 15.4566C50.7409 18.484 50.7409 22.3451 50.7409 27.1883V27.5195C50.7409 32.3628 50.7409 36.2238 50.334 39.2512C49.9138 42.3771 49.0233 44.9452 46.9925 46.9759C44.9617 49.0067 42.3937 49.8972 39.2678 50.3175C36.2403 50.7243 32.3793 50.7243 27.5361 50.7243H27.2049C22.3616 50.7243 18.5005 50.7243 15.4732 50.3175C12.3474 49.8972 9.77933 49.0067 7.74857 46.9759C5.71782 44.9452 4.82727 42.3771 4.407 39.2512C4 36.224 4.00005 32.3628 4.00009 27.5197V27.1881C4.00005 22.345 4 18.484 4.407 15.4566C4.82727 12.3308 5.71782 9.76275 7.74857 7.732C9.77933 5.70125 12.3474 4.8107 15.4732 4.39043C18.5005 3.98343 22.3616 3.98348 27.2047 3.98352ZM16.0664 8.80225C13.4342 9.15615 11.9621 9.81388 10.8963 10.8797C9.83045 11.9455 9.17272 13.4176 8.81882 16.0498C8.45632 18.746 8.4516 22.3072 8.4516 27.3539C8.4516 32.4006 8.45632 35.9618 8.81882 38.6581C9.17272 41.2902 9.83045 42.7624 10.8963 43.8283C11.9621 44.894 13.4342 45.5517 16.0664 45.9056C18.7626 46.2681 22.3237 46.2728 27.3705 46.2728C32.4172 46.2728 35.9784 46.2681 38.6746 45.9056C41.3068 45.5517 42.7789 44.894 43.8448 43.8283C44.9105 42.7624 45.5682 41.2902 45.9221 38.6581C46.2847 35.9618 46.2894 32.4006 46.2894 27.3539C46.2894 22.3072 46.2847 18.746 45.9221 16.0498C45.5682 13.4176 44.9105 11.9455 43.8448 10.8797C42.7789 9.81388 41.3068 9.15615 38.6746 8.80225C35.9784 8.43975 32.4172 8.43503 27.3705 8.43503C22.3237 8.43503 18.7626 8.43975 16.0664 8.80225Z" fill="#3569CF"/>
</svg>
