<svg width="390" height="161" viewBox="0 0 390 161" fill="none" xmlns="http://www.w3.org/2000/svg">
<g opacity="0.3">
<path d="M337.679 22.4541L337.099 21.9604L336.508 21.4767L335.908 21.0027L335.298 20.5395L334.679 20.0863L334.051 19.6442L333.415 19.2131L332.771 18.7931L332.118 18.3845L331.458 17.9879L330.792 17.6034L330.118 17.2307L329.438 16.8707L328.753 16.5231L328.062 16.1886L327.366 15.8668L326.665 15.5581L325.959 15.2631L325.25 14.9812L324.537 14.7133L323.821 14.4593L323.102 14.2189L322.381 13.9927L321.658 13.7808L320.934 13.5834L320.208 13.4007L319.482 13.2324L318.755 13.0789L318.029 12.9401L317.302 12.8164L316.577 12.7075L315.854 12.6137L315.132 12.5349L314.412 12.4715L313.695 12.4233L312.98 12.3904L312.27 12.373L311.563 12.3706L310.86 12.3837L310.162 12.4122L309.469 12.4561L308.781 12.5151L308.1 12.5899L307.424 12.6797L306.755 12.7849L306.093 12.9053L305.439 13.0407L304.792 13.1912L304.154 13.3571L303.524 13.5378L302.904 13.7336L302.292 13.9441L301.69 14.1693L301.099 14.409L300.517 14.6631L299.946 14.9316L299.387 15.2145L298.839 15.5111L298.303 15.8222L297.779 16.1467L297.268 16.4845L296.769 16.8362L296.283 17.2009L295.811 17.5786L295.353 17.9692L294.908 18.3724L294.478 18.7877L294.062 19.2154L293.662 19.6552L293.276 20.1064L292.906 20.569L292.551 21.0429L292.212 21.5276L291.89 22.0231L291.583 22.5289L291.294 23.0448L291.02 23.5704L290.764 24.1053L290.525 24.6497L290.303 25.2024L290.099 25.7639L289.912 26.3338L289.742 26.9113L289.591 27.4966L289.458 28.0885L289.343 28.6879L289.245 29.2932L289.167 29.9046L289.106 30.5221L289.064 31.1449L289.041 31.7724L289.036 32.4046L289.049 33.0411L289.081 33.6813L289.132 34.3249L289.201 34.9719L289.289 35.6212L289.395 36.2728L289.52 36.9261L289.663 37.5811L289.825 38.2367L290.004 38.893L290.202 39.5497L290.418 40.2064L290.652 40.862L290.904 41.5167L291.174 42.17L291.461 42.8213L291.766 43.4705L292.088 44.1168L292.427 44.7601L292.782 45.4L293.155 46.0355L293.543 46.667L293.948 47.2938L294.369 47.9153L294.806 48.5311L295.258 49.1411L295.725 49.7448L296.207 50.3418L296.704 50.9314L297.214 51.5137L297.739 52.0882L298.277 52.6544L298.829 53.2118L299.394 53.7602L299.971 54.2995L300.56 54.8288L301.161 55.3484L301.774 55.8572L302.397 56.3557L303.032 56.843L303.676 57.3187L304.331 57.7829L304.994 58.2355L305.667 58.6756L306.348 59.103L307.038 59.5179L307.735 59.9195L308.439 60.3077L309.151 60.6824L309.868 61.0434L310.592 61.3904L311.32 61.7229L312.054 62.041L312.792 62.3443L313.534 62.633L314.28 62.9065L315.028 63.1646L315.78 63.4076L316.533 63.6349L317.288 63.8467L318.044 64.0428L318.8 64.2225L319.557 64.3864L320.313 64.5342L321.068 64.6659L321.822 64.7813L322.574 64.8805L323.324 64.9633L324.071 65.0293L324.816 65.0792L325.556 65.1124L326.292 65.1295L327.023 65.1299L327.75 65.1138L328.47 65.0813L329.185 65.0327L329.893 64.9676L330.595 64.8862L331.289 64.7883L331.975 64.6747L332.653 64.5449L333.323 64.3991L333.983 64.2376L334.634 64.0606L335.276 63.8678L335.907 63.6597L336.528 63.4361L337.137 63.1974L337.736 62.944L338.322 62.6755L338.897 62.3929L339.459 62.0956L340.009 61.7842L340.546 61.4591L341.069 61.1199L341.579 60.7672L342.074 60.4012L342.556 60.0224L343.023 59.6309L343.476 59.2267L343.913 58.8103L344.335 58.3819L344.742 57.9418L345.133 57.4906L345.509 57.0281L345.868 56.5544L346.21 56.0707L346.537 55.5766L346.847 55.0728L347.14 54.5593L347.416 54.0364L347.674 53.5048L347.916 52.9648L348.141 52.4164L348.347 51.8599L348.537 51.2961L348.709 50.725L348.863 50.1471L348.999 49.5628L349.118 48.9722L349.218 48.3759L349.301 47.7742L349.366 47.1671L349.413 46.5557L349.442 45.94L349.454 45.3202L349.447 44.697L349.422 44.0706L349.38 43.441L349.32 42.8092L349.242 42.1753L349.147 41.5398L349.034 40.9026L348.903 40.2647L348.756 39.6261L348.59 38.9872L348.408 38.3487L348.209 37.7104L347.993 37.0729L347.76 36.437L347.511 35.8025L347.245 35.17L346.963 34.5398L346.665 33.9123L346.351 33.2878L346.022 32.667L345.677 32.0496L345.316 31.4365L344.941 30.8274L344.551 30.2237L344.146 29.6247L343.727 29.0314L343.294 28.4438L342.847 27.8623L342.387 27.2874L341.913 26.7189L341.426 26.1578L340.926 25.604L340.415 25.058L339.89 24.52L339.354 23.9904L338.807 23.4691L338.248 22.9569L337.679 22.4541Z" fill="#0E0C15"/>
<path d="M330.529 26.8487L330.857 27.1075L331.194 27.3576L331.522 27.6106L331.827 27.8785L332.097 28.1697L332.345 28.4778L332.588 28.7919L332.844 29.1019L333.124 29.4003L333.414 29.6926L333.696 29.9862L333.949 30.2892L334.161 30.6077L334.345 30.9372L334.523 31.272L334.716 31.6052L334.937 31.933L335.171 32.2565L335.395 32.58L335.588 32.9071L335.733 33.2407L335.847 33.5799L335.953 33.9225L336.075 34.2667L336.229 34.6113L336.397 34.9545L336.555 35.2961L336.679 35.635L336.752 35.9712L336.791 36.3071L336.821 36.6446L336.868 36.9872L336.948 37.3355L337.043 37.6858L337.129 38.0327L337.179 38.3709L337.176 38.6971L337.139 39.0165L337.092 39.3366L337.061 39.6638L337.063 40.003L337.082 40.3472L337.091 40.6865L337.066 41.0113L336.988 41.315L336.874 41.6059L336.751 41.8955L336.643 42.1952L336.568 42.5123L336.508 42.8375L336.441 43.1562L336.34 43.4549L336.189 43.7244L336.003 43.9755L335.808 44.2232L335.627 44.4836L335.476 44.7665L335.341 45.0598L335.197 45.3461L335.024 45.6072L334.806 45.8318L334.555 46.0326L334.295 46.2287L334.047 46.4395L333.826 46.6772L333.619 46.9272L333.405 47.1696L333.166 47.3828L332.888 47.5534L332.582 47.6958L332.266 47.8323L331.961 47.9845L331.678 48.1675L331.406 48.3649L331.131 48.5536L330.834 48.7102L330.506 48.8198L330.156 48.8979L329.798 48.9686L329.447 49.0564L329.112 49.1768L328.786 49.3132L328.459 49.4409L328.116 49.5348L327.752 49.5783L327.371 49.5884L326.984 49.5904L326.6 49.6095L326.226 49.6628L325.859 49.7329L325.492 49.7942L325.117 49.8214L324.73 49.7969L324.334 49.7382L323.933 49.6705L323.531 49.6202L323.134 49.6035L322.74 49.6041L322.347 49.5968L321.954 49.5555L321.559 49.464L321.163 49.3383L320.764 49.2036L320.361 49.0849L319.956 48.9991L319.549 48.9304L319.146 48.8543L318.751 48.7464L318.365 48.5908L317.985 48.4028L317.604 48.2057L317.216 48.0237L316.817 47.8722L316.415 47.7364L316.018 47.5946L315.636 47.4243L315.274 47.2108L314.925 46.9675L314.577 46.7161L314.219 46.4774L313.844 46.2659L313.462 46.0691L313.087 45.8673L312.733 45.6414L312.409 45.3783L312.105 45.0897L311.804 44.7933L311.491 44.5078L311.154 44.245L310.807 43.9946L310.469 43.7408L310.157 43.4683L309.885 43.1663L309.638 42.8435L309.396 42.5143L309.14 42.1929L308.854 41.8892L308.556 41.5959L308.267 41.3009L308.011 40.9925L307.8 40.6633L307.62 40.3191L307.448 39.9701L307.257 39.6259L307.035 39.2934L306.797 38.9686L306.569 38.6441L306.377 38.3126L306.237 37.9693L306.131 37.6174L306.033 37.2621L305.917 36.9084L305.766 36.5608L305.598 36.2176L305.44 35.8767L305.319 35.5354L305.254 35.1915L305.226 34.8456L305.207 34.4977L305.169 34.1487L305.095 33.7994L305.002 33.4518L304.919 33.1079L304.875 32.77L304.888 32.4392L304.938 32.1124L304.999 31.7855L305.04 31.4547L305.045 31.1175L305.031 30.7793L305.026 30.4461L305.059 30.1246L305.148 29.8196L305.275 29.5243L305.412 29.231L305.531 28.931L305.614 28.6192L305.678 28.3032L305.751 27.9934L305.86 27.7015L306.021 27.4333L306.219 27.1809L306.427 26.9319L306.618 26.6741L306.775 26.3992L306.916 26.1176L307.063 25.8438L307.242 25.5917L307.47 25.3708L307.73 25.1704L308 24.9749L308.256 24.7685L308.482 24.5412L308.691 24.3049L308.907 24.0766L309.149 23.8741L309.434 23.7086L309.747 23.5674L310.069 23.4324L310.379 23.2852L310.664 23.1136L310.934 22.9312L311.209 22.7573L311.505 22.6118L311.836 22.5072L312.189 22.4301L312.55 22.36L312.903 22.2769L313.235 22.1676L313.557 22.0456L313.88 21.9327L314.219 21.8492L314.582 21.8093L314.963 21.7986L315.349 21.7959L315.73 21.7795L316.098 21.7359L316.457 21.6793L316.817 21.6307L317.185 21.6122L317.568 21.638L317.961 21.6937L318.359 21.7577L318.754 21.8086L319.143 21.8321L319.527 21.8425L319.909 21.8603L320.292 21.9075L320.68 21.9977L321.071 22.117L321.465 22.2451L321.86 22.3611L322.256 22.4509L322.65 22.5273L323.039 22.6111L323.424 22.7217L323.802 22.8726L324.177 23.0512L324.553 23.2383L324.934 23.4146L325.321 23.5671L325.71 23.7072L326.093 23.8534L326.464 24.0233L326.819 24.2295L327.164 24.4604L327.508 24.6994L327.859 24.9294L328.224 25.1389L328.593 25.3376L328.956 25.5408L329.3 25.764L329.619 26.0174L329.921 26.292L330.22 26.5735L330.529 26.8487Z" fill="#0E0C15"/>
<path d="M342.937 19.9513L342.107 19.2467L341.263 18.5558L340.405 17.8797L339.533 17.218L338.649 16.5711L337.751 15.9399L336.842 15.3242L335.922 14.7248L334.99 14.1416L334.048 13.5751L333.095 13.0257L332.134 12.4934L331.163 11.9789L330.184 11.4821L329.197 11.0038L328.203 10.5435L327.201 10.1021L326.194 9.67971L325.18 9.27613L324.162 8.89232L323.139 8.52796L322.112 8.18371L321.081 7.85923L320.048 7.55488L319.012 7.27096L317.974 7.00783L316.935 6.76547L315.896 6.54391L314.856 6.34313L313.817 6.16379L312.779 6.00557L311.742 5.86882L310.708 5.75384L309.676 5.66032L308.648 5.58825L307.624 5.53831L306.604 5.50981L305.59 5.50311L304.581 5.51853L303.578 5.55574L302.582 5.61506L301.594 5.69618L300.613 5.79909L299.641 5.92413L298.678 6.07094L297.725 6.23921L296.782 6.42961L295.85 6.64145L294.928 6.87508L294.019 7.13018L293.123 7.40671L292.239 7.70471L291.368 8.02349L290.512 8.36337L289.67 8.72438L288.843 9.10584L288.032 9.50775L287.237 9.93011L286.458 10.3729L285.696 10.8352L284.952 11.3175L284.226 11.819L283.518 12.3399L282.829 12.8795L282.16 13.438L281.51 14.0145L280.881 14.6095L280.272 15.2223L279.684 15.8521L279.117 16.4994L278.573 17.1634L278.05 17.8435L277.551 18.5401L277.074 19.252L276.621 19.9794L276.19 20.7216L275.785 21.4781L275.403 22.2487L275.045 23.0328L274.713 23.8302L274.405 24.6401L274.123 25.4623L273.867 26.2963L273.636 27.1416L273.431 27.9974L273.252 28.8636L273.1 29.7398L272.974 30.6247L272.874 31.5187L272.801 32.4207L272.755 33.3301L272.737 34.2469L272.744 35.17L272.779 36.0992L272.841 37.0334L272.93 37.9727L273.047 38.9159L273.19 39.8629L273.36 40.8128L273.557 41.7651L273.782 42.7194L274.033 43.6748L274.31 44.6307L274.614 45.5864L274.945 46.5417L275.302 47.4957L275.685 48.4477L276.094 49.3973L276.528 50.3439L276.988 51.2868L277.473 52.2251L277.983 53.1586L278.517 54.0868L279.076 55.0082L279.658 55.9233L280.265 56.8307L280.894 57.7301L281.546 58.621L282.221 59.5029L282.918 60.3748L283.636 61.2362L284.375 62.087L285.135 62.926L285.915 63.7529L286.715 64.5675L287.534 65.3686L288.371 66.1563L289.227 66.9296L290.1 67.6882L290.991 68.4313L291.897 69.1587L292.819 69.87L293.757 70.5645L294.709 71.2416L295.676 71.9013L296.655 72.5432L297.647 73.166L298.651 73.7701L299.667 74.355L300.693 74.9201L301.729 75.4648L302.775 75.9894L303.829 76.4932L304.891 76.9759L305.96 77.4372L307.036 77.8766L308.117 78.2939L309.204 78.6891L310.295 79.0619L311.39 79.4118L312.487 79.739L313.587 80.0427L314.688 80.3232L315.79 80.58L316.892 80.8133L317.993 81.0228L319.093 81.2085L320.19 81.3701L321.285 81.5078L322.376 81.6211L323.463 81.7106L324.545 81.7753L325.621 81.8162L326.691 81.833L327.753 81.8253L328.809 81.7934L329.855 81.7378L330.893 81.658L331.92 81.5544L332.938 81.4267L333.944 81.2756L334.938 81.1006L335.921 80.9025L336.89 80.6809L337.846 80.4365L338.788 80.169L339.715 79.8791L340.627 79.5667L341.524 79.2322L342.404 78.8755L343.267 78.4974L344.113 78.0978L344.941 77.6775L345.751 77.2364L346.542 76.7745L347.314 76.2928L348.066 75.791L348.799 75.2701L349.51 74.7301L350.201 74.1716L350.871 73.5948L351.519 72.9998L352.145 72.3877L352.748 71.7585L353.329 71.1126L353.887 70.4506L354.422 69.7725L354.933 69.0796L355.421 68.3717L355.884 67.6493L356.324 66.9132L356.739 66.1637L357.129 65.4011L357.495 64.6258L357.835 63.8391L358.151 63.0406L358.441 62.2311L358.706 61.4116L358.945 60.5816L359.159 59.7426L359.348 58.8942L359.51 58.0378L359.647 57.1733L359.759 56.3018L359.844 55.4232L359.904 54.5386L359.939 53.648L359.947 52.7523L359.93 51.8516L359.888 50.9469L359.82 50.0389L359.726 49.1275L359.608 48.2137L359.464 47.2976L359.295 46.3802L359.102 45.4617L358.883 44.5429L358.64 43.6238L358.373 42.7057L358.082 41.7886L357.767 40.8732L357.428 39.9597L357.065 39.049L356.679 38.1413L356.27 37.2376L355.839 36.3379L355.385 35.4426L354.909 34.5529L354.411 33.6687L353.891 32.7905L353.351 31.9189L352.789 31.0544L352.207 30.1977L351.604 29.349L350.982 28.5086L350.34 27.6773L349.679 26.8551L348.999 26.0429L348.301 25.2411L347.586 24.45L346.852 23.67L346.101 22.9014L345.334 22.1452L344.55 21.401L343.751 20.6696L342.937 19.9513Z" fill="#0E0C15"/>
<path d="M346.158 19.8624L345.119 18.9805L344.062 18.1164L342.988 17.2703L341.897 16.4424L340.79 15.6335L339.668 14.8435L338.53 14.0735L337.378 13.3233L336.213 12.5939L335.034 11.885L333.842 11.1978L332.639 10.5318L331.425 9.88787L330.2 9.2664L328.965 8.6674L327.721 8.0912L326.468 7.53845L325.207 7.0095L323.939 6.50435L322.664 6.02334L321.383 5.56646L320.098 5.13473L318.807 4.72746L317.513 4.34566L316.215 3.98935L314.915 3.65883L313.613 3.35381L312.31 3.07525L311.007 2.82251L309.704 2.59625L308.402 2.39647L307.101 2.22351L305.803 2.07736L304.508 1.95836L303.217 1.86618L301.931 1.80115L300.65 1.76361L299.375 1.75322L298.106 1.76998L296.845 1.81423L295.592 1.88596L294.347 1.98518L293.113 2.11188L291.888 2.26575L290.675 2.44742L289.473 2.65625L288.283 2.89223L287.106 3.15537L285.943 3.44599L284.794 3.76342L283.661 4.10801L282.543 4.4794L281.441 4.87729L280.357 5.30165L279.29 5.7525L278.242 6.22949L277.213 6.73229L276.203 7.2609L275.214 7.81499L274.245 8.39422L273.299 8.99859L272.374 9.62741L271.472 10.2807L270.593 10.9582L269.739 11.6594L268.909 12.3838L268.104 13.1316L267.325 13.9019L266.571 14.6946L265.845 15.5088L265.145 16.3448L264.473 17.2016L263.83 18.0792L263.215 18.9768L262.629 19.8939L262.073 20.8305L261.547 21.7855L261.051 22.7582L260.585 23.7491L260.151 24.7564L259.748 25.7804L259.378 26.8202L259.039 27.8754L258.733 28.9454L258.459 30.0291L258.219 31.1262L258.012 32.236L257.838 33.3579L257.698 34.4913L257.592 35.6353L257.52 36.7894L257.482 37.9529L257.478 39.1251L257.509 40.305L257.574 41.4923L257.674 42.6856L257.808 43.8849L257.976 45.0893L258.18 46.2974L258.418 47.5091L258.69 48.7235L258.996 49.9396L259.337 51.1571L259.711 52.3745L260.119 53.5913L260.562 54.8071L261.037 56.0205L261.546 57.2309L262.088 58.4377L262.662 59.64L263.269 60.837L263.908 62.0276L264.578 63.2116L265.28 64.3875L266.013 65.555L266.775 66.7134L267.568 67.8615L268.39 68.9985L269.242 70.1241L270.121 71.2369L271.029 72.3367L271.964 73.4228L272.925 74.4938L273.913 75.5493L274.926 76.5887L275.964 77.6115L277.026 78.6164L278.111 79.6032L279.219 80.5706L280.349 81.5189L281.501 82.4464L282.672 83.3531L283.864 84.2384L285.074 85.1015L286.302 85.9419L287.548 86.7588L288.81 87.5518L290.087 88.3204L291.379 89.0639L292.685 89.7823L294.003 90.4745L295.334 91.1401L296.676 91.7794L298.028 92.3911L299.389 92.975L300.759 93.5311L302.136 94.0584L303.519 94.5572L304.908 95.0268L306.302 95.4673L307.699 95.8779L309.099 96.2587L310.5 96.6096L311.903 96.9297L313.305 97.2197L314.706 97.4788L316.105 97.7071L317.501 97.9048L318.894 98.0714L320.282 98.2069L321.663 98.3114L323.038 98.3845L324.406 98.4268L325.765 98.4378L327.115 98.4177L328.455 98.3668L329.783 98.2853L331.1 98.1727L332.404 98.0295L333.695 97.8559L334.97 97.6518L336.231 97.4178L337.476 97.154L338.704 96.8607L339.915 96.5379L341.107 96.1859L342.28 95.8051L343.434 95.3962L344.567 94.9588L345.679 94.4935L346.77 94.0011L347.838 93.4815L348.883 92.9355L349.905 92.3633L350.902 91.765L351.874 91.1415L352.821 90.4932L353.743 89.8205L354.638 89.1239L355.507 88.4039L356.348 87.6611L357.162 86.8962L357.947 86.1091L358.704 85.3006L359.432 84.4717L360.13 83.6226L360.799 82.7541L361.438 81.8665L362.047 80.9605L362.625 80.0366L363.173 79.0961L363.69 78.1387L364.175 77.1653L364.629 76.1765L365.051 75.1735L365.441 74.1562L365.8 73.1258L366.127 72.0823L366.421 71.0271L366.683 69.9605L366.913 68.8832L367.111 67.7954L367.276 66.6987L367.409 65.5932L367.51 64.4793L367.578 63.3584L367.614 62.2304L367.618 61.0968L367.59 59.9575L367.529 58.8134L367.437 57.6653L367.314 56.5139L367.158 55.3598L366.971 54.2034L366.753 53.0459L366.504 51.8875L366.224 50.729L365.914 49.5709L365.573 48.4141L365.202 47.2591L364.801 46.1066L364.371 44.9572L363.912 43.8115L363.423 42.6705L362.906 41.5342L362.361 40.4035L361.787 39.2789L361.187 38.1614L360.559 37.0512L359.905 35.9487L359.224 34.8553L358.517 33.7709L357.785 32.6963L357.028 31.632L356.246 30.5785L355.439 29.5363L354.61 28.5063L353.757 27.4889L352.881 26.4843L351.983 25.4935L351.063 24.517L350.123 23.5547L349.161 22.6077L348.179 21.6765L347.178 20.7611L346.158 19.8624Z" fill="#0E0C15"/>
<path d="M347.704 21.1439L346.639 20.206L345.555 19.2859L345.353 19.1149L344.273 18.2317L343.175 17.3668L342.06 16.5208L340.929 15.6942L339.781 14.887L338.619 14.0996L337.441 13.333L336.25 12.5876L335.045 11.8632L333.828 11.1606L332.598 10.4801L331.357 9.82215L330.105 9.18693L328.843 8.57452L327.571 7.98592L326.29 7.42077L325.002 6.88009L323.706 6.36354L323.457 6.26834L322.126 5.76655L320.79 5.2899L319.448 4.83938L318.101 4.41435L316.75 4.01579L315.396 3.64406L314.039 3.29881L313.587 3.18952L312.201 2.86505L310.814 2.5684L309.426 2.29923L308.039 2.05822L306.652 1.84538L306.059 1.75788L304.648 1.56983L303.239 1.41095L301.834 1.28157L299.734 1.13106L298.312 1.05866L296.895 1.01676L295.485 1.00469L294.713 1L293.286 1.01843L291.867 1.06771L291.052 1.11195L289.619 1.19341L288.195 1.30604L286.782 1.44983L285.906 1.54738L284.482 1.72537L283.071 1.93487L282.163 2.08537L280.743 2.33007L279.338 2.60728L278.402 2.81142L276.992 3.12483L275.597 3.47076L274.638 3.72953L273.242 4.113L271.863 4.52865L270.886 4.84274L269.509 5.2966L268.151 5.78331L267.16 6.1527L265.806 6.67796L264.473 7.23574L263.473 7.66043L262.148 8.25743L261.156 8.73039L259.841 9.3666L258.549 10.0357L257.557 10.5626L256.278 11.2709L255.3 11.8447L254.035 12.5919L252.798 13.3719L251.827 13.9974L250.606 14.8163L249.656 15.486L248.454 16.3431L247.283 17.2324L246.346 17.9511L245.196 18.8779L244.285 19.6378L243.16 20.6022L242.276 21.4013L241.176 22.4029L240.109 23.435L239.249 24.2773L238.211 25.3449L237.383 26.2232L236.375 27.3256L235.581 28.2377L234.604 29.3741L233.663 30.5396L232.902 31.4875L231.995 32.6855L231.272 33.6626L230.4 34.8915L229.716 35.8961L228.882 37.1551L228.238 38.1845L227.442 39.472L226.685 40.7856L226.083 41.8392L225.366 43.1793L224.807 44.2526L224.131 45.6175L223.617 46.7083L222.982 48.0964L222.514 49.2022L221.923 50.6124L221.374 52.0443L220.953 53.1606L220.448 54.6117L220.075 55.7369L219.614 57.2054L219.289 58.3371L218.873 59.8207L218.502 61.323L218.225 62.4537L217.9 63.9681L217.672 65.0991L217.392 66.6239L217.214 67.7525L216.979 69.2861L216.79 70.834L216.662 71.9492L216.518 73.5025L216.439 74.609L216.341 76.1654L216.288 77.7331L216.258 78.8178L216.25 80.3856L216.268 81.4552L216.304 83.0206L216.386 84.5943L216.45 85.6335L216.575 87.2019L216.854 89.7802L217.067 91.3459L217.22 92.3254L217.475 93.8801L217.772 95.4381L217.967 96.374L218.305 97.9175L218.685 99.4622L218.918 100.35L219.336 101.878L219.797 103.404L220.065 104.24L220.561 105.746L221.1 107.249L221.398 108.029L221.97 109.508L222.582 110.983L223.233 112.452L223.55 113.152L224.232 114.593L224.952 116.026L226.038 118.066L226.823 119.46L227.644 120.843L228.501 122.214L228.832 122.742L229.712 124.079L230.625 125.403L231.573 126.712L231.899 127.148L232.864 128.421L233.862 129.678L234.891 130.918L235.951 132.141L237.041 133.344L237.317 133.644L238.417 134.808L239.546 135.952L240.703 137.075L241.886 138.177L243.096 139.256L244.33 140.312L245.589 141.344L245.75 141.472L247.01 142.462L248.291 143.426L249.594 144.365L250.917 145.278L252.261 146.164L253.622 147.022L255.002 147.853L256.398 148.655L257.809 149.427L259.236 150.171L260.677 150.884L262.131 151.566L263.596 152.217L265.073 152.837L265.265 152.917L266.778 153.515L268.301 154.081L269.831 154.613L271.368 155.112L272.911 155.577L274.459 156.007L276.011 156.404L276.408 156.5L277.99 156.867L279.572 157.2L281.156 157.496L282.738 157.757L284.32 157.981L284.86 158.056L286.464 158.247L288.064 158.403L289.66 158.521L290.283 158.555L291.896 158.638L293.503 158.683L295.102 158.691L295.8 158.68L297.412 158.65L299.014 158.583L300.604 158.478L301.371 158.416L302.97 158.272L304.555 158.09L306.124 157.871L306.952 157.754L308.526 157.493L310.082 157.195L310.944 157.024L312.501 156.685L314.037 156.309L314.928 156.081L316.461 155.664L317.973 155.209L318.887 154.925L320.391 154.428L321.872 153.895L322.804 153.555L324.274 152.98L325.206 152.588L326.663 151.972L328.093 151.319L329.033 150.872L330.447 150.179L331.832 149.451L332.776 148.947L334.141 148.179L335.075 147.627L336.418 146.82L337.73 145.978L338.659 145.373L339.945 144.493L340.859 143.84L342.118 142.923L343.343 141.973L344.244 141.271L345.439 140.285L346.318 139.539L347.482 138.519L348.337 137.73L349.469 136.675L350.563 135.592L351.394 134.759L352.453 133.644L353.256 132.772L354.278 131.627L355.05 130.718L356.034 129.543L356.978 128.342L357.718 127.397L358.622 126.169L359.327 125.191L360.191 123.938L360.859 122.93L361.681 121.653L362.31 120.616L363.09 119.317L363.828 117.996L364.416 116.935L365.111 115.595L365.657 114.51L366.308 113.152L366.812 112.047L367.417 110.673L367.878 109.549L368.439 108.161L368.957 106.756L369.371 105.621L369.844 104.204L370.211 103.056L370.64 101.63L370.96 100.471L371.344 99.0378L371.684 97.5907L371.955 96.4316L372.251 94.9795L372.475 93.8161L372.726 92.3609L372.902 91.1951L373.11 89.7393L373.275 88.2732L373.401 87.1187L373.524 85.6546L373.602 84.5035L373.682 83.043L373.721 81.5748L373.75 80.4432L373.748 78.9814L373.729 77.8595L373.686 76.4057L373.604 74.9466L373.538 73.8518L373.416 72.4038L373.304 71.3244L373.145 69.8888L372.947 68.4504L372.791 67.4059L372.557 65.9823L372.285 64.5581L372.087 63.5525L371.782 62.1453L371.439 60.7384L371.202 59.7758L370.827 58.3887L370.417 57.0033L370.144 56.0872L369.704 54.7239L369.229 53.364L368.922 52.4985L368.421 51.1621L367.885 49.8307L367.548 49.0192L366.988 47.7136L366.395 46.4136L365.416 44.388L364.771 43.123L364.095 41.8656L363.718 41.1942L363.024 39.9671L362.3 38.7486L361.547 37.5399L360.399 35.7774L359.604 34.6109L358.781 33.4558L357.933 32.3128L357.57 31.8378L356.712 30.7283L355.828 29.6315L354.92 28.5481L353.988 27.4788L353.032 26.4243L352.719 26.0824L351.759 25.063L350.777 24.0591L349.773 23.0709L348.749 22.0989L347.704 21.1439Z" fill="#0E0C15"/>
<path d="M283.071 1.93487L281.672 2.17624L280.286 2.44942L278.916 2.75413L277.561 3.09033L276.222 3.45804L274.9 3.85693L273.596 4.28733L272.31 4.74856L271.044 5.24031L269.797 5.76322L268.571 6.3163L267.368 6.89954L266.186 7.51297L265.028 8.15622L263.893 8.82896L262.783 9.53087L261.699 10.2616L260.64 11.0208L259.608 11.8082L258.603 12.6234L257.626 13.4661L256.678 14.336L255.76 15.2323L254.872 16.1548L254.014 17.103L253.187 18.0768L252.392 19.075L251.63 20.0974L250.901 21.1439L250.205 22.2132L249.544 23.3053L248.917 24.4195L248.325 25.5548L247.769 26.7109L247.249 27.8875L246.765 29.0831L246.319 30.2979L245.91 31.5308L245.538 32.7811L245.205 34.0481L244.91 35.3309L244.654 36.6292L244.436 37.9418L244.258 39.2682L244.12 40.6073L244.021 41.9588L243.963 43.3211L243.945 44.6941L243.966 46.0768L244.028 47.4679L244.131 48.867L244.274 50.2728L244.458 51.685L244.682 53.1023L244.947 54.5235L245.252 55.9484L245.597 57.3754L245.983 58.804L246.408 60.2333L246.874 61.6623L247.379 63.0896L247.925 64.5145L248.509 65.9364L249.132 67.354L249.794 68.7665L250.494 70.1727L251.231 71.5718L252.007 72.9629L252.819 74.3449L253.668 75.7172L254.553 77.0781L255.473 78.4277L256.428 79.7641L257.418 81.0872L258.441 82.3951L259.497 83.688L260.586 84.9641L261.707 86.2228L262.858 87.463L264.04 88.6845L265.251 89.8858L266.491 91.0664L267.758 92.2255L269.052 93.3619L270.373 94.4751L271.719 95.5638L273.089 96.628L274.483 97.6665L275.899 98.6788L277.336 99.6643L278.794 100.622L280.271 101.551L281.767 102.451L283.28 103.322L284.81 104.162L286.355 104.971L287.914 105.749L289.486 106.495L291.07 107.209L292.665 107.89L294.27 108.538L295.884 109.151L297.506 109.731L299.133 110.276L300.767 110.786L302.404 111.262L304.045 111.701L305.688 112.105L307.331 112.473L308.974 112.805L310.616 113.1L312.255 113.359L313.891 113.581L315.522 113.767L317.147 113.916L318.765 114.028L320.376 114.104L321.977 114.142L323.568 114.144L325.148 114.109L326.716 114.038L328.27 113.93L329.81 113.786L331.335 113.606L332.844 113.39L334.336 113.139L335.809 112.852L337.263 112.53L338.698 112.173L340.112 111.782L341.504 111.357L342.873 110.898L344.219 110.405L345.541 109.88L346.838 109.322L348.109 108.732L349.354 108.111L350.571 107.459L351.761 106.776L352.922 106.063L354.054 105.321L355.155 104.55L356.227 103.75L357.268 102.923L358.277 102.069L359.254 101.188L360.198 100.282L361.109 99.3502L361.987 98.3939L362.831 97.4138L363.64 96.4105L364.414 95.3848L365.154 94.3373L365.858 93.269L366.527 92.1803L367.159 91.0721L367.755 89.9448L368.315 88.7994L368.838 87.637L369.324 86.4577L369.773 85.2627L370.185 84.0527L370.559 82.8282L370.896 81.5903L371.195 80.3396L371.458 79.0769L371.682 77.8028L371.869 76.5184L372.018 75.2245L372.13 73.9216L372.204 72.6106L372.241 71.2923L372.241 69.9675L372.203 68.6368L372.129 67.301L372.017 65.9612L371.869 64.6181L371.685 63.2719L371.464 61.9241L371.207 60.5752L370.914 59.2257L370.586 57.8765L370.222 56.5287L369.823 55.1822L369.39 53.8387L368.922 52.4985" fill="#0E0C15"/>
<path d="M256.279 11.2709L255.025 12.0117L253.798 12.7847L252.598 13.5895L251.427 14.4255L250.284 15.2927L249.171 16.191L248.089 17.1192L247.038 18.0775L246.019 19.0653L245.032 20.082L244.079 21.1272L243.159 22.2005L242.275 23.3009L241.426 24.4282L240.613 25.582L239.836 26.7612L239.097 27.9659L238.396 29.1948L237.733 30.4474L237.108 31.7232L236.524 33.0214L235.979 34.3414L235.475 35.6822L235.012 37.0431L234.591 38.4238L234.211 39.823L233.873 41.2399L233.578 42.6739L233.326 44.1239L233.117 45.5894L232.952 47.0693L232.83 48.5627L232.753 50.0687L232.719 51.5865L232.73 53.115L232.786 54.6533L232.886 56.2002L233.031 57.7552L233.221 59.3172L233.456 60.8846L233.736 62.4574L234.06 64.0335L234.429 65.6126L234.842 67.1938L235.3 68.7753L235.802 70.3564L236.349 71.9362L236.939 73.5136L237.572 75.0874L238.249 76.6568L238.969 78.2202L239.731 79.7772L240.536 81.3262L241.381 82.8661L242.269 84.3963L243.196 85.9151L244.164 87.4221L245.172 88.9158L246.218 90.3954L247.302 91.8599L248.424 93.3079L249.583 94.7386L250.778 96.1511L252.009 97.5438L253.274 98.9165L254.572 100.268L255.904 101.597L257.267 102.903L258.662 104.185L260.086 105.441L261.54 106.671L263.022 107.875L264.531 109.051L266.066 110.198L267.626 111.316L269.211 112.404L270.818 113.461L272.446 114.486L274.095 115.479L275.764 116.438L277.452 117.364L279.155 118.255L280.876 119.112L282.61 119.933L284.358 120.717L286.118 121.465L287.89 122.175L289.671 122.848L291.461 123.483L293.258 124.079L295.06 124.636L296.868 125.155L298.679 125.633L300.492 126.072L302.306 126.47L304.12 126.829L305.933 127.146L307.742 127.423L309.547 127.66L311.347 127.856L313.141 128.01L314.927 128.124L316.704 128.197L318.47 128.229L320.226 128.22L321.969 128.17L323.698 128.08L325.413 127.95L327.111 127.779L328.793 127.568L330.457 127.318L332.101 127.027L333.726 126.698L335.329 126.33L336.909 125.924L338.467 125.479L340.001 124.997L341.509 124.478L342.992 123.921L344.447 123.328L345.875 122.7L347.274 122.036L348.644 121.338L349.984 120.605L351.293 119.839L352.57 119.04L353.815 118.209L355.026 117.346L356.204 116.452L357.347 115.527L358.456 114.573L359.529 113.59L360.567 112.579L361.567 111.54L362.53 110.475L363.456 109.383L364.344 108.266L365.194 107.125L366.005 105.96L366.777 104.773L367.51 103.563L368.202 102.333L368.855 101.082L369.468 99.8108L370.04 98.5213L370.572 97.214L371.063 95.8896L371.513 94.5495L371.922 93.1936L372.29 91.8233L372.616 90.4396L372.902 89.0428L373.146 87.6343L373.349 86.2147L373.511 84.7848L373.632 83.3457L373.712 81.8984L373.751 80.4432" fill="#0E0C15"/>
<path d="M236.375 27.3256L235.402 28.458L234.465 29.6188L233.565 30.8081L232.703 32.0252L231.879 33.2691L231.094 34.5399L230.349 35.8361L229.644 37.1575L228.979 38.5033L228.355 39.8726L227.774 41.265L227.235 42.6796L226.739 44.1152L226.286 45.5717L225.878 47.0476L225.513 48.5422L225.193 50.055L224.918 51.5848L224.688 53.1308L224.504 54.6918L224.366 56.2672L224.275 57.8561L224.229 59.4574L224.231 61.07L224.279 62.6927L224.374 64.3248L224.516 65.9656L224.706 67.6131L224.943 69.267L225.227 70.9262L225.558 72.5892L225.936 74.2551L226.361 75.9231L226.833 77.5917L227.351 79.26L227.916 80.9266L228.528 82.5906L229.185 84.2508L229.888 85.9064L230.636 87.5555L231.429 89.1977L232.266 90.8315L233.147 92.4559L234.072 94.0695L235.04 95.6714L236.051 97.2606L237.103 98.8357L238.196 100.396L239.329 101.94L240.503 103.466L241.715 104.974L242.966 106.463L244.254 107.931L245.579 109.377L246.939 110.801L248.334 112.201L249.763 113.576L251.225 114.926L252.719 116.249L254.243 117.544L255.798 118.811L257.381 120.049L258.992 121.255L260.63 122.431L262.293 123.575L263.98 124.686L265.69 125.763L267.423 126.806L269.175 127.813L270.948 128.785L272.738 129.72L274.545 130.618L276.368 131.478L278.205 132.299L280.055 133.082L281.917 133.825L283.79 134.529L285.671 135.191L287.56 135.813L289.456 136.394L291.356 136.933L293.261 137.43L295.167 137.885L297.075 138.297L298.982 138.667L300.888 138.993L302.791 139.277L304.69 139.518L306.583 139.715L308.47 139.869L310.348 139.98L312.216 140.047L314.075 140.071L315.921 140.052L317.754 139.99L319.573 139.885L321.377 139.738L323.163 139.548L324.932 139.316L326.681 139.041L328.411 138.726L330.119 138.368L331.805 137.97L333.467 137.531L335.105 137.052L336.718 136.534L338.304 135.976L339.863 135.38L341.393 134.745L342.894 134.072L344.365 133.363L345.805 132.617L347.214 131.835L348.589 131.018L349.932 130.166L351.241 129.281L352.514 128.362L353.752 127.411L354.954 126.427L356.119 125.413L357.247 124.369L358.337 123.295L359.389 122.192L360.402 121.062L361.375 119.904L362.308 118.719L363.201 117.51L364.053 116.276L364.865 115.018L365.635 113.737L366.363 112.435L367.05 111.111L367.694 109.767L368.295 108.403L368.854 107.021L369.371 105.621" fill="#0E0C15"/>
<path d="M222.982 48.0963L222.39 49.5079L221.841 50.9412L221.335 52.3963L220.873 53.8718L220.454 55.3675L220.081 56.8816L219.751 58.4141L219.468 59.9634L219.23 61.5292L219.038 63.11L218.893 64.7055L218.794 66.3142L218.742 67.9349L218.737 69.5673L218.778 71.2098L218.868 72.8616L219.004 74.5219L219.189 76.1892L219.421 77.8628L219.7 79.5412L220.027 81.2235L220.402 82.9089L220.823 84.5957L221.292 86.2831L221.809 87.9701L222.371 89.6555L222.981 91.3379L223.637 93.0162L224.339 94.6895L225.087 96.3565L225.88 98.0161L226.718 99.6673L227.6 101.308L228.526 102.939L229.496 104.557L230.508 106.162L231.563 107.753L232.659 109.329L233.796 110.887L234.973 112.429L236.189 113.951L237.445 115.454L238.738 116.935L240.068 118.395L241.434 119.831L242.835 121.243L244.271 122.631L245.74 123.992L247.241 125.326L248.773 126.632L250.336 127.908L251.928 129.155L253.548 130.371L255.195 131.555L256.867 132.707L258.564 133.825L260.285 134.91L262.027 135.958L263.791 136.972L265.574 137.949L267.376 138.889L269.195 139.791L271.03 140.655L272.879 141.48L274.742 142.265L276.617 143.01L278.502 143.715L280.397 144.379L282.299 145.001L284.209 145.581L286.123 146.12L288.041 146.616L289.962 147.069L291.884 147.479L293.806 147.846L295.726 148.169L297.644 148.449L299.558 148.685L301.466 148.877L303.367 149.026L305.261 149.13L307.145 149.191L309.018 149.208L310.88 149.181L312.728 149.111L314.563 148.998L316.381 148.841L318.183 148.642L319.967 148.399L321.732 148.115L323.477 147.788L325.2 147.419L326.901 147.009L328.579 146.559L330.232 146.067L331.859 145.535L333.46 144.964L335.034 144.354L336.579 143.705L338.094 143.018L339.58 142.294L341.034 141.533L342.457 140.736L343.847 139.903L345.203 139.035L346.525 138.133L347.812 137.198L349.063 136.23L350.278 135.229L351.456 134.198L352.597 133.136L353.7 132.044L354.763 130.924L355.788 129.775L356.773 128.599L357.717 127.397" fill="#0E0C15"/>
<path d="M338.659 145.373L337.34 146.219L335.988 147.032L334.605 147.81L333.191 148.553L331.748 149.261L330.276 149.932L328.775 150.566L327.247 151.163L325.693 151.721L324.113 152.242L322.509 152.723L320.881 153.165L319.231 153.568L317.56 153.93L315.868 154.252L314.157 154.533L312.427 154.773L310.681 154.971L308.919 155.127L307.142 155.242L305.351 155.315L303.548 155.345L301.734 155.334L299.909 155.28L298.076 155.183L296.235 155.043L294.388 154.862L292.536 154.637L290.681 154.371L288.823 154.062L286.963 153.711L285.104 153.318L283.246 152.884L281.391 152.407L279.54 151.89L277.694 151.332L275.854 150.733L274.023 150.094L272.201 149.415L270.389 148.697L268.589 147.94L266.801 147.144L265.028 146.311L263.271 145.44L261.53 144.533L259.807 143.59L258.104 142.611L256.421 141.598L254.759 140.55L253.12 139.47L251.505 138.356L249.915 137.211L248.351 136.036L246.814 134.83L245.306 133.595L243.826 132.332L242.377 131.041L240.959 129.724L239.574 128.382L238.222 127.015L236.903 125.624L235.62 124.211L234.372 122.776L233.161 121.321L231.988 119.846L230.852 118.352L229.756 116.842L228.699 115.315L227.682 113.773L226.705 112.217L225.77 110.647L224.878 109.066L224.027 107.474L223.22 105.873L222.456 104.263L221.736 102.645L221.06 101.021L220.428 99.3917L219.841 97.7583L219.299 96.1218L218.803 94.4837L218.352 92.8446L217.947 91.2058L217.588 89.5684L217.274 87.9332L217.007 86.3018L216.785 84.6748L216.609 83.0537L216.48 81.4391L216.396 79.8321L216.359 78.2342L216.366 76.646L216.42 75.0682L216.518 73.5025" fill="#0E0C15"/>
<path d="M219.797 103.404L220.3 104.928L220.845 106.449L221.431 107.966L222.058 109.478L222.726 110.983L223.435 112.481L224.184 113.971L224.972 115.452L225.8 116.922L226.667 118.381L227.571 119.828L228.514 121.261L229.494 122.679L230.51 124.083L231.562 125.47L232.649 126.84L233.771 128.191L234.927 129.523L236.116 130.835L237.337 132.125L238.59 133.394L239.874 134.64L241.187 135.862L242.529 137.059L243.899 138.23L245.297 139.376L246.72 140.494L248.169 141.583L249.642 142.645L251.138 143.677L252.656 144.678L254.196 145.649L255.755 146.588L257.333 147.494L258.93 148.368L260.542 149.208L262.171 150.014L263.814 150.786L265.47 151.522L267.139 152.223L268.819 152.887L270.508 153.515L272.206 154.107L273.911 154.66L275.623 155.176L277.34 155.655L279.061 156.095L280.784 156.496L282.509 156.859L284.235 157.182L285.959 157.467L287.682 157.712L289.402 157.918L291.116 158.085L292.826 158.212L294.529 158.3L296.224 158.348L297.91 158.357L299.586 158.326L301.251 158.256L302.903 158.147L304.542 158L306.167 157.813L307.776 157.588L309.369 157.325L310.944 157.024" fill="#0E0C15"/>
<path d="M283.071 1.93487L284.482 1.72537L285.906 1.54738L286.782 1.44983L288.195 1.30604L289.619 1.19341L291.052 1.11195L291.867 1.06771L293.286 1.01843L294.713 1L295.485 1.00469L296.895 1.01676L298.312 1.05866L299.734 1.13106L301.834 1.28157L303.239 1.41095L304.648 1.56983L306.059 1.75788L306.652 1.84538L308.039 2.05822L309.426 2.29923L310.814 2.5684L312.201 2.86505L313.587 3.18952L314.039 3.29881L315.396 3.64406L316.75 4.01579L318.101 4.41435L319.448 4.83938L320.79 5.2899L322.126 5.76655L323.457 6.26834L323.706 6.36354L325.002 6.88009L326.29 7.42077L327.571 7.98592L328.843 8.57452L330.105 9.18693L331.357 9.82215L332.598 10.4801L333.828 11.1606L335.045 11.8632L336.25 12.5876L337.441 13.333L338.619 14.0996L339.781 14.887L340.929 15.6942L342.06 16.5208L343.175 17.3668L344.273 18.2317L345.353 19.1149L345.555 19.2859L346.639 20.206L347.704 21.1439L348.749 22.0989L349.773 23.0709L350.777 24.0591L351.759 25.063L352.719 26.0824L353.032 26.4243L353.988 27.4788L354.92 28.5481L355.828 29.6315L356.712 30.7283L357.57 31.8378L357.933 32.3128L358.781 33.4558L359.604 34.6109L360.399 35.7774L361.547 37.5399L362.3 38.7486L363.024 39.9671L363.718 41.1942L364.095 41.8656L364.771 43.123L365.416 44.388L366.395 46.4136L366.988 47.7136L367.548 49.0192L367.885 49.8307L368.421 51.1621L368.922 52.4985M283.071 1.93487L282.163 2.08537L280.743 2.33007L279.338 2.60728L278.402 2.81142L276.992 3.12483L275.597 3.47076L274.638 3.72953L273.242 4.113L271.863 4.52865L270.886 4.84274L269.509 5.2966L268.151 5.78331L267.16 6.1527L265.806 6.67796L264.473 7.23574L263.473 7.66043L262.148 8.25743L261.156 8.73039L259.841 9.3666L258.549 10.0357L257.557 10.5626L256.278 11.2709L255.3 11.8447L254.035 12.5919L252.798 13.3719L251.827 13.9974L250.606 14.8163L249.656 15.486L248.454 16.3431L247.283 17.2324L246.346 17.9511L245.196 18.8779L244.285 19.6378L243.16 20.6022L242.276 21.4013L241.176 22.4029L240.109 23.435L239.249 24.2773L238.211 25.3449L237.383 26.2232L236.375 27.3256M283.071 1.93487L281.672 2.17624L280.286 2.44942L278.916 2.75413L277.561 3.09033L276.222 3.45804L274.9 3.85693L273.596 4.28733L272.31 4.74856L271.044 5.24031L269.797 5.76322L268.571 6.3163L267.368 6.89954L266.186 7.51297L265.028 8.15622L263.893 8.82896L262.783 9.53087L261.699 10.2616L260.64 11.0208L259.608 11.8082L258.603 12.6234L257.626 13.4661L256.678 14.336L255.76 15.2323L254.872 16.1548L254.014 17.103L253.187 18.0768L252.392 19.075L251.63 20.0974L250.901 21.1439L250.205 22.2132L249.544 23.3053L248.917 24.4195L248.325 25.5548L247.769 26.7109L247.249 27.8875L246.765 29.0831L246.319 30.2979L245.91 31.5308L245.538 32.7811L245.205 34.0481L244.91 35.3309L244.654 36.6292L244.436 37.9418L244.258 39.2682L244.12 40.6073L244.021 41.9588L243.963 43.3211L243.945 44.6941L243.966 46.0768L244.028 47.4679L244.131 48.867L244.274 50.2728L244.458 51.685L244.682 53.1023L244.947 54.5235L245.252 55.9484L245.597 57.3754L245.983 58.804L246.408 60.2333L246.874 61.6623L247.379 63.0896L247.925 64.5145L248.509 65.9364L249.132 67.354L249.794 68.7665L250.494 70.1727L251.231 71.5718L252.007 72.9629L252.819 74.3449L253.668 75.7172L254.553 77.0781L255.473 78.4277L256.428 79.7641L257.418 81.0872L258.441 82.3951L259.497 83.688L260.586 84.9641L261.707 86.2228L262.858 87.463L264.04 88.6845L265.251 89.8858L266.491 91.0664L267.758 92.2255L269.052 93.3619L270.373 94.4751L271.719 95.5638L273.089 96.628L274.483 97.6665L275.899 98.6788L277.336 99.6643L278.794 100.622L280.271 101.551L281.767 102.451L283.28 103.322L284.81 104.162L286.355 104.971L287.914 105.749L289.486 106.495L291.07 107.209L292.665 107.89L294.27 108.538L295.884 109.151L297.506 109.731L299.133 110.276L300.767 110.786L302.404 111.262L304.045 111.701L305.688 112.105L307.331 112.473L308.974 112.805L310.616 113.1L312.255 113.359L313.891 113.581L315.522 113.767L317.147 113.916L318.765 114.028L320.376 114.104L321.977 114.142L323.568 114.144L325.148 114.109L326.716 114.038L328.27 113.93L329.81 113.786L331.335 113.606L332.844 113.39L334.336 113.139L335.809 112.852L337.263 112.53L338.698 112.173L340.112 111.782L341.504 111.357L342.873 110.898L344.219 110.405L345.541 109.88L346.838 109.322L348.109 108.732L349.354 108.111L350.571 107.459L351.761 106.776L352.922 106.063L354.054 105.321L355.155 104.55L356.227 103.75L357.268 102.923L358.277 102.069L359.254 101.188L360.198 100.282L361.109 99.3502L361.987 98.3939L362.831 97.4138L363.64 96.4105L364.414 95.3848L365.154 94.3373L365.858 93.269L366.527 92.1803L367.159 91.0721L367.755 89.9448L368.315 88.7994L368.838 87.637L369.324 86.4577L369.773 85.2627L370.185 84.0527L370.559 82.8282L370.896 81.5903L371.195 80.3396L371.458 79.0769L371.682 77.8028L371.869 76.5184L372.018 75.2245L372.13 73.9216L372.204 72.6106L372.241 71.2923L372.241 69.9675L372.203 68.6368L372.129 67.301L372.017 65.9612L371.869 64.6181L371.685 63.2719L371.464 61.9241L371.207 60.5752L370.914 59.2257L370.586 57.8765L370.222 56.5287L369.823 55.1822L369.39 53.8387L368.922 52.4985M236.375 27.3256L235.581 28.2377L234.604 29.3741L233.663 30.5396L232.902 31.4875L231.995 32.6855L231.272 33.6626L230.4 34.8915L229.716 35.8961L228.882 37.1551L228.238 38.1845L227.442 39.472L226.685 40.7856L226.083 41.8392L225.366 43.1793L224.807 44.2526L224.131 45.6175L223.617 46.7083L222.982 48.0964L222.514 49.2022L221.923 50.6124L221.374 52.0443L220.953 53.1606L220.448 54.6117L220.075 55.7369L219.614 57.2054L219.289 58.3371L218.873 59.8207L218.502 61.323L218.225 62.4537L217.9 63.9681L217.672 65.0991L217.392 66.6239L217.214 67.7525L216.979 69.2861L216.79 70.834L216.662 71.9492L216.518 73.5025M236.375 27.3256L235.402 28.458L234.465 29.6188L233.565 30.8081L232.703 32.0252L231.879 33.2691L231.094 34.5399L230.349 35.8361L229.644 37.1575L228.979 38.5033L228.355 39.8726L227.774 41.265L227.235 42.6796L226.739 44.1152L226.286 45.5717L225.878 47.0476L225.513 48.5422L225.193 50.055L224.918 51.5848L224.688 53.1308L224.504 54.6918L224.366 56.2672L224.275 57.8561L224.229 59.4574L224.231 61.07L224.279 62.6927L224.374 64.3248L224.516 65.9656L224.706 67.6131L224.943 69.267L225.227 70.9262L225.558 72.5892L225.936 74.2551L226.361 75.9231L226.833 77.5917L227.351 79.26L227.916 80.9266L228.528 82.5906L229.185 84.2508L229.888 85.9064L230.636 87.5555L231.429 89.1977L232.266 90.8315L233.147 92.4559L234.072 94.0695L235.04 95.6714L236.051 97.2606L237.103 98.8357L238.196 100.396L239.329 101.94L240.503 103.466L241.715 104.974L242.966 106.463L244.254 107.931L245.579 109.377L246.939 110.801L248.334 112.201L249.763 113.576L251.225 114.926L252.719 116.249L254.243 117.544L255.798 118.811L257.381 120.049L258.992 121.255L260.63 122.431L262.293 123.575L263.98 124.686L265.69 125.763L267.423 126.806L269.175 127.813L270.948 128.785L272.738 129.72L274.545 130.618L276.368 131.478L278.205 132.299L280.055 133.082L281.917 133.825L283.79 134.529L285.671 135.191L287.56 135.813L289.456 136.394L291.356 136.933L293.261 137.43L295.167 137.885L297.075 138.297L298.982 138.667L300.888 138.993L302.791 139.277L304.69 139.518L306.583 139.715L308.47 139.869L310.348 139.98L312.216 140.047L314.075 140.071L315.921 140.052L317.754 139.99L319.573 139.885L321.377 139.738L323.163 139.548L324.932 139.316L326.681 139.041L328.411 138.726L330.119 138.368L331.805 137.97L333.467 137.531L335.105 137.052L336.718 136.534L338.304 135.976L339.863 135.38L341.393 134.745L342.894 134.072L344.365 133.363L345.805 132.617L347.214 131.835L348.589 131.018L349.932 130.166L351.241 129.281L352.514 128.362L353.752 127.411L354.954 126.427L356.119 125.413L357.247 124.369L358.337 123.295L359.389 122.192L360.402 121.062L361.375 119.904L362.308 118.719L363.201 117.51L364.053 116.276L364.865 115.018L365.635 113.737L366.363 112.435L367.05 111.111L367.694 109.767L368.295 108.403L368.854 107.021L369.371 105.621M216.518 73.5025L216.439 74.609L216.341 76.1654L216.288 77.7331L216.258 78.8178L216.25 80.3856L216.268 81.4552L216.304 83.0206L216.386 84.5943L216.45 85.6335L216.575 87.2019L216.854 89.7802L217.067 91.3459L217.22 92.3254L217.475 93.8801L217.772 95.4381L217.967 96.374L218.305 97.9175L218.685 99.4622L218.918 100.35L219.336 101.878L219.797 103.404M216.518 73.5025L216.42 75.0682L216.366 76.646L216.359 78.2342L216.396 79.8321L216.48 81.4391L216.609 83.0537L216.785 84.6748L217.007 86.3018L217.274 87.9332L217.588 89.5684L217.947 91.2058L218.352 92.8446L218.803 94.4837L219.299 96.1218L219.841 97.7583L220.428 99.3917L221.06 101.021L221.736 102.645L222.456 104.263L223.22 105.873L224.027 107.474L224.878 109.066L225.77 110.647L226.705 112.217L227.682 113.773L228.699 115.315L229.756 116.842L230.852 118.352L231.988 119.846L233.161 121.321L234.372 122.776L235.62 124.211L236.903 125.624L238.222 127.015L239.574 128.382L240.959 129.724L242.377 131.041L243.826 132.332L245.306 133.595L246.814 134.83L248.351 136.036L249.915 137.211L251.505 138.356L253.12 139.47L254.759 140.55L256.421 141.598L258.104 142.611L259.807 143.59L261.53 144.533L263.271 145.44L265.028 146.311L266.801 147.144L268.589 147.94L270.389 148.697L272.201 149.415L274.023 150.094L275.854 150.733L277.694 151.332L279.54 151.89L281.391 152.407L283.246 152.884L285.104 153.318L286.963 153.711L288.823 154.062L290.681 154.371L292.536 154.637L294.388 154.862L296.235 155.043L298.076 155.183L299.909 155.28L301.734 155.334L303.548 155.345L305.351 155.315L307.142 155.242L308.919 155.127L310.681 154.971L312.427 154.773L314.157 154.533L315.868 154.252L317.56 153.93L319.231 153.568L320.881 153.165L322.509 152.723L324.113 152.242L325.693 151.721L327.247 151.163L328.775 150.566L330.276 149.932L331.748 149.261L333.191 148.553L334.605 147.81L335.988 147.032L337.34 146.219L338.659 145.373M219.797 103.404L220.065 104.24L220.561 105.746L221.1 107.249L221.398 108.029L221.97 109.508L222.582 110.983L223.233 112.452L223.55 113.152L224.232 114.593L224.952 116.026L226.038 118.066L226.823 119.46L227.644 120.843L228.501 122.214L228.832 122.742L229.712 124.079L230.625 125.403L231.573 126.712L231.899 127.148L232.864 128.421L233.862 129.678L234.891 130.918L235.951 132.141L237.041 133.344L237.317 133.644L238.417 134.808L239.546 135.952L240.703 137.075L241.886 138.177L243.096 139.256L244.33 140.312L245.589 141.344L245.75 141.472L247.01 142.462L248.291 143.426L249.594 144.365L250.917 145.278L252.261 146.164L253.622 147.022L255.002 147.853L256.398 148.655L257.809 149.427L259.236 150.171L260.677 150.884L262.131 151.566L263.596 152.217L265.073 152.837L265.265 152.917L266.778 153.515L268.301 154.081L269.831 154.613L271.368 155.112L272.911 155.577L274.459 156.007L276.011 156.404L276.408 156.5L277.99 156.867L279.572 157.2L281.156 157.496L282.738 157.757L284.32 157.981L284.86 158.056L286.464 158.247L288.064 158.403L289.66 158.521L290.283 158.555L291.896 158.638L293.503 158.683L295.102 158.691L295.8 158.68L297.412 158.65L299.014 158.583L300.604 158.478L301.371 158.416L302.97 158.272L304.555 158.09L306.124 157.871L306.952 157.754L308.526 157.493L310.082 157.195L310.944 157.024M219.797 103.404L220.3 104.928L220.845 106.449L221.431 107.966L222.058 109.478L222.726 110.983L223.435 112.481L224.184 113.971L224.972 115.452L225.8 116.922L226.667 118.381L227.571 119.828L228.514 121.261L229.494 122.679L230.51 124.083L231.562 125.47L232.649 126.84L233.771 128.191L234.927 129.523L236.116 130.835L237.337 132.125L238.59 133.394L239.874 134.64L241.187 135.862L242.529 137.059L243.899 138.23L245.297 139.376L246.72 140.494L248.169 141.583L249.642 142.645L251.138 143.677L252.656 144.678L254.196 145.649L255.755 146.588L257.333 147.494L258.93 148.368L260.542 149.208L262.171 150.014L263.814 150.786L265.47 151.522L267.139 152.223L268.819 152.887L270.508 153.515L272.206 154.107L273.911 154.66L275.623 155.176L277.34 155.655L279.061 156.095L280.784 156.496L282.509 156.859L284.235 157.182L285.959 157.467L287.682 157.712L289.402 157.918L291.116 158.085L292.826 158.212L294.529 158.3L296.224 158.348L297.91 158.357L299.586 158.326L301.251 158.256L302.903 158.147L304.542 158L306.167 157.813L307.776 157.588L309.369 157.325L310.944 157.024M310.944 157.024L312.501 156.685L314.037 156.309L314.928 156.081L316.461 155.664L317.973 155.209L318.887 154.925L320.391 154.428L321.872 153.895L322.804 153.555L324.274 152.98L325.206 152.588L326.663 151.972L328.093 151.319L329.033 150.872L330.447 150.179L331.832 149.451L332.776 148.947L334.141 148.179L335.075 147.627L336.418 146.82L337.73 145.978L338.659 145.373M338.659 145.373L339.945 144.493L340.859 143.84L342.118 142.923L343.343 141.973L344.244 141.271L345.439 140.285L346.318 139.539L347.482 138.519L348.337 137.73L349.469 136.675L350.563 135.592L351.394 134.759L352.453 133.644L353.256 132.772L354.278 131.627L355.05 130.718L356.034 129.543L356.978 128.342L357.718 127.397L358.622 126.169L359.327 125.191L360.191 123.938L360.859 122.93L361.681 121.653L362.31 120.616L363.09 119.317L363.828 117.996L364.416 116.935L365.111 115.595L365.657 114.51L366.308 113.152L366.812 112.047L367.417 110.673L367.878 109.549L368.439 108.161L368.957 106.756L369.371 105.621M369.371 105.621L369.844 104.204L370.211 103.056L370.64 101.63L370.96 100.471L371.344 99.0378L371.684 97.5907L371.955 96.4316L372.251 94.9795L372.475 93.8161L372.726 92.3609L372.902 91.1951L373.11 89.7393L373.275 88.2732L373.401 87.1187L373.524 85.6546L373.602 84.5035L373.682 83.043L373.721 81.5748L373.75 80.4432L373.748 78.9814L373.729 77.8595L373.686 76.4057L373.604 74.9466L373.538 73.8518L373.416 72.4038L373.304 71.3244L373.145 69.8888L372.947 68.4504L372.791 67.4059L372.557 65.9823L372.285 64.5581L372.087 63.5525L371.782 62.1453L371.439 60.7384L371.202 59.7758L370.827 58.3887L370.417 57.0033L370.144 56.0872L369.704 54.7239L369.229 53.364L368.922 52.4985M256.279 11.2709L255.025 12.0117L253.798 12.7847L252.598 13.5895L251.427 14.4255L250.284 15.2927L249.171 16.191L248.089 17.1192L247.038 18.0775L246.019 19.0653L245.032 20.082L244.079 21.1272L243.159 22.2005L242.275 23.3009L241.426 24.4282L240.613 25.582L239.836 26.7612L239.097 27.9659L238.396 29.1948L237.733 30.4474L237.108 31.7232L236.524 33.0214L235.979 34.3414L235.475 35.6822L235.012 37.0431L234.591 38.4238L234.211 39.823L233.873 41.2399L233.578 42.6739L233.326 44.1239L233.117 45.5894L232.952 47.0693L232.83 48.5627L232.753 50.0687L232.719 51.5865L232.73 53.115L232.786 54.6533L232.886 56.2002L233.031 57.7552L233.221 59.3172L233.456 60.8846L233.736 62.4574L234.06 64.0335L234.429 65.6126L234.842 67.1938L235.3 68.7753L235.802 70.3564L236.349 71.9362L236.939 73.5136L237.572 75.0874L238.249 76.6568L238.969 78.2202L239.731 79.7772L240.536 81.3262L241.381 82.8661L242.269 84.3963L243.196 85.9151L244.164 87.4221L245.172 88.9158L246.218 90.3954L247.302 91.8599L248.424 93.3079L249.583 94.7386L250.778 96.1511L252.009 97.5438L253.274 98.9165L254.572 100.268L255.904 101.597L257.267 102.903L258.662 104.185L260.086 105.441L261.54 106.671L263.022 107.875L264.531 109.051L266.066 110.198L267.626 111.316L269.211 112.404L270.818 113.461L272.446 114.486L274.095 115.479L275.764 116.438L277.452 117.364L279.155 118.255L280.876 119.112L282.61 119.933L284.358 120.717L286.118 121.465L287.89 122.175L289.671 122.848L291.461 123.483L293.258 124.079L295.06 124.636L296.868 125.155L298.679 125.633L300.492 126.072L302.306 126.47L304.12 126.829L305.933 127.146L307.742 127.423L309.547 127.66L311.347 127.856L313.141 128.01L314.927 128.124L316.704 128.197L318.47 128.229L320.226 128.22L321.969 128.17L323.698 128.08L325.413 127.95L327.111 127.779L328.793 127.568L330.457 127.318L332.101 127.027L333.726 126.698L335.329 126.33L336.909 125.924L338.467 125.479L340.001 124.997L341.509 124.478L342.992 123.921L344.447 123.328L345.875 122.7L347.274 122.036L348.644 121.338L349.984 120.605L351.293 119.839L352.57 119.04L353.815 118.209L355.026 117.346L356.204 116.452L357.347 115.527L358.456 114.573L359.529 113.59L360.567 112.579L361.567 111.54L362.53 110.475L363.456 109.383L364.344 108.266L365.194 107.125L366.005 105.96L366.777 104.773L367.51 103.563L368.202 102.333L368.855 101.082L369.468 99.8108L370.04 98.5213L370.572 97.214L371.063 95.8896L371.513 94.5495L371.922 93.1936L372.29 91.8233L372.616 90.4396L372.902 89.0428L373.146 87.6343L373.349 86.2147L373.511 84.7848L373.632 83.3457L373.712 81.8984L373.751 80.4432M222.982 48.0963L222.39 49.5079L221.841 50.9412L221.335 52.3963L220.873 53.8718L220.454 55.3675L220.081 56.8816L219.751 58.4141L219.468 59.9634L219.23 61.5292L219.038 63.11L218.893 64.7055L218.794 66.3142L218.742 67.9349L218.737 69.5673L218.778 71.2098L218.868 72.8616L219.004 74.5219L219.189 76.1892L219.421 77.8628L219.7 79.5412L220.027 81.2235L220.402 82.9089L220.823 84.5957L221.292 86.2831L221.809 87.9701L222.371 89.6555L222.981 91.3379L223.637 93.0162L224.339 94.6895L225.087 96.3565L225.88 98.0161L226.718 99.6673L227.6 101.308L228.526 102.939L229.496 104.557L230.508 106.162L231.563 107.753L232.659 109.329L233.796 110.887L234.973 112.429L236.189 113.951L237.445 115.454L238.738 116.935L240.068 118.395L241.434 119.831L242.835 121.243L244.271 122.631L245.74 123.992L247.241 125.326L248.773 126.632L250.336 127.908L251.928 129.155L253.548 130.371L255.195 131.555L256.867 132.707L258.564 133.825L260.285 134.91L262.027 135.958L263.791 136.972L265.574 137.949L267.376 138.889L269.195 139.791L271.03 140.655L272.879 141.48L274.742 142.265L276.617 143.01L278.502 143.715L280.397 144.379L282.299 145.001L284.209 145.581L286.123 146.12L288.041 146.616L289.962 147.069L291.884 147.479L293.806 147.846L295.726 148.169L297.644 148.449L299.558 148.685L301.466 148.877L303.367 149.026L305.261 149.13L307.145 149.191L309.018 149.208L310.88 149.181L312.728 149.111L314.563 148.998L316.381 148.841L318.183 148.642L319.967 148.399L321.732 148.115L323.477 147.788L325.2 147.419L326.901 147.009L328.579 146.559L330.232 146.067L331.859 145.535L333.46 144.964L335.034 144.354L336.579 143.705L338.094 143.018L339.58 142.294L341.034 141.533L342.457 140.736L343.847 139.903L345.203 139.035L346.525 138.133L347.812 137.198L349.063 136.23L350.278 135.229L351.456 134.198L352.597 133.136L353.7 132.044L354.763 130.924L355.788 129.775L356.773 128.599L357.717 127.397M337.679 22.4541L337.099 21.9604L336.508 21.4767L335.908 21.0027L335.298 20.5395L334.679 20.0863L334.051 19.6442L333.415 19.2131L332.771 18.7931L332.118 18.3845L331.458 17.9879L330.792 17.6034L330.118 17.2307L329.438 16.8707L328.753 16.5231L328.062 16.1886L327.366 15.8668L326.665 15.5581L325.959 15.2631L325.25 14.9812L324.537 14.7133L323.821 14.4593L323.102 14.2189L322.381 13.9927L321.658 13.7808L320.934 13.5834L320.208 13.4007L319.482 13.2324L318.755 13.0789L318.029 12.9401L317.302 12.8164L316.577 12.7075L315.854 12.6137L315.132 12.5349L314.412 12.4715L313.695 12.4233L312.98 12.3904L312.27 12.373L311.563 12.3706L310.86 12.3837L310.162 12.4122L309.469 12.4561L308.781 12.5151L308.1 12.5899L307.424 12.6797L306.755 12.7849L306.093 12.9053L305.439 13.0407L304.792 13.1912L304.154 13.3571L303.524 13.5378L302.904 13.7336L302.292 13.9441L301.69 14.1693L301.099 14.409L300.517 14.6631L299.946 14.9316L299.387 15.2145L298.839 15.5111L298.303 15.8222L297.779 16.1467L297.268 16.4845L296.769 16.8362L296.283 17.2009L295.811 17.5786L295.353 17.9692L294.908 18.3724L294.478 18.7877L294.062 19.2154L293.662 19.6552L293.276 20.1064L292.906 20.569L292.551 21.0429L292.212 21.5276L291.89 22.0231L291.583 22.5289L291.294 23.0448L291.02 23.5704L290.764 24.1053L290.525 24.6497L290.303 25.2024L290.099 25.7639L289.912 26.3338L289.742 26.9113L289.591 27.4966L289.458 28.0885L289.343 28.6879L289.245 29.2932L289.167 29.9046L289.106 30.5221L289.064 31.1449L289.041 31.7724L289.036 32.4046L289.049 33.0411L289.081 33.6813L289.132 34.3249L289.201 34.9719L289.289 35.6212L289.395 36.2728L289.52 36.9261L289.663 37.5811L289.825 38.2367L290.004 38.893L290.202 39.5497L290.418 40.2064L290.652 40.862L290.904 41.5167L291.174 42.17L291.461 42.8213L291.766 43.4705L292.088 44.1168L292.427 44.7601L292.782 45.4L293.155 46.0355L293.543 46.667L293.948 47.2938L294.369 47.9153L294.806 48.5311L295.258 49.1411L295.725 49.7448L296.207 50.3418L296.704 50.9314L297.214 51.5137L297.739 52.0882L298.277 52.6544L298.829 53.2118L299.394 53.7602L299.971 54.2995L300.56 54.8288L301.161 55.3484L301.774 55.8572L302.397 56.3557L303.032 56.843L303.676 57.3187L304.331 57.7829L304.994 58.2355L305.667 58.6756L306.348 59.103L307.038 59.5179L307.735 59.9195L308.439 60.3077L309.151 60.6824L309.868 61.0434L310.592 61.3904L311.32 61.7229L312.054 62.041L312.792 62.3443L313.534 62.633L314.28 62.9065L315.028 63.1646L315.78 63.4076L316.533 63.6349L317.288 63.8467L318.044 64.0428L318.8 64.2225L319.557 64.3864L320.313 64.5342L321.068 64.6659L321.822 64.7813L322.574 64.8805L323.324 64.9633L324.071 65.0293L324.816 65.0792L325.556 65.1124L326.292 65.1295L327.023 65.1299L327.75 65.1138L328.47 65.0813L329.185 65.0327L329.893 64.9676L330.595 64.8862L331.289 64.7883L331.975 64.6747L332.653 64.5449L333.323 64.3991L333.983 64.2376L334.634 64.0606L335.276 63.8678L335.907 63.6597L336.528 63.4361L337.137 63.1974L337.736 62.944L338.322 62.6755L338.897 62.3929L339.459 62.0956L340.009 61.7842L340.546 61.4591L341.069 61.1199L341.579 60.7672L342.074 60.4012L342.556 60.0224L343.023 59.6309L343.476 59.2267L343.913 58.8103L344.335 58.3819L344.742 57.9418L345.133 57.4906L345.509 57.0281L345.868 56.5544L346.21 56.0707L346.537 55.5766L346.847 55.0728L347.14 54.5593L347.416 54.0364L347.674 53.5048L347.916 52.9648L348.141 52.4164L348.347 51.8599L348.537 51.2961L348.709 50.725L348.863 50.1471L348.999 49.5628L349.118 48.9722L349.218 48.3759L349.301 47.7742L349.366 47.1671L349.413 46.5557L349.442 45.94L349.454 45.3202L349.447 44.697L349.422 44.0706L349.38 43.441L349.32 42.8092L349.242 42.1753L349.147 41.5398L349.034 40.9026L348.903 40.2647L348.756 39.6261L348.59 38.9872L348.408 38.3487L348.209 37.7104L347.993 37.0729L347.76 36.437L347.511 35.8025L347.245 35.17L346.963 34.5398L346.665 33.9123L346.351 33.2878L346.022 32.667L345.677 32.0496L345.316 31.4365L344.941 30.8274L344.551 30.2237L344.146 29.6247L343.727 29.0314L343.294 28.4438L342.847 27.8623L342.387 27.2874L341.913 26.7189L341.426 26.1578L340.926 25.604L340.415 25.058L339.89 24.52L339.354 23.9904L338.807 23.4691L338.248 22.9569L337.679 22.4541ZM330.529 26.8487L330.857 27.1075L331.194 27.3576L331.522 27.6106L331.827 27.8785L332.097 28.1697L332.345 28.4778L332.588 28.7919L332.844 29.1019L333.124 29.4003L333.414 29.6926L333.696 29.9862L333.949 30.2892L334.161 30.6077L334.345 30.9372L334.523 31.272L334.716 31.6052L334.937 31.933L335.171 32.2565L335.395 32.58L335.588 32.9071L335.733 33.2407L335.847 33.5799L335.953 33.9225L336.075 34.2667L336.229 34.6113L336.397 34.9545L336.555 35.2961L336.679 35.635L336.752 35.9712L336.791 36.3071L336.821 36.6446L336.868 36.9872L336.948 37.3355L337.043 37.6858L337.129 38.0327L337.179 38.3709L337.176 38.6971L337.139 39.0165L337.092 39.3366L337.061 39.6638L337.063 40.003L337.082 40.3472L337.091 40.6865L337.066 41.0113L336.988 41.315L336.874 41.6059L336.751 41.8955L336.643 42.1952L336.568 42.5123L336.508 42.8375L336.441 43.1562L336.34 43.4549L336.189 43.7244L336.003 43.9755L335.808 44.2232L335.627 44.4836L335.476 44.7665L335.341 45.0598L335.197 45.3461L335.024 45.6072L334.806 45.8318L334.555 46.0326L334.295 46.2287L334.047 46.4395L333.826 46.6772L333.619 46.9272L333.405 47.1696L333.166 47.3828L332.888 47.5534L332.582 47.6958L332.266 47.8323L331.961 47.9845L331.678 48.1675L331.406 48.3649L331.131 48.5536L330.834 48.7102L330.506 48.8198L330.156 48.8979L329.798 48.9686L329.447 49.0564L329.112 49.1768L328.786 49.3132L328.459 49.4409L328.116 49.5348L327.752 49.5783L327.371 49.5884L326.984 49.5904L326.6 49.6095L326.226 49.6628L325.859 49.7329L325.492 49.7942L325.117 49.8214L324.73 49.7969L324.334 49.7382L323.933 49.6705L323.531 49.6202L323.134 49.6035L322.74 49.6041L322.347 49.5968L321.954 49.5555L321.559 49.464L321.163 49.3383L320.764 49.2036L320.361 49.0849L319.956 48.9991L319.549 48.9304L319.146 48.8543L318.751 48.7464L318.365 48.5908L317.985 48.4028L317.604 48.2057L317.216 48.0237L316.817 47.8722L316.415 47.7364L316.018 47.5946L315.636 47.4243L315.274 47.2108L314.925 46.9675L314.577 46.7161L314.219 46.4774L313.844 46.2659L313.462 46.0691L313.087 45.8673L312.733 45.6414L312.409 45.3783L312.105 45.0897L311.804 44.7933L311.491 44.5078L311.154 44.245L310.807 43.9946L310.469 43.7408L310.157 43.4683L309.885 43.1663L309.638 42.8435L309.396 42.5143L309.14 42.1929L308.854 41.8892L308.556 41.5959L308.267 41.3009L308.011 40.9925L307.8 40.6633L307.62 40.3191L307.448 39.9701L307.257 39.6259L307.035 39.2934L306.797 38.9686L306.569 38.6441L306.377 38.3126L306.237 37.9693L306.131 37.6174L306.033 37.2621L305.917 36.9084L305.766 36.5608L305.598 36.2176L305.44 35.8767L305.319 35.5354L305.254 35.1915L305.226 34.8456L305.207 34.4977L305.169 34.1487L305.095 33.7994L305.002 33.4518L304.919 33.1079L304.875 32.77L304.888 32.4392L304.938 32.1124L304.999 31.7855L305.04 31.4547L305.045 31.1175L305.031 30.7793L305.026 30.4461L305.059 30.1246L305.148 29.8196L305.275 29.5243L305.412 29.231L305.531 28.931L305.614 28.6192L305.678 28.3032L305.751 27.9934L305.86 27.7015L306.021 27.4333L306.219 27.1809L306.427 26.9319L306.618 26.6741L306.775 26.3992L306.916 26.1176L307.063 25.8438L307.242 25.5917L307.47 25.3708L307.73 25.1704L308 24.9749L308.256 24.7685L308.482 24.5412L308.691 24.3049L308.907 24.0766L309.149 23.8741L309.434 23.7086L309.747 23.5674L310.069 23.4324L310.379 23.2852L310.664 23.1136L310.934 22.9312L311.209 22.7573L311.505 22.6118L311.836 22.5072L312.189 22.4301L312.55 22.36L312.903 22.2769L313.235 22.1676L313.557 22.0456L313.88 21.9327L314.219 21.8492L314.582 21.8093L314.963 21.7986L315.349 21.7959L315.73 21.7795L316.098 21.7359L316.457 21.6793L316.817 21.6307L317.185 21.6122L317.568 21.638L317.961 21.6937L318.359 21.7577L318.754 21.8086L319.143 21.8321L319.527 21.8425L319.909 21.8603L320.292 21.9075L320.68 21.9977L321.071 22.117L321.465 22.2451L321.86 22.3611L322.256 22.4509L322.65 22.5273L323.039 22.6111L323.424 22.7217L323.802 22.8726L324.177 23.0512L324.553 23.2383L324.934 23.4146L325.321 23.5671L325.71 23.7072L326.093 23.8534L326.464 24.0233L326.819 24.2295L327.164 24.4604L327.508 24.6994L327.859 24.9294L328.224 25.1389L328.593 25.3376L328.956 25.5408L329.3 25.764L329.619 26.0174L329.921 26.292L330.22 26.5735L330.529 26.8487ZM342.937 19.9513L342.107 19.2467L341.263 18.5558L340.405 17.8797L339.533 17.218L338.649 16.5711L337.751 15.9399L336.842 15.3242L335.922 14.7248L334.99 14.1416L334.048 13.5751L333.095 13.0257L332.134 12.4934L331.163 11.9789L330.184 11.4821L329.197 11.0038L328.203 10.5435L327.201 10.1021L326.194 9.67971L325.18 9.27613L324.162 8.89232L323.139 8.52796L322.112 8.18371L321.081 7.85923L320.048 7.55488L319.012 7.27096L317.974 7.00783L316.935 6.76547L315.896 6.54391L314.856 6.34313L313.817 6.16379L312.779 6.00557L311.742 5.86882L310.708 5.75384L309.676 5.66032L308.648 5.58825L307.624 5.53831L306.604 5.50981L305.59 5.50311L304.581 5.51853L303.578 5.55574L302.582 5.61506L301.594 5.69618L300.613 5.79909L299.641 5.92413L298.678 6.07094L297.725 6.23921L296.782 6.42961L295.85 6.64145L294.928 6.87508L294.019 7.13018L293.123 7.40671L292.239 7.70471L291.368 8.02349L290.512 8.36337L289.67 8.72438L288.843 9.10584L288.032 9.50775L287.237 9.93011L286.458 10.3729L285.696 10.8352L284.952 11.3175L284.226 11.819L283.518 12.3399L282.829 12.8795L282.16 13.438L281.51 14.0145L280.881 14.6095L280.272 15.2223L279.684 15.8521L279.117 16.4994L278.573 17.1634L278.05 17.8435L277.551 18.5401L277.074 19.252L276.621 19.9794L276.19 20.7216L275.785 21.4781L275.403 22.2487L275.045 23.0328L274.713 23.8302L274.405 24.6401L274.123 25.4623L273.867 26.2963L273.636 27.1416L273.431 27.9974L273.252 28.8636L273.1 29.7398L272.974 30.6247L272.874 31.5187L272.801 32.4207L272.755 33.3301L272.737 34.2469L272.744 35.17L272.779 36.0992L272.841 37.0334L272.93 37.9727L273.047 38.9159L273.19 39.8629L273.36 40.8128L273.557 41.7651L273.782 42.7194L274.033 43.6748L274.31 44.6307L274.614 45.5864L274.945 46.5417L275.302 47.4957L275.685 48.4477L276.094 49.3973L276.528 50.3439L276.988 51.2868L277.473 52.2251L277.983 53.1586L278.517 54.0868L279.076 55.0082L279.658 55.9233L280.265 56.8307L280.894 57.7301L281.546 58.621L282.221 59.5029L282.918 60.3748L283.636 61.2362L284.375 62.087L285.135 62.926L285.915 63.7529L286.715 64.5675L287.534 65.3686L288.371 66.1563L289.227 66.9296L290.1 67.6882L290.991 68.4313L291.897 69.1587L292.819 69.87L293.757 70.5645L294.709 71.2416L295.676 71.9013L296.655 72.5432L297.647 73.166L298.651 73.7701L299.667 74.355L300.693 74.9201L301.729 75.4648L302.775 75.9894L303.829 76.4932L304.891 76.9759L305.96 77.4372L307.036 77.8766L308.117 78.2939L309.204 78.6891L310.295 79.0619L311.39 79.4118L312.487 79.739L313.587 80.0427L314.688 80.3232L315.79 80.58L316.892 80.8133L317.993 81.0228L319.093 81.2085L320.19 81.3701L321.285 81.5078L322.376 81.6211L323.463 81.7106L324.545 81.7753L325.621 81.8162L326.691 81.833L327.753 81.8253L328.809 81.7934L329.855 81.7378L330.893 81.658L331.92 81.5544L332.938 81.4267L333.944 81.2756L334.938 81.1006L335.921 80.9025L336.89 80.6809L337.846 80.4365L338.788 80.169L339.715 79.8791L340.627 79.5667L341.524 79.2322L342.404 78.8755L343.267 78.4974L344.113 78.0978L344.941 77.6775L345.751 77.2364L346.542 76.7745L347.314 76.2928L348.066 75.791L348.799 75.2701L349.51 74.7301L350.201 74.1716L350.871 73.5948L351.519 72.9998L352.145 72.3877L352.748 71.7585L353.329 71.1126L353.887 70.4506L354.422 69.7725L354.933 69.0796L355.421 68.3717L355.884 67.6493L356.324 66.9132L356.739 66.1637L357.129 65.4011L357.495 64.6258L357.835 63.8391L358.151 63.0406L358.441 62.2311L358.706 61.4116L358.945 60.5816L359.159 59.7426L359.348 58.8942L359.51 58.0378L359.647 57.1733L359.759 56.3018L359.844 55.4232L359.904 54.5386L359.939 53.648L359.947 52.7523L359.93 51.8516L359.888 50.9469L359.82 50.0389L359.726 49.1275L359.608 48.2137L359.464 47.2976L359.295 46.3802L359.102 45.4617L358.883 44.5429L358.64 43.6238L358.373 42.7057L358.082 41.7886L357.767 40.8732L357.428 39.9597L357.065 39.049L356.679 38.1413L356.27 37.2376L355.839 36.3379L355.385 35.4426L354.909 34.5529L354.411 33.6687L353.891 32.7905L353.351 31.9189L352.789 31.0544L352.207 30.1977L351.604 29.349L350.982 28.5086L350.34 27.6773L349.679 26.8551L348.999 26.0429L348.301 25.2411L347.586 24.45L346.852 23.67L346.101 22.9014L345.334 22.1452L344.55 21.401L343.751 20.6696L342.937 19.9513ZM346.158 19.8624L345.119 18.9805L344.062 18.1164L342.988 17.2703L341.897 16.4424L340.79 15.6335L339.668 14.8435L338.53 14.0735L337.378 13.3233L336.213 12.5939L335.034 11.885L333.842 11.1978L332.639 10.5318L331.425 9.88787L330.2 9.2664L328.965 8.6674L327.721 8.0912L326.468 7.53845L325.207 7.0095L323.939 6.50435L322.664 6.02334L321.383 5.56646L320.098 5.13473L318.807 4.72746L317.513 4.34566L316.215 3.98935L314.915 3.65883L313.613 3.35381L312.31 3.07525L311.007 2.82251L309.704 2.59625L308.402 2.39647L307.101 2.22351L305.803 2.07736L304.508 1.95836L303.217 1.86618L301.931 1.80115L300.65 1.76361L299.375 1.75322L298.106 1.76998L296.845 1.81423L295.592 1.88596L294.347 1.98518L293.113 2.11188L291.888 2.26575L290.675 2.44742L289.473 2.65625L288.283 2.89223L287.106 3.15537L285.943 3.44599L284.794 3.76342L283.661 4.10801L282.543 4.4794L281.441 4.87729L280.357 5.30165L279.29 5.7525L278.242 6.22949L277.213 6.73229L276.203 7.2609L275.214 7.81499L274.245 8.39422L273.299 8.99859L272.374 9.62741L271.472 10.2807L270.593 10.9582L269.739 11.6594L268.909 12.3838L268.104 13.1316L267.325 13.9019L266.571 14.6946L265.845 15.5088L265.145 16.3448L264.473 17.2016L263.83 18.0792L263.215 18.9768L262.629 19.8939L262.073 20.8305L261.547 21.7855L261.051 22.7582L260.585 23.7491L260.151 24.7564L259.748 25.7804L259.378 26.8202L259.039 27.8754L258.733 28.9454L258.459 30.0291L258.219 31.1262L258.012 32.236L257.838 33.3579L257.698 34.4913L257.592 35.6353L257.52 36.7894L257.482 37.9529L257.478 39.1251L257.509 40.305L257.574 41.4923L257.674 42.6856L257.808 43.8849L257.976 45.0893L258.18 46.2974L258.418 47.5091L258.69 48.7235L258.996 49.9396L259.337 51.1571L259.711 52.3745L260.119 53.5913L260.562 54.8071L261.037 56.0205L261.546 57.2309L262.088 58.4377L262.662 59.64L263.269 60.837L263.908 62.0276L264.578 63.2116L265.28 64.3875L266.013 65.555L266.775 66.7134L267.568 67.8615L268.39 68.9985L269.242 70.1241L270.121 71.2369L271.029 72.3367L271.964 73.4228L272.925 74.4938L273.913 75.5493L274.926 76.5887L275.964 77.6115L277.026 78.6164L278.111 79.6032L279.219 80.5706L280.349 81.5189L281.501 82.4464L282.672 83.3531L283.864 84.2384L285.074 85.1015L286.302 85.9419L287.548 86.7588L288.81 87.5518L290.087 88.3204L291.379 89.0639L292.685 89.7823L294.003 90.4745L295.334 91.1401L296.676 91.7794L298.028 92.3911L299.389 92.975L300.759 93.5311L302.136 94.0584L303.519 94.5572L304.908 95.0268L306.302 95.4673L307.699 95.8779L309.099 96.2587L310.5 96.6096L311.903 96.9297L313.305 97.2197L314.706 97.4788L316.105 97.7071L317.501 97.9048L318.894 98.0714L320.282 98.2069L321.663 98.3114L323.038 98.3845L324.406 98.4268L325.765 98.4378L327.115 98.4177L328.455 98.3668L329.783 98.2853L331.1 98.1727L332.404 98.0295L333.695 97.8559L334.97 97.6518L336.231 97.4178L337.476 97.154L338.704 96.8607L339.915 96.5379L341.107 96.1859L342.28 95.8051L343.434 95.3962L344.567 94.9588L345.679 94.4935L346.77 94.0011L347.838 93.4815L348.883 92.9355L349.905 92.3633L350.902 91.765L351.874 91.1415L352.821 90.4932L353.743 89.8205L354.638 89.1239L355.507 88.4039L356.348 87.6611L357.162 86.8962L357.947 86.1091L358.704 85.3006L359.432 84.4717L360.13 83.6226L360.799 82.7541L361.438 81.8665L362.047 80.9605L362.625 80.0366L363.173 79.0961L363.69 78.1387L364.175 77.1653L364.629 76.1765L365.051 75.1735L365.441 74.1562L365.8 73.1258L366.127 72.0823L366.421 71.0271L366.683 69.9605L366.913 68.8832L367.111 67.7954L367.276 66.6987L367.409 65.5932L367.51 64.4793L367.578 63.3584L367.614 62.2304L367.618 61.0968L367.59 59.9575L367.529 58.8134L367.437 57.6653L367.314 56.5139L367.158 55.3598L366.971 54.2034L366.753 53.0459L366.504 51.8875L366.224 50.729L365.914 49.5709L365.573 48.4141L365.202 47.2591L364.801 46.1066L364.371 44.9572L363.912 43.8115L363.423 42.6705L362.906 41.5342L362.361 40.4035L361.787 39.2789L361.187 38.1614L360.559 37.0512L359.905 35.9487L359.224 34.8553L358.517 33.7709L357.785 32.6963L357.028 31.632L356.246 30.5785L355.439 29.5363L354.61 28.5063L353.757 27.4889L352.881 26.4843L351.983 25.4935L351.063 24.517L350.123 23.5547L349.161 22.6077L348.179 21.6765L347.178 20.7611L346.158 19.8624Z" stroke="url(#paint0_angular_1_48)" stroke-width="1.875" stroke-linecap="round" stroke-linejoin="round"/>
</g>
<path d="M2.5 86C1.11929 86 0 84.8807 0 83.5C0 82.1193 1.11929 81 2.5 81C3.88071 81 5 82.1193 5 83.5C5 84.8807 3.88071 86 2.5 86Z" fill="url(#paint1_linear_1_48)"/>
<path d="M96.25 161C93.4886 161 91.25 158.761 91.25 156C91.25 153.239 93.4886 151 96.25 151C99.0114 151 101.25 153.239 101.25 156C101.25 158.761 99.0114 161 96.25 161Z" fill="url(#paint2_linear_1_48)"/>
<defs>
<radialGradient id="paint0_angular_1_48" cx="0" cy="0" r="1" gradientUnits="userSpaceOnUse" gradientTransform="translate(295 79.8457) rotate(90) scale(78.8457 78.7503)">
<stop offset="0.0993526" stop-color="#FFC876"/>
<stop offset="0.427081" stop-color="#79FFF7"/>
<stop offset="0.718753" stop-color="#9F53FF"/>
<stop offset="1" stop-color="#FF98E2"/>
</radialGradient>
<linearGradient id="paint1_linear_1_48" x1="2.5" y1="81" x2="2.5" y2="86" gradientUnits="userSpaceOnUse">
<stop stop-color="#DD734F"/>
<stop offset="1" stop-color="#1A1A32"/>
</linearGradient>
<linearGradient id="paint2_linear_1_48" x1="96.25" y1="151" x2="96.25" y2="161" gradientUnits="userSpaceOnUse">
<stop stop-color="#B9AEDF"/>
<stop offset="1" stop-color="#1A1A32"/>
</linearGradient>
</defs>
</svg>
