<svg width="49" height="48" viewBox="0 0 49 48" fill="none" xmlns="http://www.w3.org/2000/svg">
<path d="M12.5304 20.633C12.5674 18.9011 12.5979 17.47 12.7995 16.3104L15.4569 17.678C15.3379 17.6359 15.2465 17.6325 15.1641 17.678C14.9906 17.7736 14.9791 18.0132 14.9563 18.4925C14.9255 19.1384 14.9088 19.8872 14.8899 20.7725C14.8654 21.9183 14.8654 22.5109 14.8899 23.6568C14.9292 25.5005 14.9591 26.752 15.1266 27.7152C15.2843 28.6221 15.5474 29.161 15.9974 29.6123C16.4429 30.0587 16.9891 30.3264 17.9266 30.4895C18.9172 30.6618 20.2092 30.6972 22.1035 30.7448C24.3753 30.8018 26.053 30.8018 28.3249 30.7447C30.2192 30.6972 31.5113 30.6618 32.5019 30.4895C33.4393 30.3264 33.9855 30.0587 34.431 29.6123C34.881 29.161 35.1442 28.6221 35.3018 27.7152C35.4693 26.752 35.4992 25.5003 35.5386 23.6567C35.563 22.5109 35.563 21.9183 35.5386 20.7725C35.5196 19.8871 35.5029 19.1382 35.4721 18.4922C35.4492 18.013 35.4377 17.7734 35.2643 17.6777C35.1816 17.6322 35.0901 17.6357 34.9707 17.678L37.6288 16.3104C37.8305 17.47 37.8611 18.9011 37.8979 20.633L37.8998 20.7221C37.925 21.9015 37.925 22.5277 37.8998 23.7071L37.8979 23.7962C37.8611 25.5281 37.8306 26.9592 37.6288 28.1188C37.4141 29.3544 36.9899 30.3891 36.1042 31.2771C35.2138 32.1697 34.1626 32.595 32.9071 32.8134C31.7241 33.0192 30.2564 33.056 28.4726 33.1007L28.3842 33.1029C26.0728 33.1609 24.3556 33.1609 22.0442 33.103L21.9557 33.1007C20.172 33.056 18.7043 33.0192 17.5213 32.8134C16.2658 32.595 15.2146 32.1697 14.3242 31.2771C13.4385 30.3891 13.0144 29.3545 12.7995 28.1188C12.5979 26.9592 12.5674 25.5281 12.5304 23.7962L12.5285 23.7071C12.5034 22.5277 12.5033 21.9015 12.5285 20.7221L12.5304 20.633Z" fill="#F9A876"/>
<path opacity="0.4" d="M22.0454 11.3266C24.3567 11.2686 26.074 11.2686 28.3853 11.3266L28.4738 11.3288C30.2575 11.3735 31.7252 11.4103 32.9082 11.6161C33.3459 11.6922 33.7586 11.7934 34.1484 11.9308C34.252 11.9552 34.3515 11.9934 34.4441 12.044C35.0538 12.2967 35.605 12.6508 36.1054 13.1524C36.9911 14.0404 37.4152 15.0751 37.6301 16.3107L34.9718 17.6782C34.8405 17.7248 34.6755 17.8183 34.4519 17.9449L29.446 20.7813C27.9101 21.6516 26.611 22.2149 25.2151 22.2149C23.8191 22.2149 22.5202 21.6516 20.9843 20.7813L15.9788 17.9452C15.7548 17.8183 15.5896 17.7247 15.4581 17.6782L12.8007 16.3107C13.0155 15.0751 13.4396 14.0404 14.3253 13.1524C15.2157 12.2597 16.267 11.8344 17.5225 11.6161C18.7054 11.4103 20.1731 11.3735 21.9569 11.3288L22.0454 11.3266Z" fill="#F9A876"/>
<g filter="url(#filter0_f_1_538)">
<circle cx="24.4999" cy="24.4999" r="6.5" fill="#F9A876"/>
</g>
<defs>
<filter id="filter0_f_1_538" x="0.399878" y="0.399878" width="48.2" height="48.2" filterUnits="userSpaceOnUse" color-interpolation-filters="sRGB">
<feFlood flood-opacity="0" result="BackgroundImageFix"/>
<feBlend mode="normal" in="SourceGraphic" in2="BackgroundImageFix" result="shape"/>
<feGaussianBlur stdDeviation="8.8" result="effect1_foregroundBlur_1_538"/>
</filter>
</defs>
</svg>
