<svg width="49" height="49" viewBox="0 0 49 49" fill="none" xmlns="http://www.w3.org/2000/svg">
<path fill-rule="evenodd" clip-rule="evenodd" d="M18.4548 22.5876C18.8009 22.2414 19.3621 22.2414 19.7083 22.5876L20.2633 23.1426L20.8184 22.5876C21.1645 22.2414 21.7258 22.2414 22.0719 22.5876C22.4181 22.9337 22.4181 23.4949 22.0719 23.841L21.5168 24.3961L22.0719 24.9512C22.4181 25.2974 22.4181 25.8585 22.0719 26.2047C21.7258 26.5508 21.1645 26.5508 20.8184 26.2047L20.2633 25.6497L19.7083 26.2047C19.3621 26.5508 18.8009 26.5508 18.4548 26.2047C18.1086 25.8585 18.1086 25.2974 18.4548 24.9512L19.0098 24.3961L18.4548 23.841C18.1086 23.4949 18.1086 22.9337 18.4548 22.5876Z" fill="#78B8FA"/>
<path fill-rule="evenodd" clip-rule="evenodd" d="M12.5446 22.5876C12.8908 22.2414 13.452 22.2414 13.7981 22.5876L14.3532 23.1426L14.9082 22.5876C15.2544 22.2414 15.8156 22.2414 16.1618 22.5876C16.5079 22.9337 16.5079 23.4949 16.1618 23.841L15.6067 24.3961L16.1618 24.9512C16.5079 25.2974 16.5079 25.8585 16.1618 26.2047C15.8156 26.5508 15.2544 26.5508 14.9082 26.2047L14.3532 25.6497L13.7981 26.2047C13.452 26.5508 12.8908 26.5508 12.5446 26.2047C12.1985 25.8585 12.1985 25.2974 12.5446 24.9512L13.0997 24.3961L12.5446 23.841C12.1985 23.4949 12.1985 22.9337 12.5446 22.5876Z" fill="#78B8FA"/>
<path fill-rule="evenodd" clip-rule="evenodd" d="M24.363 22.5876C24.7091 22.2414 25.2704 22.2414 25.6165 22.5876L26.1716 23.1426L26.7266 22.5876C27.0728 22.2414 27.634 22.2414 27.9802 22.5876C28.3263 22.9337 28.3263 23.4949 27.9802 23.841L27.4251 24.3961L27.9802 24.9512C28.3263 25.2974 28.3263 25.8585 27.9802 26.2047C27.634 26.5508 27.0728 26.5508 26.7266 26.2047L26.1716 25.6497L25.6165 26.2047C25.2704 26.5508 24.7091 26.5508 24.363 26.2047C24.0168 25.8585 24.0168 25.2974 24.363 24.9512L24.9181 24.3961L24.363 23.841C24.0168 23.4949 24.0168 22.9337 24.363 22.5876Z" fill="#78B8FA"/>
<path fill-rule="evenodd" clip-rule="evenodd" d="M30.2731 22.5876C30.6193 22.2414 31.1805 22.2414 31.5267 22.5876L32.0818 23.1426L32.6368 22.5876C32.9829 22.2414 33.5442 22.2414 33.8903 22.5876C34.2365 22.9337 34.2365 23.4949 33.8903 23.841L33.3352 24.3961L33.8903 24.9512C34.2365 25.2974 34.2365 25.8585 33.8903 26.2047C33.5442 26.5508 32.9829 26.5508 32.6368 26.2047L32.0818 25.6497L31.5267 26.2047C31.1805 26.5508 30.6193 26.5508 30.2731 26.2047C29.927 25.8585 29.927 25.2974 30.2731 24.9512L30.8282 24.3961L30.2731 23.841C29.927 23.4949 29.927 22.9337 30.2731 22.5876Z" fill="#78B8FA"/>
<g filter="url(#filter0_f_1_547)">
<circle cx="24.4998" cy="24.4998" r="6.5" fill="#78B9F9"/>
</g>
<g opacity="0.4">
<path d="M18.2023 11.9107C19.6111 11.1808 21.2265 10.5096 23.2135 10.5096C25.2004 10.5096 26.8165 11.1808 28.226 11.9107C28.6518 12.1312 29.0475 12.3493 29.4257 12.5578C30.351 13.068 31.1713 13.5202 32.0719 13.8074C32.6005 13.976 33.0686 14.1253 33.4007 14.2553C33.7132 14.3778 34.0845 14.5455 34.3481 14.8384C34.5849 15.1014 34.7065 15.3968 34.7871 15.6793C34.8604 15.9357 34.9229 16.283 34.9829 16.6161C35.1984 17.8104 35.3129 18.9955 35.3265 20.1577C35.3303 20.4791 35.3322 20.6399 35.2281 20.7452C35.1239 20.8505 34.9592 20.8505 34.6297 20.8505H11.8014C11.4719 20.8505 11.3072 20.8505 11.2031 20.7452C11.099 20.6399 11.1009 20.4792 11.1046 20.1578C11.1181 18.9956 11.2324 17.8105 11.4478 16.6161C11.5078 16.2831 11.5703 15.9359 11.6435 15.6795C11.7242 15.397 11.8457 15.1017 12.0824 14.8386C12.346 14.5458 12.7173 14.378 13.0298 14.2555C13.3618 14.1254 13.8301 13.976 14.3587 13.8073C15.2587 13.5202 16.0783 13.0681 17.003 12.558C17.381 12.3495 17.7765 12.1313 18.2023 11.9107Z" fill="#78B8FA"/>
<path d="M25.4388 35.4079C24.6709 35.7019 24.1055 35.9185 23.2178 35.9185C22.3302 35.9185 21.7647 35.7019 20.9967 35.4079C17.4947 34.0671 14.9196 31.7826 13.276 28.9392C13.0281 28.5103 12.9042 28.2959 13.0065 28.1186C13.1089 27.9413 13.365 27.9413 13.8773 27.9413H32.5565C33.0688 27.9413 33.3247 27.9413 33.4271 28.1185C33.5294 28.2959 33.4056 28.5103 33.1579 28.9391C31.515 31.7825 28.9407 34.067 25.4388 35.4079Z" fill="#78B8FA"/>
</g>
<defs>
<filter id="filter0_f_1_547" x="0.399847" y="0.399847" width="48.2" height="48.2" filterUnits="userSpaceOnUse" color-interpolation-filters="sRGB">
<feFlood flood-opacity="0" result="BackgroundImageFix"/>
<feBlend mode="normal" in="SourceGraphic" in2="BackgroundImageFix" result="shape"/>
<feGaussianBlur stdDeviation="8.8" result="effect1_foregroundBlur_1_547"/>
</filter>
</defs>
</svg>
