<svg width="49" height="47" viewBox="0 0 49 47" fill="none" xmlns="http://www.w3.org/2000/svg">
<path opacity="0.4" d="M17.9274 16.9011C19.6155 16.8235 21.3298 16.7831 23.2158 16.7831C25.1017 16.7831 26.816 16.8235 28.5042 16.9011C30.9363 17.0129 32.9113 18.8964 33.2323 21.2801C33.4073 22.5806 33.5567 23.947 33.5567 25.3512C33.5567 26.7555 33.4073 28.1219 33.2323 29.4224C32.9113 31.8061 30.9363 33.6896 28.5042 33.8014C26.816 33.879 25.1017 33.9194 23.2158 33.9194C21.3298 33.9194 19.6155 33.879 17.9274 33.8014C15.4951 33.6896 13.5202 31.8061 13.1993 29.4224C13.0242 28.1219 12.8748 26.7555 12.8748 25.3512C12.8748 23.947 13.0242 22.5806 13.1993 21.2801C13.5202 18.8964 15.4951 17.0129 17.9274 16.9011Z" fill="#65F78D"/>
<path fill-rule="evenodd" clip-rule="evenodd" d="M19.078 25.3516C19.078 24.6989 19.6071 24.1698 20.2598 24.1698H20.2704C20.9231 24.1698 21.4522 24.6989 21.4522 25.3516C21.4522 26.0043 20.9231 26.5334 20.2704 26.5334H20.2598C19.6071 26.5334 19.078 26.0043 19.078 25.3516ZM24.9764 25.3516C24.9764 24.6989 25.5055 24.1698 26.1582 24.1698H26.1689C26.8216 24.1698 27.3507 24.6989 27.3507 25.3516C27.3507 26.0043 26.8216 26.5334 26.1689 26.5334H26.1582C25.5055 26.5334 24.9764 26.0043 24.9764 25.3516Z" fill="#65F78D"/>
<path d="M19.0783 15.0096C19.0783 12.7252 20.9302 10.8732 23.2147 10.8732C25.4991 10.8732 27.3511 12.7252 27.3511 15.0096V16.8534C27.7375 16.8672 28.121 16.8828 28.5031 16.9004C28.9226 16.9197 29.3285 16.9917 29.7147 17.1098V15.0096C29.7147 11.4198 26.8046 8.50961 23.2147 8.50961C19.6248 8.50961 16.7147 11.4198 16.7147 15.0096V17.1098C17.1009 16.9917 17.5068 16.9197 17.9263 16.9004C18.3084 16.8828 18.6919 16.8672 19.0783 16.8534V15.0096Z" fill="#65F78D"/>
<g filter="url(#filter0_f_1_580)">
<circle cx="24.4998" cy="24.4998" r="6.5" fill="#95E430"/>
</g>
<defs>
<filter id="filter0_f_1_580" x="0.399847" y="0.399847" width="48.2" height="48.2" filterUnits="userSpaceOnUse" color-interpolation-filters="sRGB">
<feFlood flood-opacity="0" result="BackgroundImageFix"/>
<feBlend mode="normal" in="SourceGraphic" in2="BackgroundImageFix" result="shape"/>
<feGaussianBlur stdDeviation="8.8" result="effect1_foregroundBlur_1_580"/>
</filter>
</defs>
</svg>
