<svg width="49" height="47" viewBox="0 0 49 47" fill="none" xmlns="http://www.w3.org/2000/svg">
<path d="M31.076 24.5671C31.2134 24.6489 31.3833 24.7447 31.5756 24.8532C32.418 25.3284 33.6914 26.0468 34.5638 26.9007C35.1093 27.4348 35.6278 28.1386 35.722 29.0008C35.8222 29.9177 35.4223 30.7781 34.6197 31.5427C33.2353 32.8616 31.5739 33.9186 29.425 33.9186H19.0034C16.8545 33.9186 15.1931 32.8616 13.8087 31.5427C13.0062 30.7781 12.6062 29.9177 12.7064 29.0008C12.8007 28.1386 13.3191 27.4348 13.8647 26.9007C14.7371 26.0468 16.0105 25.3284 16.8529 24.8532C17.0452 24.7448 17.215 24.6489 17.3524 24.5671C21.5527 22.066 26.8758 22.066 31.076 24.5671Z" fill="#4770FF"/>
<path opacity="0.4" d="M18.0096 14.7142C18.0096 11.2875 20.7875 8.50964 24.2142 8.50964C27.6409 8.50964 30.4187 11.2875 30.4187 14.7142C30.4187 18.1409 27.6409 20.9187 24.2142 20.9187C20.7875 20.9187 18.0096 18.1409 18.0096 14.7142Z" fill="#4770FF"/>
<g filter="url(#filter0_f_1_529)">
<circle cx="24.4999" cy="24.4999" r="6.5" fill="#4871FE"/>
</g>
<defs>
<filter id="filter0_f_1_529" x="0.399878" y="0.399878" width="48.2" height="48.2" filterUnits="userSpaceOnUse" color-interpolation-filters="sRGB">
<feFlood flood-opacity="0" result="BackgroundImageFix"/>
<feBlend mode="normal" in="SourceGraphic" in2="BackgroundImageFix" result="shape"/>
<feGaussianBlur stdDeviation="8.8" result="effect1_foregroundBlur_1_529"/>
</filter>
</defs>
</svg>
