<svg width="160" height="160" viewBox="0 0 160 160" fill="none" xmlns="http://www.w3.org/2000/svg">
<g opacity="0.3">
<path d="M122.679 22.4541L122.099 21.9604L121.508 21.4767L120.908 21.0027L120.298 20.5395L119.679 20.0863L119.051 19.6442L118.415 19.2131L117.771 18.7931L117.118 18.3845L116.458 17.9879L115.792 17.6034L115.118 17.2307L114.438 16.8707L113.753 16.5231L113.062 16.1886L112.366 15.8668L111.665 15.5581L110.959 15.2631L110.25 14.9812L109.537 14.7133L108.821 14.4593L108.102 14.2189L107.381 13.9927L106.658 13.7808L105.934 13.5834L105.208 13.4007L104.482 13.2324L103.755 13.0789L103.029 12.9401L102.302 12.8164L101.577 12.7075L100.854 12.6137L100.132 12.5349L99.4117 12.4715L98.6947 12.4233L97.9804 12.3904L97.2697 12.373L96.5628 12.3706L95.8599 12.3837L95.162 12.4122L94.4688 12.4561L93.7813 12.5151L93.0995 12.5899L92.4241 12.6797L91.7554 12.7849L91.0933 12.9053L90.439 13.0407L89.7924 13.1912L89.1539 13.3571L88.5244 13.5378L87.9036 13.7336L87.2918 13.9441L86.6902 14.1693L86.0985 14.409L85.517 14.6631L84.9464 14.9316L84.387 15.2145L83.8393 15.5111L83.3029 15.8222L82.779 16.1467L82.2675 16.4845L81.7691 16.8362L81.2834 17.2009L80.8111 17.5786L80.3525 17.9692L79.908 18.3724L79.478 18.7877L79.0623 19.2154L78.6617 19.6552L78.2763 20.1064L77.9059 20.569L77.5512 21.0429L77.2124 21.5276L76.8895 22.0231L76.5832 22.5289L76.2936 23.0448L76.0204 23.5704L75.764 24.1053L75.525 24.6497L75.3031 25.2024L75.0986 25.7639L74.9115 26.3338L74.7423 26.9113L74.5911 27.4966L74.4577 28.0885L74.3427 28.6879L74.2455 29.2932L74.1667 29.9046L74.106 30.5221L74.0641 31.1449L74.0407 31.7724L74.0357 32.4046L74.0491 33.0411L74.0812 33.6813L74.1319 34.3249L74.2009 34.9719L74.2887 35.6212L74.395 36.2728L74.5197 36.9261L74.6632 37.5811L74.8247 38.2367L75.0044 38.893L75.2025 39.5497L75.4184 40.2064L75.6523 40.862L75.9044 41.5167L76.1742 42.17L76.4612 42.8213L76.7659 43.4705L77.0877 44.1168L77.4265 44.7601L77.7822 45.4L78.1546 46.0355L78.5434 46.667L78.9484 47.2938L79.3694 47.9153L79.8058 48.5311L80.258 49.1411L80.7249 49.7448L81.2069 50.3418L81.7037 50.9314L82.2142 51.5137L82.7391 52.0882L83.2775 52.6544L83.8292 53.2118L84.3937 53.7602L84.9706 54.2995L85.5599 54.8288L86.1612 55.3484L86.7736 55.8572L87.3974 56.3557L88.0316 56.843L88.6762 57.3187L89.3305 57.7829L89.9942 58.2355L90.667 58.6756L91.3484 59.103L92.0379 59.5179L92.7352 59.9195L93.4394 60.3077L94.1507 60.6824L94.8684 61.0434L95.5917 61.3904L96.3205 61.7229L97.0539 62.041L97.7923 62.3443L98.5341 62.633L99.2799 62.9065L100.028 63.1646L100.78 63.4076L101.533 63.6349L102.288 63.8467L103.044 64.0428L103.8 64.2225L104.557 64.3864L105.313 64.5342L106.068 64.6659L106.822 64.7813L107.574 64.8805L108.324 64.9633L109.071 65.0293L109.816 65.0792L110.556 65.1124L111.292 65.1295L112.023 65.1299L112.75 65.1138L113.47 65.0813L114.185 65.0327L114.893 64.9676L115.595 64.8862L116.289 64.7883L116.975 64.6747L117.653 64.5449L118.323 64.3991L118.983 64.2376L119.634 64.0606L120.276 63.8678L120.907 63.6597L121.528 63.4361L122.137 63.1974L122.736 62.944L123.322 62.6755L123.897 62.3929L124.459 62.0956L125.009 61.7842L125.546 61.4591L126.069 61.1199L126.579 60.7672L127.074 60.4012L127.556 60.0224L128.023 59.6309L128.476 59.2267L128.913 58.8103L129.335 58.3819L129.742 57.9418L130.133 57.4906L130.509 57.0281L130.868 56.5544L131.21 56.0707L131.537 55.5766L131.847 55.0728L132.14 54.5593L132.416 54.0364L132.674 53.5048L132.916 52.9648L133.141 52.4164L133.347 51.8599L133.537 51.2961L133.709 50.725L133.863 50.1471L133.999 49.5628L134.118 48.9722L134.218 48.3759L134.301 47.7742L134.366 47.1671L134.413 46.5557L134.442 45.94L134.454 45.3202L134.447 44.697L134.422 44.0706L134.38 43.441L134.32 42.8092L134.242 42.1753L134.147 41.5398L134.034 40.9026L133.903 40.2647L133.756 39.6261L133.59 38.9872L133.408 38.3487L133.209 37.7104L132.993 37.0729L132.76 36.437L132.511 35.8025L132.245 35.17L131.963 34.5398L131.665 33.9123L131.351 33.2878L131.022 32.667L130.677 32.0496L130.316 31.4365L129.941 30.8274L129.551 30.2237L129.146 29.6247L128.727 29.0314L128.294 28.4438L127.847 27.8623L127.387 27.2874L126.913 26.7189L126.426 26.1578L125.926 25.604L125.415 25.058L124.89 24.52L124.354 23.9904L123.807 23.4691L123.248 22.9569L122.679 22.4541Z" fill="#0E0C15"/>
<path d="M115.529 26.8487L115.857 27.1075L116.194 27.3576L116.522 27.6106L116.827 27.8785L117.097 28.1697L117.345 28.4778L117.588 28.7919L117.844 29.1019L118.124 29.4003L118.414 29.6926L118.696 29.9862L118.949 30.2892L119.161 30.6077L119.345 30.9372L119.523 31.272L119.716 31.6052L119.937 31.933L120.171 32.2565L120.395 32.58L120.588 32.9071L120.733 33.2407L120.847 33.5799L120.953 33.9225L121.075 34.2667L121.229 34.6113L121.397 34.9545L121.555 35.2961L121.679 35.635L121.752 35.9712L121.791 36.3071L121.821 36.6446L121.868 36.9872L121.948 37.3355L122.043 37.6858L122.129 38.0327L122.179 38.3709L122.176 38.6971L122.139 39.0165L122.092 39.3366L122.061 39.6638L122.063 40.003L122.082 40.3472L122.091 40.6865L122.066 41.0113L121.988 41.315L121.874 41.6059L121.751 41.8955L121.643 42.1952L121.568 42.5123L121.508 42.8375L121.441 43.1562L121.34 43.4549L121.189 43.7244L121.003 43.9755L120.808 44.2232L120.627 44.4836L120.476 44.7665L120.341 45.0598L120.197 45.3461L120.024 45.6072L119.806 45.8318L119.555 46.0326L119.295 46.2287L119.047 46.4395L118.826 46.6772L118.619 46.9272L118.405 47.1696L118.166 47.3828L117.888 47.5534L117.582 47.6958L117.266 47.8323L116.961 47.9845L116.678 48.1675L116.406 48.3649L116.131 48.5536L115.834 48.7102L115.506 48.8198L115.156 48.8979L114.798 48.9686L114.447 49.0564L114.112 49.1768L113.786 49.3132L113.459 49.4409L113.116 49.5348L112.752 49.5783L112.371 49.5884L111.984 49.5904L111.6 49.6095L111.226 49.6628L110.859 49.7329L110.492 49.7942L110.117 49.8214L109.73 49.7969L109.334 49.7382L108.933 49.6705L108.531 49.6202L108.134 49.6035L107.74 49.6041L107.347 49.5968L106.954 49.5555L106.559 49.464L106.163 49.3383L105.764 49.2036L105.361 49.0849L104.956 48.9991L104.549 48.9304L104.146 48.8543L103.751 48.7464L103.365 48.5908L102.985 48.4028L102.604 48.2057L102.216 48.0237L101.817 47.8722L101.415 47.7364L101.018 47.5946L100.636 47.4243L100.274 47.2108L99.9248 46.9675L99.5769 46.7161L99.2192 46.4774L98.8441 46.2659L98.462 46.0691L98.0869 45.8673L97.733 45.6414L97.4095 45.3783L97.1055 45.0897L96.8045 44.7933L96.491 44.5078L96.1542 44.245L95.8072 43.9946L95.4687 43.7408L95.1573 43.4683L94.8851 43.1663L94.6381 42.8435L94.3964 42.5143L94.1396 42.1929L93.8544 41.8892L93.5564 41.5959L93.2674 41.3009L93.0107 40.9925L92.8001 40.6633L92.6205 40.3191L92.4475 39.9701L92.2575 39.6259L92.0349 39.2934L91.7972 38.9686L91.5693 38.6441L91.3772 38.3126L91.2368 37.9693L91.1309 37.6174L91.033 37.2621L90.9173 36.9084L90.7658 36.5608L90.5975 36.2176L90.4397 35.8767L90.319 35.5354L90.254 35.1915L90.2258 34.8456L90.207 34.4977L90.1695 34.1487L90.0951 33.7994L90.0022 33.4518L89.9194 33.1079L89.8752 32.77L89.8876 32.4392L89.9382 32.1124L89.9985 31.7855L90.0401 31.4547L90.0448 31.1175L90.0307 30.7793L90.026 30.4461L90.0589 30.1246L90.148 29.8196L90.2747 29.5243L90.4115 29.231L90.5308 28.931L90.6136 28.6192L90.6783 28.3032L90.7514 27.9934L90.8597 27.7015L91.0212 27.4333L91.219 27.1809L91.4265 26.9319L91.6179 26.6741L91.7755 26.3992L91.9156 26.1176L92.063 25.8438L92.242 25.5917L92.4696 25.3708L92.7304 25.1704L93.0003 24.9749L93.256 24.7685L93.4816 24.5412L93.6915 24.3049L93.907 24.0766L94.1493 23.8741L94.4339 23.7086L94.747 23.5674L95.0688 23.4324L95.3789 23.2852L95.6638 23.1136L95.9343 22.9312L96.2091 22.7573L96.5055 22.6118L96.8356 22.5072L97.1893 22.4301L97.5503 22.36L97.9029 22.2769L98.2354 22.1676L98.5566 22.0456L98.88 21.9327L99.2186 21.8492L99.5819 21.8093L99.9627 21.7986L100.349 21.7959L100.73 21.7795L101.098 21.7359L101.457 21.6793L101.817 21.6307L102.185 21.6122L102.568 21.638L102.961 21.6937L103.359 21.7577L103.754 21.8086L104.143 21.8321L104.527 21.8425L104.909 21.8603L105.292 21.9075L105.68 21.9977L106.071 22.117L106.465 22.2451L106.86 22.3611L107.256 22.4509L107.65 22.5273L108.039 22.6111L108.424 22.7217L108.802 22.8726L109.177 23.0512L109.553 23.2383L109.934 23.4146L110.321 23.5671L110.71 23.7072L111.093 23.8534L111.464 24.0233L111.819 24.2295L112.164 24.4604L112.508 24.6994L112.859 24.9294L113.224 25.1389L113.593 25.3376L113.956 25.5408L114.3 25.764L114.619 26.0174L114.921 26.292L115.22 26.5735L115.529 26.8487Z" fill="#0E0C15"/>
<path d="M127.937 19.9513L127.107 19.2467L126.263 18.5558L125.405 17.8797L124.533 17.218L123.649 16.5711L122.751 15.9399L121.842 15.3242L120.922 14.7248L119.99 14.1416L119.048 13.5751L118.095 13.0257L117.134 12.4934L116.163 11.9789L115.184 11.4821L114.197 11.0038L113.203 10.5435L112.201 10.1021L111.194 9.67971L110.18 9.27613L109.162 8.89232L108.139 8.52796L107.112 8.18371L106.081 7.85923L105.048 7.55488L104.012 7.27096L102.974 7.00783L101.935 6.76547L100.896 6.54391L99.8558 6.34313L98.8167 6.16379L97.7786 6.00557L96.7422 5.86882L95.7077 5.75384L94.6763 5.66032L93.6482 5.58825L92.6239 5.53831L91.6042 5.50981L90.5895 5.50311L89.5806 5.51853L88.578 5.55574L87.5821 5.61506L86.5936 5.69618L85.6132 5.79909L84.6411 5.92413L83.6784 6.07094L82.7251 6.23921L81.7818 6.42961L80.8496 6.64145L79.9285 6.87508L79.0194 7.13018L78.1228 7.40671L77.2388 7.70471L76.3683 8.02349L75.5122 8.36337L74.6702 8.72438L73.8433 9.10584L73.0321 9.50775L72.2366 9.93011L71.458 10.3729L70.6964 10.8352L69.9522 11.3175L69.2259 11.819L68.5179 12.3399L67.8291 12.8795L67.1597 13.438L66.5097 14.0145L65.8806 14.6095L65.2715 15.2223L64.6839 15.8521L64.1174 16.4994L63.5727 17.1634L63.0505 17.8435L62.5507 18.5401L62.074 19.252L61.6205 19.9794L61.1904 20.7216L60.7845 21.4781L60.4027 22.2487L60.0454 23.0328L59.7129 23.8302L59.4055 24.6401L59.1233 25.4623L58.8668 26.2963L58.6359 27.1416L58.4311 27.9974L58.2521 28.8636L58.0996 29.7398L57.9735 30.6247L57.874 31.5187L57.8012 32.4207L57.7553 33.3301L57.7365 34.2469L57.7442 35.17L57.7795 36.0992L57.8415 37.0334L57.9303 37.9727L58.0466 38.9159L58.1901 39.8629L58.3603 40.8128L58.5574 41.7651L58.7817 42.7194L59.0328 43.6748L59.3103 44.6307L59.6143 45.5864L59.9452 46.5417L60.3018 47.4957L60.685 48.4477L61.0939 49.3973L61.5283 50.3439L61.9882 51.2868L62.4729 52.2251L62.9828 53.1586L63.5174 54.0868L64.0759 55.0082L64.6584 55.9233L65.2648 56.8307L65.8943 57.7301L66.5463 58.621L67.221 59.5029L67.9176 60.3748L68.6356 61.2362L69.375 62.087L70.1349 62.926L70.9149 63.7529L71.7151 64.5675L72.534 65.3686L73.3713 66.1563L74.2271 66.9296L75.1003 67.6882L75.9906 68.4313L76.8973 69.1587L77.8194 69.87L78.7573 70.5645L79.7093 71.2416L80.6757 71.9013L81.6551 72.5432L82.647 73.166L83.6512 73.7701L84.6669 74.355L85.6929 74.9201L86.729 75.4648L87.7745 75.9894L88.8287 76.4932L89.8907 76.9759L90.96 77.4372L92.0359 77.8766L93.1173 78.2939L94.204 78.6891L95.2951 79.0619L96.3895 79.4118L97.4873 79.739L98.5868 80.0427L99.6879 80.3232L100.79 80.58L101.892 80.8133L102.993 81.0228L104.093 81.2085L105.19 81.3701L106.285 81.5078L107.376 81.6211L108.463 81.7106L109.545 81.7753L110.621 81.8162L111.691 81.833L112.753 81.8253L113.809 81.7934L114.855 81.7378L115.893 81.658L116.92 81.5544L117.938 81.4267L118.944 81.2756L119.938 81.1006L120.921 80.9025L121.89 80.6809L122.846 80.4365L123.788 80.169L124.715 79.8791L125.627 79.5667L126.524 79.2322L127.404 78.8755L128.267 78.4974L129.113 78.0978L129.941 77.6775L130.751 77.2364L131.542 76.7745L132.314 76.2928L133.066 75.791L133.799 75.2701L134.51 74.7301L135.201 74.1716L135.871 73.5948L136.519 72.9998L137.145 72.3877L137.748 71.7585L138.329 71.1126L138.887 70.4506L139.422 69.7725L139.933 69.0796L140.421 68.3717L140.884 67.6493L141.324 66.9132L141.739 66.1637L142.129 65.4011L142.495 64.6258L142.835 63.8391L143.151 63.0406L143.441 62.2311L143.706 61.4116L143.945 60.5816L144.159 59.7426L144.348 58.8942L144.51 58.0378L144.647 57.1733L144.759 56.3018L144.844 55.4232L144.904 54.5386L144.939 53.648L144.947 52.7523L144.93 51.8516L144.888 50.9469L144.82 50.0389L144.726 49.1275L144.608 48.2137L144.464 47.2976L144.295 46.3802L144.102 45.4617L143.883 44.5429L143.64 43.6238L143.373 42.7057L143.082 41.7886L142.767 40.8732L142.428 39.9597L142.065 39.049L141.679 38.1413L141.27 37.2376L140.839 36.3379L140.385 35.4426L139.909 34.5529L139.411 33.6687L138.891 32.7905L138.351 31.9189L137.789 31.0544L137.207 30.1977L136.604 29.349L135.982 28.5086L135.34 27.6773L134.679 26.8551L133.999 26.0429L133.301 25.2411L132.586 24.45L131.852 23.67L131.101 22.9014L130.334 22.1452L129.55 21.401L128.751 20.6696L127.937 19.9513Z" fill="#0E0C15"/>
<path d="M131.158 19.8624L130.119 18.9805L129.062 18.1164L127.988 17.2703L126.897 16.4424L125.79 15.6335L124.668 14.8435L123.53 14.0735L122.378 13.3233L121.213 12.5939L120.034 11.885L118.842 11.1978L117.639 10.5318L116.425 9.88787L115.2 9.2664L113.965 8.6674L112.721 8.0912L111.468 7.53845L110.207 7.0095L108.939 6.50435L107.664 6.02334L106.383 5.56646L105.098 5.13473L103.807 4.72746L102.513 4.34566L101.215 3.98935L99.915 3.65883L98.6131 3.35381L97.3101 3.07525L96.0069 2.82251L94.7036 2.59625L93.4017 2.39647L92.1011 2.22351L90.8032 2.07736L89.5083 1.95836L88.2175 1.86618L86.931 1.80115L85.6498 1.76361L84.3747 1.75322L83.106 1.76998L81.845 1.81423L80.5917 1.88596L79.3474 1.98518L78.1129 2.11188L76.8884 2.26575L75.6746 2.44742L74.4726 2.65625L73.2826 2.89223L72.1061 3.15537L70.9429 3.44599L69.7942 3.76342L68.6605 4.10801L67.543 4.4794L66.4412 4.87729L65.3568 5.30165L64.2902 5.7525L63.2417 6.22949L62.2126 6.73229L61.203 7.2609L60.2138 7.81499L59.2454 8.39422L58.2988 8.99859L57.374 9.62741L56.472 10.2807L55.5934 10.9582L54.739 11.6594L53.9087 12.3838L53.1039 13.1316L52.3245 13.9019L51.5713 14.6946L50.8446 15.5088L50.1451 16.3448L49.4733 17.2016L48.8297 18.0792L48.215 18.9768L47.629 19.8939L47.0729 20.8305L46.5467 21.7855L46.0506 22.7582L45.5853 23.7491L45.1509 24.7564L44.7483 25.7804L44.3776 26.8202L44.0391 27.8754L43.733 28.9454L43.4595 30.0291L43.2191 31.1262L43.012 32.236L42.838 33.3579L42.6983 34.4913L42.592 35.6353L42.5199 36.7894L42.482 37.9529L42.4784 39.1251L42.5092 40.305L42.5742 41.4923L42.6738 42.6856L42.8079 43.8849L42.9765 45.0893L43.1799 46.2974L43.4176 47.5091L43.6898 48.7235L43.9961 49.9396L44.3367 51.1571L44.7111 52.3745L45.1194 53.5913L45.5615 54.8071L46.0372 56.0205L46.546 57.2309L47.088 58.4377L47.6622 59.64L48.2689 60.837L48.9078 62.0276L49.5782 63.2116L50.2798 64.3875L51.0126 65.555L51.7755 66.7134L52.5682 67.8615L53.3905 68.9985L54.2419 70.1241L55.1214 71.2369L56.0288 72.3367L56.9637 73.4228L57.9254 74.4938L58.9132 75.5493L59.9262 76.5887L60.964 77.6115L62.0259 78.6164L63.1113 79.6032L64.2195 80.5706L65.3494 81.5189L66.5008 82.4464L67.6724 83.3531L68.8637 84.2384L70.0741 85.1015L71.3023 85.9419L72.5479 86.7588L73.8095 87.5518L75.087 88.3204L76.3789 89.0639L77.6848 89.7823L79.0035 90.4745L80.3342 91.1401L81.676 91.7794L83.0279 92.3911L84.3891 92.975L85.7588 93.5311L87.1358 94.0584L88.5192 94.5572L89.9082 95.0268L91.3017 95.4673L92.6988 95.8779L94.0986 96.2587L95.5004 96.6096L96.9025 96.9297L98.305 97.2197L99.7061 97.4788L101.105 97.7071L102.501 97.9048L103.894 98.0714L105.282 98.2069L106.663 98.3114L108.038 98.3845L109.406 98.4268L110.765 98.4378L112.115 98.4177L113.455 98.3668L114.783 98.2853L116.1 98.1727L117.404 98.0295L118.695 97.8559L119.97 97.6518L121.231 97.4178L122.476 97.154L123.704 96.8607L124.915 96.5379L126.107 96.1859L127.28 95.8051L128.434 95.3962L129.567 94.9588L130.679 94.4935L131.77 94.0011L132.838 93.4815L133.883 92.9355L134.905 92.3633L135.902 91.765L136.874 91.1415L137.821 90.4932L138.743 89.8205L139.638 89.1239L140.507 88.4039L141.348 87.6611L142.162 86.8962L142.947 86.1091L143.704 85.3006L144.432 84.4717L145.13 83.6226L145.799 82.7541L146.438 81.8665L147.047 80.9605L147.625 80.0366L148.173 79.0961L148.69 78.1387L149.175 77.1653L149.629 76.1765L150.051 75.1735L150.441 74.1562L150.8 73.1258L151.127 72.0823L151.421 71.0271L151.683 69.9605L151.913 68.8832L152.111 67.7954L152.276 66.6987L152.409 65.5932L152.51 64.4793L152.578 63.3584L152.614 62.2304L152.618 61.0968L152.59 59.9575L152.529 58.8134L152.437 57.6653L152.314 56.5139L152.158 55.3598L151.971 54.2034L151.753 53.0459L151.504 51.8875L151.224 50.729L150.914 49.5709L150.573 48.4141L150.202 47.2591L149.801 46.1066L149.371 44.9572L148.912 43.8115L148.423 42.6705L147.906 41.5342L147.361 40.4035L146.787 39.2789L146.187 38.1614L145.559 37.0512L144.905 35.9487L144.224 34.8553L143.517 33.7709L142.785 32.6963L142.028 31.632L141.246 30.5785L140.439 29.5363L139.61 28.5063L138.757 27.4889L137.881 26.4843L136.983 25.4935L136.063 24.517L135.123 23.5547L134.161 22.6077L133.179 21.6765L132.178 20.7611L131.158 19.8624Z" fill="#0E0C15"/>
<path d="M132.704 21.1439L131.639 20.206L130.555 19.2859L130.353 19.1149L129.273 18.2317L128.175 17.3668L127.06 16.5208L125.929 15.6942L124.781 14.887L123.619 14.0996L122.441 13.333L121.25 12.5876L120.045 11.8632L118.828 11.1606L117.598 10.4801L116.357 9.82215L115.105 9.18693L113.843 8.57452L112.571 7.98592L111.29 7.42077L110.002 6.88009L108.706 6.36354L108.457 6.26834L107.126 5.76655L105.79 5.2899L104.448 4.83938L103.101 4.41435L101.75 4.01579L100.396 3.64406L99.0394 3.29881L98.5872 3.18952L97.2012 2.86505L95.8141 2.5684L94.4264 2.29923L93.0386 2.05822L91.6522 1.84538L91.0593 1.75788L89.6481 1.56983L88.2392 1.41095L86.8337 1.28157L84.7337 1.13106L83.3118 1.05866L81.8952 1.01676L80.485 1.00469L79.7134 1L78.2861 1.01843L76.8669 1.06771L76.0523 1.11195L74.6187 1.19341L73.1948 1.30604L71.7815 1.44983L70.9064 1.54738L69.4824 1.72537L68.0706 1.93487L67.1628 2.08537L65.7433 2.33007L64.3378 2.60728L63.4022 2.81142L61.992 3.12483L60.5973 3.47076L59.6382 3.72953L58.2421 4.113L56.8634 4.52865L55.886 4.84274L54.5087 5.2966L53.1508 5.78331L52.1596 6.1527L50.806 6.67796L49.4733 7.23574L48.4731 7.66043L47.148 8.25743L46.1565 8.73039L44.8408 9.3666L43.5493 10.0357L42.5571 10.5626L41.278 11.2709L40.3002 11.8447L39.0355 12.5919L37.7976 13.3719L36.8268 13.9974L35.6064 14.8163L34.6558 15.486L33.4544 16.3431L32.2825 17.2324L31.346 17.9511L30.1962 18.8779L29.2852 19.6378L28.1596 20.6022L27.276 21.4013L26.1762 22.4029L25.1092 23.435L24.2494 24.2773L23.211 25.3449L22.3834 26.2232L21.3748 27.3256L20.581 28.2377L19.6039 29.3741L18.6633 30.5396L17.9021 31.4875L16.9954 32.6855L16.2717 33.6626L15.4005 34.8915L14.716 35.8961L13.882 37.1551L13.2381 38.1845L12.4417 39.472L11.6851 40.7856L11.0828 41.8392L10.3658 43.1793L9.80699 44.2526L9.1309 45.6175L8.6167 46.7083L7.98249 48.0964L7.51422 49.2022L6.92292 50.6124L6.37421 52.0443L5.95285 53.1606L5.44805 54.6117L5.07463 55.7369L4.61406 57.2054L4.28859 58.3371L3.87293 59.8207L3.50154 61.323L3.22534 62.4537L2.89951 63.9681L2.67225 65.0991L2.39202 66.6239L2.2137 67.7525L1.97938 69.2861L1.79 70.834L1.66162 71.9492L1.51816 73.5025L1.43904 74.609L1.34117 76.1654L1.2882 77.7331L1.25804 78.8178L1.25 80.3856L1.26776 81.4552L1.3043 83.0206L1.38609 84.5943L1.45011 85.6335L1.57546 87.2019L1.85436 89.7802L2.06687 91.3459L2.22039 92.3254L2.47482 93.8801L2.77248 95.4381L2.96688 96.374L3.30478 97.9175L3.68522 99.4622L3.91751 100.35L4.33618 101.878L4.79708 103.404L5.06458 104.24L5.56135 105.746L6.09967 107.249L6.398 108.029L6.96985 109.508L7.5816 110.983L8.23322 112.452L8.55033 113.152L9.23178 114.593L9.95179 116.026L11.0382 118.066L11.8225 119.46L12.6438 120.843L13.5012 122.214L13.8324 122.742L14.7116 124.079L15.6254 125.403L16.573 126.712L16.8988 127.148L17.8642 128.421L18.8618 129.678L19.8908 130.918L20.9511 132.141L22.0412 133.344L22.3167 133.644L23.4175 134.808L24.5464 135.952L25.7029 137.075L26.8861 138.177L28.0955 139.256L29.3301 140.312L30.5891 141.344L30.7503 141.472L32.0097 142.462L33.2911 143.426L34.5941 144.365L35.9174 145.278L37.2606 146.164L38.6222 147.022L40.0015 147.853L41.3976 148.655L42.8095 149.427L44.2364 150.171L45.6771 150.884L47.1309 151.566L48.5964 152.217L50.0726 152.837L50.265 152.917L51.7785 153.515L53.3006 154.081L54.8311 154.613L56.3684 155.112L57.9113 155.577L59.4592 156.007L61.0109 156.404L61.4084 156.5L62.9896 156.867L64.5724 157.2L66.1555 157.496L67.7384 157.757L69.3195 157.981L69.8599 158.056L71.4638 158.247L73.0644 158.403L74.6596 158.521L75.2827 158.555L76.8964 158.638L78.503 158.683L80.1016 158.691L80.8005 158.68L82.4124 158.65L84.014 158.583L85.6039 158.478L86.3712 158.416L87.9701 158.272L89.5546 158.09L91.1243 157.871L91.9523 157.754L93.526 157.493L95.0823 157.195L95.9438 157.024L97.5005 156.685L99.0374 156.309L99.9277 156.081L101.461 155.664L102.973 155.209L103.887 154.925L105.391 154.428L106.872 153.895L107.804 153.555L109.274 152.98L110.206 152.588L111.663 151.972L113.093 151.319L114.033 150.872L115.447 150.179L116.832 149.451L117.776 148.947L119.141 148.179L120.075 147.627L121.418 146.82L122.73 145.978L123.659 145.373L124.945 144.493L125.859 143.84L127.118 142.923L128.343 141.973L129.244 141.271L130.439 140.285L131.318 139.539L132.482 138.519L133.337 137.73L134.469 136.675L135.563 135.592L136.394 134.759L137.453 133.644L138.256 132.772L139.278 131.627L140.05 130.718L141.034 129.543L141.978 128.342L142.718 127.397L143.622 126.169L144.327 125.191L145.191 123.938L145.859 122.93L146.681 121.653L147.31 120.616L148.09 119.317L148.828 117.996L149.416 116.935L150.111 115.595L150.657 114.51L151.308 113.152L151.812 112.047L152.417 110.673L152.878 109.549L153.439 108.161L153.957 106.756L154.371 105.621L154.844 104.204L155.211 103.056L155.64 101.63L155.96 100.471L156.344 99.0378L156.684 97.5907L156.955 96.4316L157.251 94.9795L157.475 93.8161L157.726 92.3609L157.902 91.1951L158.11 89.7393L158.275 88.2732L158.401 87.1187L158.524 85.6546L158.602 84.5035L158.682 83.043L158.721 81.5748L158.75 80.4432L158.748 78.9814L158.729 77.8595L158.686 76.4057L158.604 74.9466L158.538 73.8518L158.416 72.4038L158.304 71.3244L158.145 69.8888L157.947 68.4504L157.791 67.4059L157.557 65.9823L157.285 64.5581L157.087 63.5525L156.782 62.1453L156.439 60.7384L156.202 59.7758L155.827 58.3887L155.417 57.0033L155.144 56.0872L154.704 54.7239L154.229 53.364L153.922 52.4985L153.421 51.1621L152.885 49.8307L152.548 49.0192L151.988 47.7136L151.395 46.4136L150.416 44.388L149.771 43.123L149.095 41.8656L148.718 41.1942L148.024 39.9671L147.3 38.7486L146.547 37.5399L145.399 35.7774L144.604 34.6109L143.781 33.4558L142.933 32.3128L142.57 31.8378L141.712 30.7283L140.828 29.6315L139.92 28.5481L138.988 27.4788L138.032 26.4243L137.719 26.0824L136.759 25.063L135.777 24.0591L134.773 23.0709L133.749 22.0989L132.704 21.1439Z" fill="#0E0C15"/>
<path d="M68.0706 1.93487L66.6718 2.17624L65.2864 2.44942L63.9161 2.75413L62.5609 3.09033L61.2218 3.45804L59.9001 3.85693L58.5958 4.28733L57.31 4.74856L56.0436 5.24031L54.797 5.76322L53.5715 6.3163L52.3678 6.89954L51.1862 7.51297L50.0278 8.15622L48.8931 8.82896L47.7832 9.53087L46.6985 10.2616L45.6396 11.0208L44.6076 11.8082L43.6026 12.6234L42.6262 13.4661L41.6782 14.336L40.7598 15.2323L39.8715 16.1548L39.0137 17.103L38.1868 18.0768L37.392 19.075L36.6298 20.0974L35.9007 21.1439L35.2052 22.2132L34.5438 23.3053L33.917 24.4195L33.325 25.5548L32.7689 26.7109L32.2487 27.8875L31.765 29.0831L31.3185 30.2979L30.9096 31.5308L30.5382 32.7811L30.2047 34.0481L29.9097 35.3309L29.6536 36.6292L29.436 37.9418L29.2584 39.2682L29.12 40.6073L29.0214 41.9588L28.9631 43.3211L28.9446 44.6941L28.9661 46.0768L29.0284 47.4679L29.1307 48.867L29.2738 50.2728L29.4575 51.685L29.6817 53.1023L29.9466 54.5235L30.2516 55.9484L30.5968 57.3754L30.9827 58.804L31.4084 60.2333L31.874 61.6623L32.3794 63.0896L32.9248 64.5145L33.5091 65.9364L34.1322 67.354L34.7939 68.7665L35.4938 70.1727L36.2312 71.5718L37.0066 72.9629L37.8191 74.3449L38.6678 75.7172L39.5527 77.0781L40.4732 78.4277L41.4282 79.7641L42.4177 81.0872L43.4411 82.3951L44.4973 83.688L45.586 84.9641L46.7066 86.2228L47.858 87.463L49.0399 88.6845L50.251 89.8858L51.4906 91.0664L52.758 92.2255L54.0525 93.3619L55.3732 94.4751L56.719 95.5638L58.0893 96.628L59.4831 97.6665L60.899 98.6788L62.3363 99.6643L63.7941 100.622L65.2713 101.551L66.767 102.451L68.2804 103.322L69.81 104.162L71.3546 104.971L72.9136 105.749L74.486 106.495L76.0701 107.209L77.6654 107.89L79.2703 108.538L80.884 109.151L82.5057 109.731L84.1334 110.276L85.7668 110.786L87.4043 111.262L89.0448 111.701L90.6876 112.105L92.3311 112.473L93.9742 112.805L95.616 113.1L97.2552 113.359L98.8909 113.581L100.522 113.767L102.147 113.916L103.765 114.028L105.376 114.104L106.977 114.142L108.568 114.144L110.148 114.109L111.716 114.038L113.27 113.93L114.81 113.786L116.335 113.606L117.844 113.39L119.336 113.139L120.809 112.852L122.263 112.53L123.698 112.173L125.112 111.782L126.504 111.357L127.873 110.898L129.219 110.405L130.541 109.88L131.838 109.322L133.109 108.732L134.354 108.111L135.571 107.459L136.761 106.776L137.922 106.063L139.054 105.321L140.155 104.55L141.227 103.75L142.268 102.923L143.277 102.069L144.254 101.188L145.198 100.282L146.109 99.3502L146.987 98.3939L147.831 97.4138L148.64 96.4105L149.414 95.3848L150.154 94.3373L150.858 93.269L151.527 92.1803L152.159 91.0721L152.755 89.9448L153.315 88.7994L153.838 87.637L154.324 86.4577L154.773 85.2627L155.185 84.0527L155.559 82.8282L155.896 81.5903L156.195 80.3396L156.458 79.0769L156.682 77.8028L156.869 76.5184L157.018 75.2245L157.13 73.9216L157.204 72.6106L157.241 71.2923L157.241 69.9675L157.203 68.6368L157.129 67.301L157.017 65.9612L156.869 64.6181L156.685 63.2719L156.464 61.9241L156.207 60.5752L155.914 59.2257L155.586 57.8765L155.222 56.5287L154.823 55.1822L154.39 53.8387L153.922 52.4985" fill="#0E0C15"/>
<path d="M41.2786 11.2709L40.0249 12.0117L38.7981 12.7847L37.5984 13.5895L36.4269 14.4255L35.2842 15.2927L34.1713 16.191L33.0893 17.1192L32.0381 18.0775L31.0188 19.0653L30.0323 20.082L29.0789 21.1272L28.1595 22.2005L27.2749 23.3009L26.4258 24.4282L25.6126 25.582L24.8363 26.7612L24.0969 27.9659L23.3956 29.1948L22.7326 30.4474L22.1085 31.7232L21.5239 33.0214L20.9792 34.3414L20.4754 35.6822L20.0125 37.0431L19.5908 38.4238L19.211 39.823L18.8734 41.2399L18.5781 42.6739L18.3261 44.1239L18.1169 45.5894L17.9516 47.0693L17.8303 48.5627L17.7529 50.0687L17.7193 51.5865L17.7304 53.115L17.786 54.6533L17.8863 56.2002L18.0314 57.7552L18.2211 59.3172L18.4561 60.8846L18.7357 62.4574L19.0598 64.0335L19.4289 65.6126L19.8422 67.1938L20.3 68.7753L20.8022 70.3564L21.3485 71.9362L21.9389 73.5136L22.5724 75.0874L23.2495 76.6568L23.9692 78.2202L24.7314 79.7772L25.5355 81.3262L26.3813 82.8661L27.2685 84.3963L28.1964 85.9151L29.1644 87.4221L30.1717 88.9158L31.2179 90.3954L32.3022 91.8599L33.4242 93.3079L34.5833 94.7386L35.7783 96.1511L37.0088 97.5438L38.2738 98.9165L39.5724 100.268L40.9038 101.597L42.2674 102.903L43.6618 104.185L45.0864 105.441L46.5402 106.671L48.0221 107.875L49.5312 109.051L51.0664 110.198L52.6265 111.316L54.2106 112.404L55.8176 113.461L57.4463 114.486L59.0955 115.479L60.7645 116.438L62.4515 117.364L64.1553 118.255L65.8756 119.112L67.6103 119.933L69.3583 120.717L71.1185 121.465L72.89 122.175L74.6709 122.848L76.4606 123.483L78.2576 124.079L80.0603 124.636L81.868 125.155L83.6788 125.633L85.4922 126.072L87.3063 126.47L89.1201 126.829L90.9325 127.146L92.7419 127.423L94.5473 127.66L96.3473 127.856L98.141 128.01L99.9269 128.124L101.704 128.197L103.47 128.229L105.226 128.22L106.969 128.17L108.698 128.08L110.413 127.95L112.111 127.779L113.793 127.568L115.457 127.318L117.101 127.027L118.726 126.698L120.329 126.33L121.909 125.924L123.467 125.479L125.001 124.997L126.509 124.478L127.992 123.921L129.447 123.328L130.875 122.7L132.274 122.036L133.644 121.338L134.984 120.605L136.293 119.839L137.57 119.04L138.815 118.209L140.026 117.346L141.204 116.452L142.347 115.527L143.456 114.573L144.529 113.59L145.567 112.579L146.567 111.54L147.53 110.475L148.456 109.383L149.344 108.266L150.194 107.125L151.005 105.96L151.777 104.773L152.51 103.563L153.202 102.333L153.855 101.082L154.468 99.8108L155.04 98.5213L155.572 97.214L156.063 95.8896L156.513 94.5495L156.922 93.1936L157.29 91.8233L157.616 90.4396L157.902 89.0428L158.146 87.6343L158.349 86.2147L158.511 84.7848L158.632 83.3457L158.712 81.8984L158.751 80.4432" fill="#0E0C15"/>
<path d="M21.3748 27.3256L20.4019 28.458L19.465 29.6188L18.5654 30.8081L17.7032 32.0252L16.8793 33.2691L16.0943 34.5399L15.3488 35.8361L14.6435 37.1575L13.9788 38.5033L13.3553 39.8726L12.7738 41.265L12.2351 42.6796L11.739 44.1152L11.2862 45.5717L10.8775 47.0476L10.5128 48.5422L10.1927 50.055L9.91753 51.5848L9.68791 53.1308L9.50388 54.6918L9.36611 56.2672L9.2746 57.8561L9.22935 59.4574L9.2307 61.07L9.27896 62.6927L9.37415 64.3248L9.51628 65.9656L9.706 67.6131L9.94267 69.267L10.2266 70.9262L10.5577 72.5892L10.9359 74.2551L11.3606 75.9231L11.8325 77.5917L12.3511 79.26L12.9162 80.9266L13.5276 82.5906L14.1849 84.2508L14.8879 85.9064L15.6357 87.5555L16.4288 89.1977L17.2661 90.8315L18.1474 92.4559L19.0722 94.0695L20.0402 95.6714L21.0505 97.2606L22.1027 98.8357L23.1958 100.396L24.3295 101.94L25.5027 103.466L26.7151 104.974L27.9657 106.463L29.2539 107.931L30.5786 109.377L31.9389 110.801L33.334 112.201L34.7629 113.576L36.2247 114.926L37.7187 116.249L39.2432 117.544L40.7979 118.811L42.3814 120.049L43.9923 121.255L45.6298 122.431L47.2927 123.575L48.9801 124.686L50.6903 125.763L52.4226 126.806L54.1754 127.813L55.9476 128.785L57.7379 129.72L59.5453 130.618L61.3681 131.478L63.2054 132.299L65.0553 133.082L66.9174 133.825L68.7898 134.529L70.671 135.191L72.5601 135.813L74.4557 136.394L76.3563 136.933L78.2606 137.43L80.1672 137.885L82.0748 138.297L83.9824 138.667L85.888 138.993L87.7913 139.277L89.6899 139.518L91.5831 139.715L93.4696 139.869L95.3477 139.98L97.2165 140.047L99.0748 140.071L100.921 140.052L102.754 139.99L104.573 139.885L106.377 139.738L108.163 139.548L109.932 139.316L111.681 139.041L113.411 138.726L115.119 138.368L116.805 137.97L118.467 137.531L120.105 137.052L121.718 136.534L123.304 135.976L124.863 135.38L126.393 134.745L127.894 134.072L129.365 133.363L130.805 132.617L132.214 131.835L133.589 131.018L134.932 130.166L136.241 129.281L137.514 128.362L138.752 127.411L139.954 126.427L141.119 125.413L142.247 124.369L143.337 123.295L144.389 122.192L145.402 121.062L146.375 119.904L147.308 118.719L148.201 117.51L149.053 116.276L149.865 115.018L150.635 113.737L151.363 112.435L152.05 111.111L152.694 109.767L153.295 108.403L153.854 107.021L154.371 105.621" fill="#0E0C15"/>
<path d="M7.98214 48.0963L7.39018 49.5079L6.84112 50.9412L6.33497 52.3963L5.87274 53.8718L5.45441 55.3675L5.08065 56.8816L4.75148 58.4141L4.4679 59.9634L4.22992 61.5292L4.03818 63.11L3.89269 64.7055L3.79381 66.3142L3.74152 67.9349L3.73651 69.5673L3.77841 71.2098L3.86757 72.8616L4.00432 74.5219L4.18869 76.1892L4.42064 77.8628L4.70021 79.5412L5.02735 81.2235L5.40177 82.9089L5.82345 84.5957L6.29241 86.2831L6.80861 87.9701L7.37142 89.6555L7.98114 91.3379L8.63747 93.0162L9.33937 94.6895L10.0869 96.3565L10.88 98.0161L11.7176 99.6673L12.5999 101.308L13.526 102.939L14.4958 104.557L15.5081 106.162L16.5629 107.753L17.6587 109.329L18.7957 110.887L19.9729 112.429L21.1894 113.951L22.4447 115.454L23.7379 116.935L25.068 118.395L26.4339 119.831L27.8354 121.243L29.2711 122.631L30.7399 123.992L32.241 125.326L33.7735 126.632L35.3362 127.908L36.9281 129.155L38.5481 130.371L40.1946 131.555L41.8672 132.707L43.5644 133.825L45.2846 134.91L47.0273 135.958L48.7911 136.972L50.5744 137.949L52.3765 138.889L54.1952 139.791L56.0301 140.655L57.8794 141.48L59.7421 142.265L61.6169 143.01L63.5021 143.715L65.397 144.379L67.2992 145.001L69.2085 145.581L71.1229 146.12L73.0412 146.616L74.9619 147.069L76.884 147.479L78.806 147.846L80.7264 148.169L82.6444 148.449L84.5577 148.685L86.466 148.877L88.3673 149.026L90.2608 149.13L92.145 149.191L94.0181 149.208L95.8798 149.181L97.7284 149.111L99.5626 148.998L101.381 148.841L103.183 148.642L104.967 148.399L106.732 148.115L108.477 147.788L110.2 147.419L111.901 147.009L113.579 146.559L115.232 146.067L116.859 145.535L118.46 144.964L120.034 144.354L121.579 143.705L123.094 143.018L124.58 142.294L126.034 141.533L127.457 140.736L128.847 139.903L130.203 139.035L131.525 138.133L132.812 137.198L134.063 136.23L135.278 135.229L136.456 134.198L137.597 133.136L138.7 132.044L139.763 130.924L140.788 129.775L141.773 128.599L142.717 127.397" fill="#0E0C15"/>
<path d="M123.659 145.373L122.34 146.219L120.988 147.032L119.605 147.81L118.191 148.553L116.748 149.261L115.276 149.932L113.775 150.566L112.247 151.163L110.693 151.721L109.113 152.242L107.509 152.723L105.881 153.165L104.231 153.568L102.56 153.93L100.868 154.252L99.1568 154.533L97.4275 154.773L95.6811 154.971L93.9186 155.127L92.1417 155.242L90.3507 155.315L88.5477 155.345L86.7336 155.334L84.9091 155.28L83.0759 155.183L81.2353 155.043L79.3884 154.862L77.5364 154.637L75.6807 154.371L73.8227 154.062L71.9633 153.711L70.104 153.318L68.2463 152.884L66.3909 152.407L64.5396 151.89L62.694 151.332L60.8544 150.733L59.0229 150.094L57.2007 149.415L55.3887 148.697L53.5886 147.94L51.8014 147.144L50.0285 146.311L48.271 145.44L46.5303 144.533L44.8074 143.59L43.1039 142.611L41.4205 141.598L39.7589 140.55L38.1201 139.47L36.5051 138.356L34.9149 137.211L33.3509 136.036L31.814 134.83L30.3056 133.595L28.826 132.332L27.3773 131.041L25.9594 129.724L24.574 128.382L23.2218 127.015L21.9035 125.624L20.62 124.211L19.3724 122.776L18.1613 121.321L16.9878 119.846L15.8524 118.352L14.7557 116.842L13.6988 115.315L12.6818 113.773L11.7053 112.217L10.7704 110.647L9.87781 109.066L9.02741 107.474L8.22025 105.873L7.45598 104.263L6.73598 102.645L6.05988 101.021L5.42802 99.3917L4.84109 97.7583L4.2994 96.1218L3.80298 94.4837L3.35212 92.8446L2.9472 91.2058L2.58788 89.5684L2.27412 87.9332L2.00664 86.3018L1.78507 84.6748L1.60943 83.0537L1.48002 81.4391L1.39622 79.8321L1.35868 78.2342L1.36639 76.646L1.41969 75.0682L1.51816 73.5025" fill="#0E0C15"/>
<path d="M4.79708 103.404L5.30023 104.928L5.84493 106.449L6.4312 107.966L7.05838 109.478L7.72642 110.983L8.43504 112.481L9.18388 113.971L9.97227 115.452L10.7999 116.922L11.6667 118.381L12.5714 119.828L13.514 121.261L14.4938 122.679L15.5098 124.083L16.562 125.47L17.6494 126.84L18.7713 128.191L19.9274 129.523L21.1163 130.835L22.3375 132.125L23.5904 133.394L24.8736 134.64L26.1869 135.862L27.5291 137.059L28.8994 138.23L30.2968 139.376L31.7204 140.494L33.1692 141.583L34.642 142.645L36.138 143.677L37.6561 144.678L39.1957 145.649L40.7551 146.588L42.3332 147.494L43.9298 148.368L45.5424 149.208L47.1711 150.014L48.814 150.786L50.4702 151.522L52.1388 152.223L53.8185 152.887L55.5076 153.515L57.2057 154.107L58.9112 154.66L60.6231 155.176L62.34 155.655L64.0609 156.095L65.7842 156.496L67.5094 156.859L69.2347 157.182L70.9593 157.467L72.6819 157.712L74.4015 157.918L76.1164 158.085L77.8259 158.212L79.5287 158.3L81.2238 158.348L82.9099 158.357L84.5856 158.326L86.2505 158.256L87.903 158.147L89.5422 158L91.1669 157.813L92.7762 157.588L94.3687 157.325L95.9438 157.024" fill="#0E0C15"/>
<path d="M68.0706 1.93487L69.4824 1.72537L70.9064 1.54738L71.7815 1.44983L73.1948 1.30604L74.6187 1.19341L76.0523 1.11195L76.8669 1.06771L78.2861 1.01843L79.7134 1L80.485 1.00469L81.8952 1.01676L83.3118 1.05866L84.7337 1.13106L86.8337 1.28157L88.2392 1.41095L89.6481 1.56983L91.0593 1.75788L91.6522 1.84538L93.0386 2.05822L94.4264 2.29923L95.8141 2.5684L97.2012 2.86505L98.5872 3.18952L99.0394 3.29881L100.396 3.64406L101.75 4.01579L103.101 4.41435L104.448 4.83938L105.79 5.2899L107.126 5.76655L108.457 6.26834L108.706 6.36354L110.002 6.88009L111.29 7.42077L112.571 7.98592L113.843 8.57452L115.105 9.18693L116.357 9.82215L117.598 10.4801L118.828 11.1606L120.045 11.8632L121.25 12.5876L122.441 13.333L123.619 14.0996L124.781 14.887L125.929 15.6942L127.06 16.5208L128.175 17.3668L129.273 18.2317L130.353 19.1149L130.555 19.2859L131.639 20.206L132.704 21.1439L133.749 22.0989L134.773 23.0709L135.777 24.0591L136.759 25.063L137.719 26.0824L138.032 26.4243L138.988 27.4788L139.92 28.5481L140.828 29.6315L141.712 30.7283L142.57 31.8378L142.933 32.3128L143.781 33.4558L144.604 34.6109L145.399 35.7774L146.547 37.5399L147.3 38.7486L148.024 39.9671L148.718 41.1942L149.095 41.8656L149.771 43.123L150.416 44.388L151.395 46.4136L151.988 47.7136L152.548 49.0192L152.885 49.8307L153.421 51.1621L153.922 52.4985M68.0706 1.93487L67.1628 2.08537L65.7433 2.33007L64.3378 2.60728L63.4022 2.81142L61.992 3.12483L60.5973 3.47076L59.6382 3.72953L58.2421 4.113L56.8634 4.52865L55.886 4.84274L54.5087 5.2966L53.1508 5.78331L52.1596 6.1527L50.806 6.67796L49.4733 7.23574L48.4731 7.66043L47.148 8.25743L46.1565 8.73039L44.8408 9.3666L43.5493 10.0357L42.5571 10.5626L41.278 11.2709L40.3002 11.8447L39.0355 12.5919L37.7976 13.3719L36.8268 13.9974L35.6064 14.8163L34.6558 15.486L33.4544 16.3431L32.2825 17.2324L31.346 17.9511L30.1962 18.8779L29.2852 19.6378L28.1596 20.6022L27.276 21.4013L26.1762 22.4029L25.1092 23.435L24.2494 24.2773L23.211 25.3449L22.3834 26.2232L21.3748 27.3256M68.0706 1.93487L66.6718 2.17624L65.2864 2.44942L63.9161 2.75413L62.5609 3.09033L61.2218 3.45804L59.9001 3.85693L58.5958 4.28733L57.31 4.74856L56.0436 5.24031L54.797 5.76322L53.5715 6.3163L52.3678 6.89954L51.1862 7.51297L50.0278 8.15622L48.8931 8.82896L47.7832 9.53087L46.6985 10.2616L45.6396 11.0208L44.6076 11.8082L43.6026 12.6234L42.6262 13.4661L41.6782 14.336L40.7598 15.2323L39.8715 16.1548L39.0137 17.103L38.1868 18.0768L37.392 19.075L36.6298 20.0974L35.9007 21.1439L35.2052 22.2132L34.5438 23.3053L33.917 24.4195L33.325 25.5548L32.7689 26.7109L32.2487 27.8875L31.765 29.0831L31.3185 30.2979L30.9096 31.5308L30.5382 32.7811L30.2047 34.0481L29.9097 35.3309L29.6536 36.6292L29.436 37.9418L29.2584 39.2682L29.12 40.6073L29.0214 41.9588L28.9631 43.3211L28.9446 44.6941L28.9661 46.0768L29.0284 47.4679L29.1307 48.867L29.2738 50.2728L29.4575 51.685L29.6817 53.1023L29.9466 54.5235L30.2516 55.9484L30.5968 57.3754L30.9827 58.804L31.4084 60.2333L31.874 61.6623L32.3794 63.0896L32.9248 64.5145L33.5091 65.9364L34.1322 67.354L34.7939 68.7665L35.4938 70.1727L36.2312 71.5718L37.0066 72.9629L37.8191 74.3449L38.6678 75.7172L39.5527 77.0781L40.4732 78.4277L41.4282 79.7641L42.4177 81.0872L43.4411 82.3951L44.4973 83.688L45.586 84.9641L46.7066 86.2228L47.858 87.463L49.0399 88.6845L50.251 89.8858L51.4906 91.0664L52.758 92.2255L54.0525 93.3619L55.3732 94.4751L56.719 95.5638L58.0893 96.628L59.4831 97.6665L60.899 98.6788L62.3363 99.6643L63.7941 100.622L65.2713 101.551L66.767 102.451L68.2804 103.322L69.81 104.162L71.3546 104.971L72.9136 105.749L74.486 106.495L76.0701 107.209L77.6654 107.89L79.2703 108.538L80.884 109.151L82.5057 109.731L84.1334 110.276L85.7668 110.786L87.4043 111.262L89.0448 111.701L90.6876 112.105L92.3311 112.473L93.9742 112.805L95.616 113.1L97.2552 113.359L98.8909 113.581L100.522 113.767L102.147 113.916L103.765 114.028L105.376 114.104L106.977 114.142L108.568 114.144L110.148 114.109L111.716 114.038L113.27 113.93L114.81 113.786L116.335 113.606L117.844 113.39L119.336 113.139L120.809 112.852L122.263 112.53L123.698 112.173L125.112 111.782L126.504 111.357L127.873 110.898L129.219 110.405L130.541 109.88L131.838 109.322L133.109 108.732L134.354 108.111L135.571 107.459L136.761 106.776L137.922 106.063L139.054 105.321L140.155 104.55L141.227 103.75L142.268 102.923L143.277 102.069L144.254 101.188L145.198 100.282L146.109 99.3502L146.987 98.3939L147.831 97.4138L148.64 96.4105L149.414 95.3848L150.154 94.3373L150.858 93.269L151.527 92.1803L152.159 91.0721L152.755 89.9448L153.315 88.7994L153.838 87.637L154.324 86.4577L154.773 85.2627L155.185 84.0527L155.559 82.8282L155.896 81.5903L156.195 80.3396L156.458 79.0769L156.682 77.8028L156.869 76.5184L157.018 75.2245L157.13 73.9216L157.204 72.6106L157.241 71.2923L157.241 69.9675L157.203 68.6368L157.129 67.301L157.017 65.9612L156.869 64.6181L156.685 63.2719L156.464 61.9241L156.207 60.5752L155.914 59.2257L155.586 57.8765L155.222 56.5287L154.823 55.1822L154.39 53.8387L153.922 52.4985M21.3748 27.3256L20.581 28.2377L19.6039 29.3741L18.6633 30.5396L17.9021 31.4875L16.9954 32.6855L16.2717 33.6626L15.4005 34.8915L14.716 35.8961L13.882 37.1551L13.2381 38.1845L12.4417 39.472L11.6851 40.7856L11.0828 41.8392L10.3658 43.1793L9.80699 44.2526L9.1309 45.6175L8.6167 46.7083L7.98249 48.0964L7.51422 49.2022L6.92292 50.6124L6.37421 52.0443L5.95285 53.1606L5.44805 54.6117L5.07463 55.7369L4.61406 57.2054L4.28859 58.3371L3.87293 59.8207L3.50154 61.323L3.22534 62.4537L2.89951 63.9681L2.67225 65.0991L2.39202 66.6239L2.2137 67.7525L1.97938 69.2861L1.79 70.834L1.66162 71.9492L1.51816 73.5025M21.3748 27.3256L20.4019 28.458L19.465 29.6188L18.5654 30.8081L17.7032 32.0252L16.8793 33.2691L16.0943 34.5399L15.3488 35.8361L14.6435 37.1575L13.9788 38.5033L13.3553 39.8726L12.7738 41.265L12.2351 42.6796L11.739 44.1152L11.2862 45.5717L10.8775 47.0476L10.5128 48.5422L10.1927 50.055L9.91753 51.5848L9.68791 53.1308L9.50388 54.6918L9.36611 56.2672L9.2746 57.8561L9.22935 59.4574L9.2307 61.07L9.27896 62.6927L9.37415 64.3248L9.51628 65.9656L9.706 67.6131L9.94267 69.267L10.2266 70.9262L10.5577 72.5892L10.9359 74.2551L11.3606 75.9231L11.8325 77.5917L12.3511 79.26L12.9162 80.9266L13.5276 82.5906L14.1849 84.2508L14.8879 85.9064L15.6357 87.5555L16.4288 89.1977L17.2661 90.8315L18.1474 92.4559L19.0722 94.0695L20.0402 95.6714L21.0505 97.2606L22.1027 98.8357L23.1958 100.396L24.3295 101.94L25.5027 103.466L26.7151 104.974L27.9657 106.463L29.2539 107.931L30.5786 109.377L31.9389 110.801L33.334 112.201L34.7629 113.576L36.2247 114.926L37.7187 116.249L39.2432 117.544L40.7979 118.811L42.3814 120.049L43.9923 121.255L45.6298 122.431L47.2927 123.575L48.9801 124.686L50.6903 125.763L52.4226 126.806L54.1754 127.813L55.9476 128.785L57.7379 129.72L59.5453 130.618L61.3681 131.478L63.2054 132.299L65.0553 133.082L66.9174 133.825L68.7898 134.529L70.671 135.191L72.5601 135.813L74.4557 136.394L76.3563 136.933L78.2606 137.43L80.1672 137.885L82.0748 138.297L83.9824 138.667L85.888 138.993L87.7913 139.277L89.6899 139.518L91.5831 139.715L93.4696 139.869L95.3477 139.98L97.2165 140.047L99.0748 140.071L100.921 140.052L102.754 139.99L104.573 139.885L106.377 139.738L108.163 139.548L109.932 139.316L111.681 139.041L113.411 138.726L115.119 138.368L116.805 137.97L118.467 137.531L120.105 137.052L121.718 136.534L123.304 135.976L124.863 135.38L126.393 134.745L127.894 134.072L129.365 133.363L130.805 132.617L132.214 131.835L133.589 131.018L134.932 130.166L136.241 129.281L137.514 128.362L138.752 127.411L139.954 126.427L141.119 125.413L142.247 124.369L143.337 123.295L144.389 122.192L145.402 121.062L146.375 119.904L147.308 118.719L148.201 117.51L149.053 116.276L149.865 115.018L150.635 113.737L151.363 112.435L152.05 111.111L152.694 109.767L153.295 108.403L153.854 107.021L154.371 105.621M1.51816 73.5025L1.43904 74.609L1.34117 76.1654L1.2882 77.7331L1.25804 78.8178L1.25 80.3856L1.26776 81.4552L1.3043 83.0206L1.38609 84.5943L1.45011 85.6335L1.57546 87.2019L1.85436 89.7802L2.06687 91.3459L2.22039 92.3254L2.47482 93.8801L2.77248 95.4381L2.96688 96.374L3.30478 97.9175L3.68522 99.4622L3.91751 100.35L4.33618 101.878L4.79708 103.404M1.51816 73.5025L1.41969 75.0682L1.36639 76.646L1.35868 78.2342L1.39622 79.8321L1.48002 81.4391L1.60943 83.0537L1.78507 84.6748L2.00664 86.3018L2.27412 87.9332L2.58788 89.5684L2.9472 91.2058L3.35212 92.8446L3.80298 94.4837L4.2994 96.1218L4.84109 97.7583L5.42802 99.3917L6.05988 101.021L6.73598 102.645L7.45598 104.263L8.22025 105.873L9.02741 107.474L9.87781 109.066L10.7704 110.647L11.7053 112.217L12.6818 113.773L13.6988 115.315L14.7557 116.842L15.8524 118.352L16.9878 119.846L18.1613 121.321L19.3724 122.776L20.62 124.211L21.9035 125.624L23.2218 127.015L24.574 128.382L25.9594 129.724L27.3773 131.041L28.826 132.332L30.3056 133.595L31.814 134.83L33.3509 136.036L34.9149 137.211L36.5051 138.356L38.1201 139.47L39.7589 140.55L41.4205 141.598L43.1039 142.611L44.8074 143.59L46.5303 144.533L48.271 145.44L50.0285 146.311L51.8014 147.144L53.5886 147.94L55.3887 148.697L57.2007 149.415L59.0229 150.094L60.8544 150.733L62.694 151.332L64.5396 151.89L66.3909 152.407L68.2463 152.884L70.104 153.318L71.9633 153.711L73.8227 154.062L75.6807 154.371L77.5364 154.637L79.3884 154.862L81.2353 155.043L83.0759 155.183L84.9091 155.28L86.7336 155.334L88.5477 155.345L90.3507 155.315L92.1417 155.242L93.9186 155.127L95.6811 154.971L97.4275 154.773L99.1568 154.533L100.868 154.252L102.56 153.93L104.231 153.568L105.881 153.165L107.509 152.723L109.113 152.242L110.693 151.721L112.247 151.163L113.775 150.566L115.276 149.932L116.748 149.261L118.191 148.553L119.605 147.81L120.988 147.032L122.34 146.219L123.659 145.373M4.79708 103.404L5.06458 104.24L5.56135 105.746L6.09967 107.249L6.398 108.029L6.96985 109.508L7.5816 110.983L8.23322 112.452L8.55033 113.152L9.23178 114.593L9.95179 116.026L11.0382 118.066L11.8225 119.46L12.6438 120.843L13.5012 122.214L13.8324 122.742L14.7116 124.079L15.6254 125.403L16.573 126.712L16.8988 127.148L17.8642 128.421L18.8618 129.678L19.8908 130.918L20.9511 132.141L22.0412 133.344L22.3167 133.644L23.4175 134.808L24.5464 135.952L25.7029 137.075L26.8861 138.177L28.0955 139.256L29.3301 140.312L30.5891 141.344L30.7503 141.472L32.0097 142.462L33.2911 143.426L34.5941 144.365L35.9174 145.278L37.2606 146.164L38.6222 147.022L40.0015 147.853L41.3976 148.655L42.8095 149.427L44.2364 150.171L45.6771 150.884L47.1309 151.566L48.5964 152.217L50.0726 152.837L50.265 152.917L51.7785 153.515L53.3006 154.081L54.8311 154.613L56.3684 155.112L57.9113 155.577L59.4592 156.007L61.0109 156.404L61.4084 156.5L62.9896 156.867L64.5724 157.2L66.1555 157.496L67.7384 157.757L69.3195 157.981L69.8599 158.056L71.4638 158.247L73.0644 158.403L74.6596 158.521L75.2827 158.555L76.8964 158.638L78.503 158.683L80.1016 158.691L80.8005 158.68L82.4124 158.65L84.014 158.583L85.6039 158.478L86.3712 158.416L87.9701 158.272L89.5546 158.09L91.1243 157.871L91.9523 157.754L93.526 157.493L95.0823 157.195L95.9438 157.024M4.79708 103.404L5.30023 104.928L5.84493 106.449L6.4312 107.966L7.05838 109.478L7.72642 110.983L8.43504 112.481L9.18388 113.971L9.97227 115.452L10.7999 116.922L11.6667 118.381L12.5714 119.828L13.514 121.261L14.4938 122.679L15.5098 124.083L16.562 125.47L17.6494 126.84L18.7713 128.191L19.9274 129.523L21.1163 130.835L22.3375 132.125L23.5904 133.394L24.8736 134.64L26.1869 135.862L27.5291 137.059L28.8994 138.23L30.2968 139.376L31.7204 140.494L33.1692 141.583L34.642 142.645L36.138 143.677L37.6561 144.678L39.1957 145.649L40.7551 146.588L42.3332 147.494L43.9298 148.368L45.5424 149.208L47.1711 150.014L48.814 150.786L50.4702 151.522L52.1388 152.223L53.8185 152.887L55.5076 153.515L57.2057 154.107L58.9112 154.66L60.6231 155.176L62.34 155.655L64.0609 156.095L65.7842 156.496L67.5094 156.859L69.2347 157.182L70.9593 157.467L72.6819 157.712L74.4015 157.918L76.1164 158.085L77.8259 158.212L79.5287 158.3L81.2238 158.348L82.9099 158.357L84.5856 158.326L86.2505 158.256L87.903 158.147L89.5422 158L91.1669 157.813L92.7762 157.588L94.3687 157.325L95.9438 157.024M95.9438 157.024L97.5005 156.685L99.0374 156.309L99.9277 156.081L101.461 155.664L102.973 155.209L103.887 154.925L105.391 154.428L106.872 153.895L107.804 153.555L109.274 152.98L110.206 152.588L111.663 151.972L113.093 151.319L114.033 150.872L115.447 150.179L116.832 149.451L117.776 148.947L119.141 148.179L120.075 147.627L121.418 146.82L122.73 145.978L123.659 145.373M123.659 145.373L124.945 144.493L125.859 143.84L127.118 142.923L128.343 141.973L129.244 141.271L130.439 140.285L131.318 139.539L132.482 138.519L133.337 137.73L134.469 136.675L135.563 135.592L136.394 134.759L137.453 133.644L138.256 132.772L139.278 131.627L140.05 130.718L141.034 129.543L141.978 128.342L142.718 127.397L143.622 126.169L144.327 125.191L145.191 123.938L145.859 122.93L146.681 121.653L147.31 120.616L148.09 119.317L148.828 117.996L149.416 116.935L150.111 115.595L150.657 114.51L151.308 113.152L151.812 112.047L152.417 110.673L152.878 109.549L153.439 108.161L153.957 106.756L154.371 105.621M154.371 105.621L154.844 104.204L155.211 103.056L155.64 101.63L155.96 100.471L156.344 99.0378L156.684 97.5907L156.955 96.4316L157.251 94.9795L157.475 93.8161L157.726 92.3609L157.902 91.1951L158.11 89.7393L158.275 88.2732L158.401 87.1187L158.524 85.6546L158.602 84.5035L158.682 83.043L158.721 81.5748L158.75 80.4432L158.748 78.9814L158.729 77.8595L158.686 76.4057L158.604 74.9466L158.538 73.8518L158.416 72.4038L158.304 71.3244L158.145 69.8888L157.947 68.4504L157.791 67.4059L157.557 65.9823L157.285 64.5581L157.087 63.5525L156.782 62.1453L156.439 60.7384L156.202 59.7758L155.827 58.3887L155.417 57.0033L155.144 56.0872L154.704 54.7239L154.229 53.364L153.922 52.4985M41.2786 11.2709L40.0249 12.0117L38.7981 12.7847L37.5984 13.5895L36.4269 14.4255L35.2842 15.2927L34.1713 16.191L33.0893 17.1192L32.0381 18.0775L31.0188 19.0653L30.0323 20.082L29.0789 21.1272L28.1595 22.2005L27.2749 23.3009L26.4258 24.4282L25.6126 25.582L24.8363 26.7612L24.0969 27.9659L23.3956 29.1948L22.7326 30.4474L22.1085 31.7232L21.5239 33.0214L20.9792 34.3414L20.4754 35.6822L20.0125 37.0431L19.5908 38.4238L19.211 39.823L18.8734 41.2399L18.5781 42.6739L18.3261 44.1239L18.1169 45.5894L17.9516 47.0693L17.8303 48.5627L17.7529 50.0687L17.7193 51.5865L17.7304 53.115L17.786 54.6533L17.8863 56.2002L18.0314 57.7552L18.2211 59.3172L18.4561 60.8846L18.7357 62.4574L19.0598 64.0335L19.4289 65.6126L19.8422 67.1938L20.3 68.7753L20.8022 70.3564L21.3485 71.9362L21.9389 73.5136L22.5724 75.0874L23.2495 76.6568L23.9692 78.2202L24.7314 79.7772L25.5355 81.3262L26.3813 82.8661L27.2685 84.3963L28.1964 85.9151L29.1644 87.4221L30.1717 88.9158L31.2179 90.3954L32.3022 91.8599L33.4242 93.3079L34.5833 94.7386L35.7783 96.1511L37.0088 97.5438L38.2738 98.9165L39.5724 100.268L40.9038 101.597L42.2674 102.903L43.6618 104.185L45.0864 105.441L46.5402 106.671L48.0221 107.875L49.5312 109.051L51.0664 110.198L52.6265 111.316L54.2106 112.404L55.8176 113.461L57.4463 114.486L59.0955 115.479L60.7645 116.438L62.4515 117.364L64.1553 118.255L65.8756 119.112L67.6103 119.933L69.3583 120.717L71.1185 121.465L72.89 122.175L74.6709 122.848L76.4606 123.483L78.2576 124.079L80.0603 124.636L81.868 125.155L83.6788 125.633L85.4922 126.072L87.3063 126.47L89.1201 126.829L90.9325 127.146L92.7419 127.423L94.5473 127.66L96.3473 127.856L98.141 128.01L99.9269 128.124L101.704 128.197L103.47 128.229L105.226 128.22L106.969 128.17L108.698 128.08L110.413 127.95L112.111 127.779L113.793 127.568L115.457 127.318L117.101 127.027L118.726 126.698L120.329 126.33L121.909 125.924L123.467 125.479L125.001 124.997L126.509 124.478L127.992 123.921L129.447 123.328L130.875 122.7L132.274 122.036L133.644 121.338L134.984 120.605L136.293 119.839L137.57 119.04L138.815 118.209L140.026 117.346L141.204 116.452L142.347 115.527L143.456 114.573L144.529 113.59L145.567 112.579L146.567 111.54L147.53 110.475L148.456 109.383L149.344 108.266L150.194 107.125L151.005 105.96L151.777 104.773L152.51 103.563L153.202 102.333L153.855 101.082L154.468 99.8108L155.04 98.5213L155.572 97.214L156.063 95.8896L156.513 94.5495L156.922 93.1936L157.29 91.8233L157.616 90.4396L157.902 89.0428L158.146 87.6343L158.349 86.2147L158.511 84.7848L158.632 83.3457L158.712 81.8984L158.751 80.4432M7.98214 48.0963L7.39018 49.5079L6.84112 50.9412L6.33497 52.3963L5.87274 53.8718L5.45441 55.3675L5.08065 56.8816L4.75148 58.4141L4.4679 59.9634L4.22992 61.5292L4.03818 63.11L3.89269 64.7055L3.79381 66.3142L3.74152 67.9349L3.73651 69.5673L3.77841 71.2098L3.86757 72.8616L4.00432 74.5219L4.18869 76.1892L4.42064 77.8628L4.70021 79.5412L5.02735 81.2235L5.40177 82.9089L5.82345 84.5957L6.29241 86.2831L6.80861 87.9701L7.37142 89.6555L7.98114 91.3379L8.63747 93.0162L9.33937 94.6895L10.0869 96.3565L10.88 98.0161L11.7176 99.6673L12.5999 101.308L13.526 102.939L14.4958 104.557L15.5081 106.162L16.5629 107.753L17.6587 109.329L18.7957 110.887L19.9729 112.429L21.1894 113.951L22.4447 115.454L23.7379 116.935L25.068 118.395L26.4339 119.831L27.8354 121.243L29.2711 122.631L30.7399 123.992L32.241 125.326L33.7735 126.632L35.3362 127.908L36.9281 129.155L38.5481 130.371L40.1946 131.555L41.8672 132.707L43.5644 133.825L45.2846 134.91L47.0273 135.958L48.7911 136.972L50.5744 137.949L52.3765 138.889L54.1952 139.791L56.0301 140.655L57.8794 141.48L59.7421 142.265L61.6169 143.01L63.5021 143.715L65.397 144.379L67.2992 145.001L69.2085 145.581L71.1229 146.12L73.0412 146.616L74.9619 147.069L76.884 147.479L78.806 147.846L80.7264 148.169L82.6444 148.449L84.5577 148.685L86.466 148.877L88.3673 149.026L90.2608 149.13L92.145 149.191L94.0181 149.208L95.8798 149.181L97.7284 149.111L99.5626 148.998L101.381 148.841L103.183 148.642L104.967 148.399L106.732 148.115L108.477 147.788L110.2 147.419L111.901 147.009L113.579 146.559L115.232 146.067L116.859 145.535L118.46 144.964L120.034 144.354L121.579 143.705L123.094 143.018L124.58 142.294L126.034 141.533L127.457 140.736L128.847 139.903L130.203 139.035L131.525 138.133L132.812 137.198L134.063 136.23L135.278 135.229L136.456 134.198L137.597 133.136L138.7 132.044L139.763 130.924L140.788 129.775L141.773 128.599L142.717 127.397M122.679 22.4541L122.099 21.9604L121.508 21.4767L120.908 21.0027L120.298 20.5395L119.679 20.0863L119.051 19.6442L118.415 19.2131L117.771 18.7931L117.118 18.3845L116.458 17.9879L115.792 17.6034L115.118 17.2307L114.438 16.8707L113.753 16.5231L113.062 16.1886L112.366 15.8668L111.665 15.5581L110.959 15.2631L110.25 14.9812L109.537 14.7133L108.821 14.4593L108.102 14.2189L107.381 13.9927L106.658 13.7808L105.934 13.5834L105.208 13.4007L104.482 13.2324L103.755 13.0789L103.029 12.9401L102.302 12.8164L101.577 12.7075L100.854 12.6137L100.132 12.5349L99.4117 12.4715L98.6947 12.4233L97.9804 12.3904L97.2697 12.373L96.5628 12.3706L95.8599 12.3837L95.162 12.4122L94.4688 12.4561L93.7813 12.5151L93.0995 12.5899L92.4241 12.6797L91.7554 12.7849L91.0933 12.9053L90.439 13.0407L89.7924 13.1912L89.1539 13.3571L88.5244 13.5378L87.9036 13.7336L87.2918 13.9441L86.6902 14.1693L86.0985 14.409L85.517 14.6631L84.9464 14.9316L84.387 15.2145L83.8393 15.5111L83.3029 15.8222L82.779 16.1467L82.2675 16.4845L81.7691 16.8362L81.2834 17.2009L80.8111 17.5786L80.3525 17.9692L79.908 18.3724L79.478 18.7877L79.0623 19.2154L78.6617 19.6552L78.2763 20.1064L77.9059 20.569L77.5512 21.0429L77.2124 21.5276L76.8895 22.0231L76.5832 22.5289L76.2936 23.0448L76.0204 23.5704L75.764 24.1053L75.525 24.6497L75.3031 25.2024L75.0986 25.7639L74.9115 26.3338L74.7423 26.9113L74.5911 27.4966L74.4577 28.0885L74.3427 28.6879L74.2455 29.2932L74.1667 29.9046L74.106 30.5221L74.0641 31.1449L74.0407 31.7724L74.0357 32.4046L74.0491 33.0411L74.0812 33.6813L74.1319 34.3249L74.2009 34.9719L74.2887 35.6212L74.395 36.2728L74.5197 36.9261L74.6632 37.5811L74.8247 38.2367L75.0044 38.893L75.2025 39.5497L75.4184 40.2064L75.6523 40.862L75.9044 41.5167L76.1742 42.17L76.4612 42.8213L76.7659 43.4705L77.0877 44.1168L77.4265 44.7601L77.7822 45.4L78.1546 46.0355L78.5434 46.667L78.9484 47.2938L79.3694 47.9153L79.8058 48.5311L80.258 49.1411L80.7249 49.7448L81.2069 50.3418L81.7037 50.9314L82.2142 51.5137L82.7391 52.0882L83.2775 52.6544L83.8292 53.2118L84.3937 53.7602L84.9706 54.2995L85.5599 54.8288L86.1612 55.3484L86.7736 55.8572L87.3974 56.3557L88.0316 56.843L88.6762 57.3187L89.3305 57.7829L89.9942 58.2355L90.667 58.6756L91.3484 59.103L92.0379 59.5179L92.7352 59.9195L93.4394 60.3077L94.1507 60.6824L94.8684 61.0434L95.5917 61.3904L96.3205 61.7229L97.0539 62.041L97.7923 62.3443L98.5341 62.633L99.2799 62.9065L100.028 63.1646L100.78 63.4076L101.533 63.6349L102.288 63.8467L103.044 64.0428L103.8 64.2225L104.557 64.3864L105.313 64.5342L106.068 64.6659L106.822 64.7813L107.574 64.8805L108.324 64.9633L109.071 65.0293L109.816 65.0792L110.556 65.1124L111.292 65.1295L112.023 65.1299L112.75 65.1138L113.47 65.0813L114.185 65.0327L114.893 64.9676L115.595 64.8862L116.289 64.7883L116.975 64.6747L117.653 64.5449L118.323 64.3991L118.983 64.2376L119.634 64.0606L120.276 63.8678L120.907 63.6597L121.528 63.4361L122.137 63.1974L122.736 62.944L123.322 62.6755L123.897 62.3929L124.459 62.0956L125.009 61.7842L125.546 61.4591L126.069 61.1199L126.579 60.7672L127.074 60.4012L127.556 60.0224L128.023 59.6309L128.476 59.2267L128.913 58.8103L129.335 58.3819L129.742 57.9418L130.133 57.4906L130.509 57.0281L130.868 56.5544L131.21 56.0707L131.537 55.5766L131.847 55.0728L132.14 54.5593L132.416 54.0364L132.674 53.5048L132.916 52.9648L133.141 52.4164L133.347 51.8599L133.537 51.2961L133.709 50.725L133.863 50.1471L133.999 49.5628L134.118 48.9722L134.218 48.3759L134.301 47.7742L134.366 47.1671L134.413 46.5557L134.442 45.94L134.454 45.3202L134.447 44.697L134.422 44.0706L134.38 43.441L134.32 42.8092L134.242 42.1753L134.147 41.5398L134.034 40.9026L133.903 40.2647L133.756 39.6261L133.59 38.9872L133.408 38.3487L133.209 37.7104L132.993 37.0729L132.76 36.437L132.511 35.8025L132.245 35.17L131.963 34.5398L131.665 33.9123L131.351 33.2878L131.022 32.667L130.677 32.0496L130.316 31.4365L129.941 30.8274L129.551 30.2237L129.146 29.6247L128.727 29.0314L128.294 28.4438L127.847 27.8623L127.387 27.2874L126.913 26.7189L126.426 26.1578L125.926 25.604L125.415 25.058L124.89 24.52L124.354 23.9904L123.807 23.4691L123.248 22.9569L122.679 22.4541ZM115.529 26.8487L115.857 27.1075L116.194 27.3576L116.522 27.6106L116.827 27.8785L117.097 28.1697L117.345 28.4778L117.588 28.7919L117.844 29.1019L118.124 29.4003L118.414 29.6926L118.696 29.9862L118.949 30.2892L119.161 30.6077L119.345 30.9372L119.523 31.272L119.716 31.6052L119.937 31.933L120.171 32.2565L120.395 32.58L120.588 32.9071L120.733 33.2407L120.847 33.5799L120.953 33.9225L121.075 34.2667L121.229 34.6113L121.397 34.9545L121.555 35.2961L121.679 35.635L121.752 35.9712L121.791 36.3071L121.821 36.6446L121.868 36.9872L121.948 37.3355L122.043 37.6858L122.129 38.0327L122.179 38.3709L122.176 38.6971L122.139 39.0165L122.092 39.3366L122.061 39.6638L122.063 40.003L122.082 40.3472L122.091 40.6865L122.066 41.0113L121.988 41.315L121.874 41.6059L121.751 41.8955L121.643 42.1952L121.568 42.5123L121.508 42.8375L121.441 43.1562L121.34 43.4549L121.189 43.7244L121.003 43.9755L120.808 44.2232L120.627 44.4836L120.476 44.7665L120.341 45.0598L120.197 45.3461L120.024 45.6072L119.806 45.8318L119.555 46.0326L119.295 46.2287L119.047 46.4395L118.826 46.6772L118.619 46.9272L118.405 47.1696L118.166 47.3828L117.888 47.5534L117.582 47.6958L117.266 47.8323L116.961 47.9845L116.678 48.1675L116.406 48.3649L116.131 48.5536L115.834 48.7102L115.506 48.8198L115.156 48.8979L114.798 48.9686L114.447 49.0564L114.112 49.1768L113.786 49.3132L113.459 49.4409L113.116 49.5348L112.752 49.5783L112.371 49.5884L111.984 49.5904L111.6 49.6095L111.226 49.6628L110.859 49.7329L110.492 49.7942L110.117 49.8214L109.73 49.7969L109.334 49.7382L108.933 49.6705L108.531 49.6202L108.134 49.6035L107.74 49.6041L107.347 49.5968L106.954 49.5555L106.559 49.464L106.163 49.3383L105.764 49.2036L105.361 49.0849L104.956 48.9991L104.549 48.9304L104.146 48.8543L103.751 48.7464L103.365 48.5908L102.985 48.4028L102.604 48.2057L102.216 48.0237L101.817 47.8722L101.415 47.7364L101.018 47.5946L100.636 47.4243L100.274 47.2108L99.9248 46.9675L99.5769 46.7161L99.2192 46.4774L98.8441 46.2659L98.462 46.0691L98.0869 45.8673L97.733 45.6414L97.4095 45.3783L97.1055 45.0897L96.8045 44.7933L96.491 44.5078L96.1542 44.245L95.8072 43.9946L95.4687 43.7408L95.1573 43.4683L94.8851 43.1663L94.6381 42.8435L94.3964 42.5143L94.1396 42.1929L93.8544 41.8892L93.5564 41.5959L93.2674 41.3009L93.0107 40.9925L92.8001 40.6633L92.6205 40.3191L92.4475 39.9701L92.2575 39.6259L92.0349 39.2934L91.7972 38.9686L91.5693 38.6441L91.3772 38.3126L91.2368 37.9693L91.1309 37.6174L91.033 37.2621L90.9173 36.9084L90.7658 36.5608L90.5975 36.2176L90.4397 35.8767L90.319 35.5354L90.254 35.1915L90.2258 34.8456L90.207 34.4977L90.1695 34.1487L90.0951 33.7994L90.0022 33.4518L89.9194 33.1079L89.8752 32.77L89.8876 32.4392L89.9382 32.1124L89.9985 31.7855L90.0401 31.4547L90.0448 31.1175L90.0307 30.7793L90.026 30.4461L90.0589 30.1246L90.148 29.8196L90.2747 29.5243L90.4115 29.231L90.5308 28.931L90.6136 28.6192L90.6783 28.3032L90.7514 27.9934L90.8597 27.7015L91.0212 27.4333L91.219 27.1809L91.4265 26.9319L91.6179 26.6741L91.7755 26.3992L91.9156 26.1176L92.063 25.8438L92.242 25.5917L92.4696 25.3708L92.7304 25.1704L93.0003 24.9749L93.256 24.7685L93.4816 24.5412L93.6915 24.3049L93.907 24.0766L94.1493 23.8741L94.4339 23.7086L94.747 23.5674L95.0688 23.4324L95.3789 23.2852L95.6638 23.1136L95.9343 22.9312L96.2091 22.7573L96.5055 22.6118L96.8356 22.5072L97.1893 22.4301L97.5503 22.36L97.9029 22.2769L98.2354 22.1676L98.5566 22.0456L98.88 21.9327L99.2186 21.8492L99.5819 21.8093L99.9627 21.7986L100.349 21.7959L100.73 21.7795L101.098 21.7359L101.457 21.6793L101.817 21.6307L102.185 21.6122L102.568 21.638L102.961 21.6937L103.359 21.7577L103.754 21.8086L104.143 21.8321L104.527 21.8425L104.909 21.8603L105.292 21.9075L105.68 21.9977L106.071 22.117L106.465 22.2451L106.86 22.3611L107.256 22.4509L107.65 22.5273L108.039 22.6111L108.424 22.7217L108.802 22.8726L109.177 23.0512L109.553 23.2383L109.934 23.4146L110.321 23.5671L110.71 23.7072L111.093 23.8534L111.464 24.0233L111.819 24.2295L112.164 24.4604L112.508 24.6994L112.859 24.9294L113.224 25.1389L113.593 25.3376L113.956 25.5408L114.3 25.764L114.619 26.0174L114.921 26.292L115.22 26.5735L115.529 26.8487ZM127.937 19.9513L127.107 19.2467L126.263 18.5558L125.405 17.8797L124.533 17.218L123.649 16.5711L122.751 15.9399L121.842 15.3242L120.922 14.7248L119.99 14.1416L119.048 13.5751L118.095 13.0257L117.134 12.4934L116.163 11.9789L115.184 11.4821L114.197 11.0038L113.203 10.5435L112.201 10.1021L111.194 9.67971L110.18 9.27613L109.162 8.89232L108.139 8.52796L107.112 8.18371L106.081 7.85923L105.048 7.55488L104.012 7.27096L102.974 7.00783L101.935 6.76547L100.896 6.54391L99.8558 6.34313L98.8167 6.16379L97.7786 6.00557L96.7422 5.86882L95.7077 5.75384L94.6763 5.66032L93.6482 5.58825L92.6239 5.53831L91.6042 5.50981L90.5895 5.50311L89.5806 5.51853L88.578 5.55574L87.5821 5.61506L86.5936 5.69618L85.6132 5.79909L84.6411 5.92413L83.6784 6.07094L82.7251 6.23921L81.7818 6.42961L80.8496 6.64145L79.9285 6.87508L79.0194 7.13018L78.1228 7.40671L77.2388 7.70471L76.3683 8.02349L75.5122 8.36337L74.6702 8.72438L73.8433 9.10584L73.0321 9.50775L72.2366 9.93011L71.458 10.3729L70.6964 10.8352L69.9522 11.3175L69.2259 11.819L68.5179 12.3399L67.8291 12.8795L67.1597 13.438L66.5097 14.0145L65.8806 14.6095L65.2715 15.2223L64.6839 15.8521L64.1174 16.4994L63.5727 17.1634L63.0505 17.8435L62.5507 18.5401L62.074 19.252L61.6205 19.9794L61.1904 20.7216L60.7845 21.4781L60.4027 22.2487L60.0454 23.0328L59.7129 23.8302L59.4055 24.6401L59.1233 25.4623L58.8668 26.2963L58.6359 27.1416L58.4311 27.9974L58.2521 28.8636L58.0996 29.7398L57.9735 30.6247L57.874 31.5187L57.8012 32.4207L57.7553 33.3301L57.7365 34.2469L57.7442 35.17L57.7795 36.0992L57.8415 37.0334L57.9303 37.9727L58.0466 38.9159L58.1901 39.8629L58.3603 40.8128L58.5574 41.7651L58.7817 42.7194L59.0328 43.6748L59.3103 44.6307L59.6143 45.5864L59.9452 46.5417L60.3018 47.4957L60.685 48.4477L61.0939 49.3973L61.5283 50.3439L61.9882 51.2868L62.4729 52.2251L62.9828 53.1586L63.5174 54.0868L64.0759 55.0082L64.6584 55.9233L65.2648 56.8307L65.8943 57.7301L66.5463 58.621L67.221 59.5029L67.9176 60.3748L68.6356 61.2362L69.375 62.087L70.1349 62.926L70.9149 63.7529L71.7151 64.5675L72.534 65.3686L73.3713 66.1563L74.2271 66.9296L75.1003 67.6882L75.9906 68.4313L76.8973 69.1587L77.8194 69.87L78.7573 70.5645L79.7093 71.2416L80.6757 71.9013L81.6551 72.5432L82.647 73.166L83.6512 73.7701L84.6669 74.355L85.6929 74.9201L86.729 75.4648L87.7745 75.9894L88.8287 76.4932L89.8907 76.9759L90.96 77.4372L92.0359 77.8766L93.1173 78.2939L94.204 78.6891L95.2951 79.0619L96.3895 79.4118L97.4873 79.739L98.5868 80.0427L99.6879 80.3232L100.79 80.58L101.892 80.8133L102.993 81.0228L104.093 81.2085L105.19 81.3701L106.285 81.5078L107.376 81.6211L108.463 81.7106L109.545 81.7753L110.621 81.8162L111.691 81.833L112.753 81.8253L113.809 81.7934L114.855 81.7378L115.893 81.658L116.92 81.5544L117.938 81.4267L118.944 81.2756L119.938 81.1006L120.921 80.9025L121.89 80.6809L122.846 80.4365L123.788 80.169L124.715 79.8791L125.627 79.5667L126.524 79.2322L127.404 78.8755L128.267 78.4974L129.113 78.0978L129.941 77.6775L130.751 77.2364L131.542 76.7745L132.314 76.2928L133.066 75.791L133.799 75.2701L134.51 74.7301L135.201 74.1716L135.871 73.5948L136.519 72.9998L137.145 72.3877L137.748 71.7585L138.329 71.1126L138.887 70.4506L139.422 69.7725L139.933 69.0796L140.421 68.3717L140.884 67.6493L141.324 66.9132L141.739 66.1637L142.129 65.4011L142.495 64.6258L142.835 63.8391L143.151 63.0406L143.441 62.2311L143.706 61.4116L143.945 60.5816L144.159 59.7426L144.348 58.8942L144.51 58.0378L144.647 57.1733L144.759 56.3018L144.844 55.4232L144.904 54.5386L144.939 53.648L144.947 52.7523L144.93 51.8516L144.888 50.9469L144.82 50.0389L144.726 49.1275L144.608 48.2137L144.464 47.2976L144.295 46.3802L144.102 45.4617L143.883 44.5429L143.64 43.6238L143.373 42.7057L143.082 41.7886L142.767 40.8732L142.428 39.9597L142.065 39.049L141.679 38.1413L141.27 37.2376L140.839 36.3379L140.385 35.4426L139.909 34.5529L139.411 33.6687L138.891 32.7905L138.351 31.9189L137.789 31.0544L137.207 30.1977L136.604 29.349L135.982 28.5086L135.34 27.6773L134.679 26.8551L133.999 26.0429L133.301 25.2411L132.586 24.45L131.852 23.67L131.101 22.9014L130.334 22.1452L129.55 21.401L128.751 20.6696L127.937 19.9513ZM131.158 19.8624L130.119 18.9805L129.062 18.1164L127.988 17.2703L126.897 16.4424L125.79 15.6335L124.668 14.8435L123.53 14.0735L122.378 13.3233L121.213 12.5939L120.034 11.885L118.842 11.1978L117.639 10.5318L116.425 9.88787L115.2 9.2664L113.965 8.6674L112.721 8.0912L111.468 7.53845L110.207 7.0095L108.939 6.50435L107.664 6.02334L106.383 5.56646L105.098 5.13473L103.807 4.72746L102.513 4.34566L101.215 3.98935L99.915 3.65883L98.6131 3.35381L97.3101 3.07525L96.0069 2.82251L94.7036 2.59625L93.4017 2.39647L92.1011 2.22351L90.8032 2.07736L89.5083 1.95836L88.2175 1.86618L86.931 1.80115L85.6498 1.76361L84.3747 1.75322L83.106 1.76998L81.845 1.81423L80.5917 1.88596L79.3474 1.98518L78.1129 2.11188L76.8884 2.26575L75.6746 2.44742L74.4726 2.65625L73.2826 2.89223L72.1061 3.15537L70.9429 3.44599L69.7942 3.76342L68.6605 4.10801L67.543 4.4794L66.4412 4.87729L65.3568 5.30165L64.2902 5.7525L63.2417 6.22949L62.2126 6.73229L61.203 7.2609L60.2138 7.81499L59.2454 8.39422L58.2988 8.99859L57.374 9.62741L56.472 10.2807L55.5934 10.9582L54.739 11.6594L53.9087 12.3838L53.1039 13.1316L52.3245 13.9019L51.5713 14.6946L50.8446 15.5088L50.1451 16.3448L49.4733 17.2016L48.8297 18.0792L48.215 18.9768L47.629 19.8939L47.0729 20.8305L46.5467 21.7855L46.0506 22.7582L45.5853 23.7491L45.1509 24.7564L44.7483 25.7804L44.3776 26.8202L44.0391 27.8754L43.733 28.9454L43.4595 30.0291L43.2191 31.1262L43.012 32.236L42.838 33.3579L42.6983 34.4913L42.592 35.6353L42.5199 36.7894L42.482 37.9529L42.4784 39.1251L42.5092 40.305L42.5742 41.4923L42.6738 42.6856L42.8079 43.8849L42.9765 45.0893L43.1799 46.2974L43.4176 47.5091L43.6898 48.7235L43.9961 49.9396L44.3367 51.1571L44.7111 52.3745L45.1194 53.5913L45.5615 54.8071L46.0372 56.0205L46.546 57.2309L47.088 58.4377L47.6622 59.64L48.2689 60.837L48.9078 62.0276L49.5782 63.2116L50.2798 64.3875L51.0126 65.555L51.7755 66.7134L52.5682 67.8615L53.3905 68.9985L54.2419 70.1241L55.1214 71.2369L56.0288 72.3367L56.9637 73.4228L57.9254 74.4938L58.9132 75.5493L59.9262 76.5887L60.964 77.6115L62.0259 78.6164L63.1113 79.6032L64.2195 80.5706L65.3494 81.5189L66.5008 82.4464L67.6724 83.3531L68.8637 84.2384L70.0741 85.1015L71.3023 85.9419L72.5479 86.7588L73.8095 87.5518L75.087 88.3204L76.3789 89.0639L77.6848 89.7823L79.0035 90.4745L80.3342 91.1401L81.676 91.7794L83.0279 92.3911L84.3891 92.975L85.7588 93.5311L87.1358 94.0584L88.5192 94.5572L89.9082 95.0268L91.3017 95.4673L92.6988 95.8779L94.0986 96.2587L95.5004 96.6096L96.9025 96.9297L98.305 97.2197L99.7061 97.4788L101.105 97.7071L102.501 97.9048L103.894 98.0714L105.282 98.2069L106.663 98.3114L108.038 98.3845L109.406 98.4268L110.765 98.4378L112.115 98.4177L113.455 98.3668L114.783 98.2853L116.1 98.1727L117.404 98.0295L118.695 97.8559L119.97 97.6518L121.231 97.4178L122.476 97.154L123.704 96.8607L124.915 96.5379L126.107 96.1859L127.28 95.8051L128.434 95.3962L129.567 94.9588L130.679 94.4935L131.77 94.0011L132.838 93.4815L133.883 92.9355L134.905 92.3633L135.902 91.765L136.874 91.1415L137.821 90.4932L138.743 89.8205L139.638 89.1239L140.507 88.4039L141.348 87.6611L142.162 86.8962L142.947 86.1091L143.704 85.3006L144.432 84.4717L145.13 83.6226L145.799 82.7541L146.438 81.8665L147.047 80.9605L147.625 80.0366L148.173 79.0961L148.69 78.1387L149.175 77.1653L149.629 76.1765L150.051 75.1735L150.441 74.1562L150.8 73.1258L151.127 72.0823L151.421 71.0271L151.683 69.9605L151.913 68.8832L152.111 67.7954L152.276 66.6987L152.409 65.5932L152.51 64.4793L152.578 63.3584L152.614 62.2304L152.618 61.0968L152.59 59.9575L152.529 58.8134L152.437 57.6653L152.314 56.5139L152.158 55.3598L151.971 54.2034L151.753 53.0459L151.504 51.8875L151.224 50.729L150.914 49.5709L150.573 48.4141L150.202 47.2591L149.801 46.1066L149.371 44.9572L148.912 43.8115L148.423 42.6705L147.906 41.5342L147.361 40.4035L146.787 39.2789L146.187 38.1614L145.559 37.0512L144.905 35.9487L144.224 34.8553L143.517 33.7709L142.785 32.6963L142.028 31.632L141.246 30.5785L140.439 29.5363L139.61 28.5063L138.757 27.4889L137.881 26.4843L136.983 25.4935L136.063 24.517L135.123 23.5547L134.161 22.6077L133.179 21.6765L132.178 20.7611L131.158 19.8624Z" stroke="url(#paint0_angular_131_2)" stroke-width="1.875" stroke-linecap="round" stroke-linejoin="round"/>
</g>
<defs>
<radialGradient id="paint0_angular_131_2" cx="0" cy="0" r="1" gradientUnits="userSpaceOnUse" gradientTransform="translate(80.0003 79.8457) rotate(90) scale(78.8457 78.7503)">
<stop offset="0.0993526" stop-color="#FFC876"/>
<stop offset="0.427081" stop-color="#79FFF7"/>
<stop offset="0.718753" stop-color="#9F53FF"/>
<stop offset="1" stop-color="#FF98E2"/>
</radialGradient>
</defs>
</svg>
